<?xml version="1.0" encoding="utf-8"?>
<!-- Generator: Adobe Illustrator 27.5.0, SVG Export Plug-In . SVG Version: 6.00 Build 0)  -->
<svg version="1.1" id="Layer_1" xmlns="http://www.w3.org/2000/svg" xmlns:xlink="http://www.w3.org/1999/xlink" x="0px" y="0px"
	 viewBox="0 0 123.9 153" style="enable-background:new 0 0 123.9 153;" xml:space="preserve">
<style type="text/css">
	.st0{display:none;}
	.st1{display:inline;}
	.st2{fill:#FFFFFF;}
</style>
<g id="wh" class="st0">
	<g class="st1">
		<path class="st2" d="M97.9,39.8H120l-64.1,79.9c-1,1.2-2.5,2-4.1,2l0,0c-1.6,0-3.1-0.7-4.1-1.9l-65.3-80H4.8l46.7,57.3L97.9,39.8z
			"/>
	</g>
</g>
<g id="grey">
	<g>
		<path class="st2" d="M109.4,130.7c2.5,2,3.9,5,3.9,8.2l0,0c0,8.8-10.2,13.7-17.1,8.2L15.8,82.6c-1.5-1.2-2.4-3-2.4-5l0,0
			c0-1.9,0.8-3.8,2.3-5L96,7.1c6.9-5.6,17.3-0.7,17.3,8.2l0,0c0,3.2-1.4,6.2-3.9,8.2L43.5,77.3L109.4,130.7z"/>
	</g>
</g>
</svg>
