<?xml version="1.0" encoding="utf-8"?>
<!-- Generator: Adobe Illustrator 27.5.0, SVG Export Plug-In . SVG Version: 6.00 Build 0)  -->
<svg version="1.1" id="Layer_1" xmlns="http://www.w3.org/2000/svg" xmlns:xlink="http://www.w3.org/1999/xlink" x="0px" y="0px"
	 viewBox="0 0 149 154" style="enable-background:new 0 0 149 154;" xml:space="preserve">
<style type="text/css">
	.st0{fill:#FF5000;}
</style>
<g>
	<path class="st0" d="M68.5,6.3C68.6,6.2,70.1,6,71.8,6s6.3,0,6.7,0c0.4,0,1.4,0.2,1.6,0.4c0,0,0,0,0.3-0.1c0.2-0.1,0.4,0,0.6,0
		c0.8,0.1,1.7,0.1,2.5,0.3C84.2,6.8,85,6.8,85.8,7c0.3,0.1,0.3,0.1,0.3,0.1c0.4,0,1.1,0.1,1.6,0.2c0.4,0.1,1.8,0.3,1.9,0.3
		c0,0,0,0,0.1,0c1.6,0.4,3.2,0.8,4.7,1.3C94.7,9,94.7,9,94.7,9c0.3,0.1,0.8,0.2,1.1,0.2c0,0,0,0,0.2,0.1c0.6,0.2,1.2,0.6,1.8,0.8
		c1.2,0.3,1.2,0.3,1.2,0.3c1.3,0.5,2.9,1.1,3.5,1.4c0.6,0.3,2.3,1,2.4,1.1s0.7,0.4,1.1,0.6s1.9,0.9,2.4,1.3s2.2,1.2,2.4,1.3
		c0.2,0.1,1.1,0.7,1.5,0.9c0.4,0.3,1.6,0.9,1.7,1s0.8,0.6,1.1,0.8c0.3,0.2,1.7,1.3,2.3,1.7c0.6,0.4,2.4,2,2.8,2.4c0,0,0,0,0.5,0.2
		l0,0c0,0.1,0.1,0.2,0.2,0.2l0,0c0,0.1,0,0.1,0,0.1c0.1,0.1,0.2,0.2,0.3,0.2c0,0,0.4,0.3,0.7,0.6s1.6,1.5,2.1,2.1
		c0.6,0.6,2.4,2.5,2.8,2.9c0.4,0.4,1.5,1.7,1.7,2c0.2,0.2,1,1.2,1.5,1.8c0.5,0.6,1.8,2.3,1.9,2.5c0.1,0.2,0.6,0.6,0.7,0.8
		c0.1,0.2,0.6,0.9,0.8,1.2c0.2,0.3,1.1,1.8,1.6,2.5s2,3.3,2.3,3.9c0.3,0.6,1.3,2.6,1.6,3.2c0.3,0.6,1.1,2.3,1.2,2.5s0.5,1.3,0.8,1.9
		c0.3,0.6,1,2.8,1.2,3.4c0.2,0.5,0.8,2.7,1,3.6c0.2,0.9,1,3.3,1,3.3c0,0.1,0.1,0.7,0.2,1.4c0.1,0.6,0.5,2.9,0.7,3.7
		c0.2,0.7,0.4,3.1,0.5,3.5c0,0.4,0,1.6,0.1,1.7s0.3,1.4,0.3,2.9s0,5.6,0,5.8c0,0.1-0.1,1.1-0.2,1.9c-0.1,0.8-0.2,3.2-0.2,3.6
		c0,0.4-0.4,2.1-0.5,2.8c-0.1,0.7-0.5,3.2-0.7,4.2c0,0,0,0-0.3,0.9c-0.5,1.6-0.5,1.6-0.5,1.6c-0.4,1.8-0.8,3.5-0.9,3.8
		c-0.1,0.3-0.5,1.5-0.6,2.1c-0.2,0.6-1.1,2.3-1.2,2.5s-0.2,0.7-0.3,0.8c-0.1,0.1-0.5,1-0.8,1.7s-1.5,3.2-2,4s-1.7,3.3-2,3.8
		c-0.3,0.5-1.4,2.3-1.8,2.9c-0.4,0.7-1.8,2.6-2.1,2.9s-1.6,2-2.3,3c-0.7,1-3.2,3.6-3.5,3.9s-1.7,1.7-2.3,2.3s-2.5,2.3-2.6,2.3
		c-0.1,0.1-0.3,0.3-0.4,0.4s-0.9,0.7-1.8,1.4c-0.9,0.7-3.8,2.8-4.5,3.3s-3.3,2.1-4.1,2.5c-0.8,0.5-3.8,2-4.8,2.5
		c-1,0.5-4.2,1.9-4.8,2.1c-0.5,0.2-2,0.8-2,0.8c-0.1,0-0.7,0.2-1.2,0.4s-2.4,0.8-3,0.9s-3,0.8-4.2,1.1c-1.2,0.3-4.7,1-5.3,1.1
		c-0.6,0.1-2.2,0.4-2.3,0.4c-0.1,0-0.7,0.1-1,0.2c-0.4,0.1-1.8,0.2-2.4,0.2c-0.6,0-3.2,0-4.3,0c-1.1,0-4.8,0-5.6,0
		c-0.8,0-3.9-0.5-5.2-0.7c-1.3-0.2-5.4-1-6.3-1.2c-0.9-0.2-3.7-1-4.1-1.1s-1.6-0.6-1.7-0.7c-0.1,0-0.9-0.3-1.7-0.6s-3.4-1.3-4-1.5
		c-0.6-0.2-2.5-1.1-2.9-1.3c-0.5-0.2-2-1-2.3-1.2c-0.3-0.2-1.5-0.8-1.9-1c-0.4-0.2-2-1.2-2.7-1.7s-2.9-1.9-3.1-2.1s-1.9-1.3-3-2.2
		c-1.1-0.8-4-3.2-4-3.2c0,0-0.1-0.1-0.2-0.2s-0.7-0.7-1.4-1.3c-0.7-0.6-2.5-2.6-2.6-2.8c-0.2-0.2-1-1-1.5-1.5
		c-0.4-0.4-1.5-1.8-1.6-2s-0.9-1.2-1.5-2c-0.6-0.8-2.1-3-2.2-3.2c-0.1-0.2-0.7-0.8-0.9-1.2c-0.2-0.4-1.3-2.1-1.7-3
		c-0.5-0.9-1.9-3.2-2.1-3.5c-0.2-0.3-0.5-1.1-0.5-1.2c0-0.1-0.5-1.2-1-2.3c0,0,0,0-0.4-1c-0.3-0.8-0.3-0.8-0.3-0.8
		c-0.4-0.8-0.8-1.5-0.8-1.7c0,0,0,0,0-0.1c-0.5-1.5-0.5-1.5-0.5-1.5c-0.5-1.6-1-3.1-1.1-3.3C6,98,5.7,96.7,5.5,95.7
		c-0.2-0.9-1-3.8-1.1-4.2c0,0,0,0,0-0.4c-0.1-0.6-0.1-0.6-0.1-0.6c-0.2-0.7-0.5-1.9-0.7-2.7c0,0,0,0-0.1-0.8
		c-0.1-0.8-0.1-0.8-0.1-0.8c-0.1-0.8-0.2-1.6-0.2-1.8c0-0.2-0.2-2.6-0.2-5c0-2.5,0-9,0.1-9c0,0,0.2-0.7,0.3-1.4c0,0,0,0,0-0.6
		c0-0.8,0-0.8,0-0.8c0.2-0.8,0.3-1.5,0.3-1.5c0,0,0-0.1,0-0.1c0,0,0.2-0.9,0.4-1.8c0,0,0,0,0.1-0.8c0-0.6,0-0.6,0-0.6
		c0.2-0.6,0.4-1.5,0.6-2s0.7-2.5,0.8-3.2C5.9,57,7,54,7.5,52.4c0,0,0,0,0.6-1.4c0.3-0.6,0.3-0.6,0.3-0.6c0.3-0.7,0.7-1.7,1-2.3
		c0.3-0.5,1-2.2,1.1-2.3c0.1-0.1,0.4-0.8,0.6-1.1s1.7-3.3,3.3-5.7c1.5-2.4,6.4-8.5,6.6-8.8c0.2-0.3,1.5-1.6,2.4-2.5s3.3-3.3,3.5-3.5
		s1.9-1.6,3.1-2.6c0,0,0,0,1.2-0.8c0.5-0.4,0.5-0.4,0.5-0.4c0.6-0.4,1.8-1.3,2.6-1.9c0.9-0.6,3.7-2.4,4.4-2.8
		c0.7-0.4,2.6-1.5,2.9-1.7c0.3-0.1,1.3-0.6,1.6-0.7s1.4-0.7,1.7-0.9c0.4-0.2,2-0.9,2.9-1.2c0,0,0,0,0.8-0.3c1.2-0.5,1.2-0.5,1.2-0.5
		c1.4-0.5,3.5-1.1,4.7-1.5s4.9-1.3,5.5-1.4c0.6-0.1,2.7-0.5,3.1-0.6c0,0,0,0,0.4-0.1c1.6-0.2,3.1-0.4,4.7-0.5
		C68.5,6.3,68.5,6.3,68.5,6.3z M37.2,59.8C37.2,59.8,37.2,59.9,37.2,59.8C37.2,59.9,37.2,59.9,37.2,59.8
		C37.2,59.9,37.2,59.9,37.2,59.8c0.1,0.2,0.1,0.5,0.2,0.9c0,0.3,0.4,1.9,0.6,2.8c0.2,0.9,1,3.6,1.2,4.2c0.2,0.6,0.7,2.5,0.8,2.9
		c0.2,0.4,0.7,2.2,0.9,2.8s1,2.7,1.2,3.3c0.2,0.6,1.1,2.7,1.4,3.5c0.3,0.8,1.5,3.3,1.8,4c0.3,0.6,1.5,3,1.9,3.8
		c0.4,0.8,1.8,3.4,2.1,3.9s1.4,2.4,1.8,3.1c0.4,0.7,1.8,3,2.2,3.5c0.4,0.5,1.7,2.5,2.1,3.1c0.5,0.6,2,2.8,2.4,3.4s2,2.7,2.7,3.6
		c0.7,0.9,3.1,3.7,3.7,4.3c0.6,0.6,2.6,2.9,3.2,3.6s3.1,3,4,3.8c0.9,0.8,3.8,3,4.5,3.5c0.6,0.5,3.1,1.8,4,2.3c0.8,0.4,4,1.4,5.1,1.6
		s3.8,0.2,3.9,0.2c0.1,0,0.4-0.1,0.6-0.1s0.5-0.1,0.6-0.1c0,0,0.5-0.1,1-0.2c0.5-0.1,2.3-0.7,2.9-1c0.6-0.2,2.2-1.3,2.6-1.5
		s1.5-1.1,1.6-1.2c0.1-0.1-0.4-1.1-0.8-1.8s-1.8-2.9-2.1-3.5c-0.3-0.5-1.4-2.5-1.7-3s-1.4-2.5-1.6-3c-0.2-0.5-1.3-2.2-1.7-2.8
		c-0.3-0.6-1.5-2.5-1.8-3c-0.3-0.5-1.6-2.7-2.1-3.5c-0.5-0.8-1.7-3.1-1.7-3.2c-0.1-0.1-1,0.1-1.7,0.4c-0.7,0.2-2.8,0.4-2.8,0.4
		c0,0-0.1,0-0.2,0s-0.2,0-0.2,0c0,0-0.2,0-0.4,0c-0.2,0-0.6,0-0.7,0s-0.3,0-0.7,0c-0.3,0-1.4-0.3-1.7-0.3c-0.3,0-0.9-0.5-0.9-0.5
		c0,0-0.7-0.4-1.5-0.8c-0.8-0.4-5-4-7.9-6.6c0,0,0,0-1.9-3c-0.6-1-0.6-1-0.6-1c-0.7-1-1.6-2.8-2.1-3.8c-0.5-1-1.8-4.3-2-4.9
		s-0.8-2.7-0.9-3.3c-0.2-0.6-0.5-2.6-0.6-3.1c-0.1-0.5-0.3-2.5-0.3-3.4c0-0.9,0.6-4,1-4.9c0,0,0,0,0.4-0.8c0.6-1.2,0.6-1.2,0.6-1.2
		c1.1-1,2.2-2,2.4-2.3c0,0,0,0-0.3-0.4c-0.5-0.7-0.5-0.7-0.5-0.7c-0.4-0.8-1.2-2.3-1.8-3.2c-0.5-0.9-2.2-3.8-2.7-4.6s-1.9-3.2-2.3-4
		c-0.4-0.7-1.8-3.1-2.2-3.7c-0.4-0.6-1.8-3.1-2.3-4.1c-0.5-1-2.1-3.6-2.3-3.7c0,0,0,0-0.2,0.2c-0.2,0.2-0.2,0.2-0.2,0.2
		c-0.3,0.2-1,0.6-1.6,1c-0.6,0.4-3.2,2.2-4.4,3.2c0,0,0,0-1.1,1c-0.5,0.4-0.8,0.9-1.1,1.4c-0.1,0.2-0.1,0.2-0.1,0.2
		c-0.1,0.2-0.4,0.5-0.6,0.8c-0.2,0.3-1.3,2.8-2,4.9c0,0,0,0,0.1,2.1c0.1,0.9-0.1,1.8,0,2.6c0.1,1,0.1,1,0.1,1c0,1.1,0.1,2.5,0.2,3
		s0.3,1.9,0.3,1.9c0,0,0,0.1,0,0.1C37.2,59.7,37.2,59.8,37.2,59.8z M101,122.6c0.5,0.2,0.8,0.4,0.8,0.5s0,0,0.1,0l0,0
		c0.2,0,0.2,0,0.2,0c0.2,0,0.4-0.1,0.4-0.1s0.4-0.1,0.7-0.2c0,0,0,0,0.3-0.1c1.7-0.8,1.7-0.8,1.7-0.8c1.8-1.1,3.9-2.2,4.6-2.6
		c0.7-0.4,2.2-2.3,2.4-2.7c0.2-0.3-0.1-1.6-0.2-1.9c-0.1-0.2-0.7-1.3-1-1.9c-0.3-0.7-2-3.4-2.7-4.8c0,0,0,0-0.7-1.2
		c-0.6-1.1-0.6-1.1-0.6-1.1c-0.7-1.2-1.7-2.8-2.1-3.6c-0.4-0.7-2.2-3.9-3.1-5.4c-0.9-1.5-3.8-5.8-4.5-6.3c-0.7-0.5-3-0.1-3.3,0
		s-1.8,1-2.7,1.5c-0.9,0.5-3.4,2-3.7,2.3s-1.3,1.4-1.6,2c-0.3,0.6,0.2,2.5,0.4,3.1c0.3,0.6,1.6,2.8,2.3,3.8c0,0,0,0,0.6,1
		c0.7,1.2,0.7,1.2,0.7,1.2c0.7,1.3,1.7,3,2.1,3.7c0.4,0.7,1.9,3.4,2.5,4.4c0.6,1,2.1,3.7,2.1,3.8s0.1,0.2,0.2,0.3
		c0,0.1,0.5,0.9,0.9,1.6C98.4,119.7,100.6,122.4,101,122.6z M54.6,43.9c0.5,0.7,0.9,1.3,0.9,1.4s0.1,0.1,0.1,0.2s0.1,0.1,0.1,0.2
		c0,0,0.2,0.2,0.2,0.3c0.1,0.1,0.9,1.5,1.7,2.8c0,0,0,0,0.6,1.2c0.7,1.3,1.5,2.6,2.3,3.9c0.2,0.4,0.2,0.4,0.2,0.4
		c0.2,0.4,0.7,1.2,1.1,1.8c0.3,0.5,1.4,2.4,1.6,2.8c0.2,0.4,1.8,1.3,2.4,1.4c0.6,0.1,2.4-0.5,2.7-0.7s2-1.1,3-1.7
		c1-0.5,3.7-2.3,3.8-2.4c0.2-0.1,0.6-1.2,0.7-1.9c0.2-0.7-0.7-2.8-1-3.3s-1.2-2.1-1.5-2.6c-0.3-0.5-1.4-2.3-1.8-2.9
		c-0.4-0.6-2.1-3.6-3-5.2c-0.9-1.6-3.8-6.5-4.2-7.3c-0.5-0.8-2.4-3.6-3.2-4.4c-0.8-0.7-3.6,0-3.8,0.1c-0.1,0.1-1.1,0.6-1.9,1
		s-3.2,1.9-3.9,2.3c0,0,0,0-0.7,0.4c-1,0.5-1,0.5-1,0.5c-0.3,1.1-0.5,2.4-0.3,2.9s1.3,2.7,2,4c0,0,0,0,0.7,1.1
		c0.2,0.3,0.2,0.3,0.2,0.3C53,40.8,54.1,43.1,54.6,43.9z"/>
</g>
</svg>
