<?xml version="1.0" encoding="utf-8"?>
<!-- Generator: Adobe Illustrator 27.5.0, SVG Export Plug-In . SVG Version: 6.00 Build 0)  -->
<svg version="1.1" xmlns="http://www.w3.org/2000/svg" xmlns:xlink="http://www.w3.org/1999/xlink" x="0px" y="0px"
	 viewBox="0 0 84 72.7" style="enable-background:new 0 0 84 72.7;" xml:space="preserve">
<style type="text/css">
	.st0{display:none;}
	.st1{display:inline;fill:#FFFFFF;}
	.st2{display:inline;fill:#FAFCFC;}
	.st3{display:inline;fill:#28468B;}
	.st4{display:inline;fill:#FF5000;}
	.st5{display:inline;fill:#A1A6A7;}
	.st6{display:inline;fill:#F5F7FA;}
	.st7{display:inline;fill:#0E4770;}
	.st8{display:inline;fill:#ACAFB2;}
	.st9{display:inline;fill:#37566A;}
	.st10{display:inline;fill:#26A7DF;}
	.st11{display:inline;fill:#46859E;}
	.st12{display:inline;opacity:0.4;fill:#C6CCE0;}
	.st13{display:inline;fill:#C6CCE0;}
	.st14{display:inline;fill:#8D99C0;}
	.st15{display:inline;fill:#4360A0;}
	.st16{display:inline;}
	.st17{fill:#FF5000;}
	.st18{fill:#F6D637;}
	.st19{fill:#F5F7FA;}
	.st20{fill:#0E4770;}
	.st21{fill:#ACAFB2;}
	.st22{fill:#37566A;}
	.st23{fill:#46859E;}
	.st24{fill:#FFFFFF;}
	.st25{fill:#E5E5E5;}
</style>
<g id="Layer_1" class="st0">
	<path class="st1" d="M55.1,14.3L55.1,14.3c0.1-1.3-0.4-2.6,0-3.9c0.1-0.4,0-1.1-0.5-1C53,10,51.3,8.9,49.8,9.8c0,0,0,0,0,0
		c0-1.3,0.3-2.7-0.6-3.9c-0.9,1.4-2,1.6-3.3,0.6c-0.8-0.6-1.5-0.4-2.3-0.1c-0.4,0.2-0.8,0.6-1.2,0.3c-1-0.8-2.2-0.4-3.3-0.5
		c-0.8-0.1-1.6,0.1-2.3-0.2c-2.3-0.8-2.3-0.8-3.1,1.4c-0.2,0.1-0.4,0.1-0.6,0.2C32.6,6.4,31,5.4,30.6,6c-0.7,0.9-1.9,1.4-2.4,2.4
		c-0.8,1.4-2,1.4-3.2,1.2c-1.2-0.2-1.5,0.1-1.4,1.2c0.1,0.8-0.1,1.4-1.1,1.3c-1.3-0.2-1.6,0.5-1.5,1.6c0.1,1.1-0.8,1.4-1.6,1.5
		c-1.2,0.1-1.2,0-0.7,1.2c0.7,1.5-0.4,3.5-2,3.6c-2.2,0.1-4.3,0.5-6.6,0.1c0.3,1,0.6,1.8-0.7,1.9c-0.6,0.1-1.2,0.7-1.2,1.2
		c-0.1,2.4-1.9,1.9-3.3,2.1c-0.3,0-0.6-0.2-0.9,0c-0.1,0.1-0.3,0.2-0.3,0.4c-0.1,0.2,0.1,0.4,0.3,0.5c0.4,0.1,1.2-0.2,1,0.6
		c-0.1,0.5-0.6,0.9-1.2,1c-1.2,0.2-1.4,1.3-1.3,2c0.4,2.5-0.2,5-0.1,7.4c0,2.1,0.3,4.2,0.2,6.3c-0.1,1.8,0.1,3.8,1.9,5
		c0.7,0.4,0.7,1.2,0.4,1.9c-0.2,0.6-0.1,0.9,0.7,0.9c1.5,0,2.4,0.6,2.1,2.3c-0.2,1.4,0.6,1.7,1.8,1.4c0.6-0.1,1.2-0.3,1.8-0.4
		c0.9-0.1,1.9,0.3,2.1,1c0.5,1.7,1.5,1.2,2.5,0.9c1.3-0.3,2.4-0.6,3.8,0c1,0.4,2.4,0.2,3.6,0.1c0.3,0,0.4-0.4,0.4-0.8
		c0.1-1.6,0.9-2.7,2.3-3.5c0.3,2.3,0.6,2.7,2.7,3.2c0.3,0.1,0.7,0.1,0.5,0.4c-0.6,1,0.4,1.4,0.6,2.1c0.2,1,0.9,2-0.4,2.7
		c-0.5,0.3-0.8,0.5-0.5,1c0.3,0.6,0.8,0.1,1.1,0c0.3-0.1,0.5-0.5,0.7-0.8c0.6,0.9,0.9,2.2,1.6,2.4c1.7,0.5,1.6,1.7,1.6,3
		c0,0.7,0.1,1.2,0.9,1.2c3-0.1,6-0.1,8.9-0.1c0.5,0,0.7-0.4,0.6-0.8c-0.2-1.8,0.7-3,1.7-4.5c1.1-1.6,1.3-1.1,2.1,0
		c-0.1-2.2,0.9-4.3-0.6-6.3c0.2-0.2,0.7-0.2,0.7-0.1c0.3,1.3,1.5,0.7,2.3,1.1c0.5,0.3,1.1,0,1-0.6c-0.4-1.6,1.1-2.5,1.4-3.7
		c0.1-0.5,0.4-0.8,0.9-0.7c0.5,0.1,0.3,0.6,0.4,1c0.4,1.4-0.8,1.9-1.5,2.7c-0.3,0.3-0.6,0.6-0.4,1.1c0.1,0.3,0.5,0.4,0.7,0.3
		c1.4-1,3,0.1,4.1-0.2c2.8-0.7,5.5-0.3,8.3-0.4c0.1,0.5,0.4,0.7,0.9,0.6c0.1,0,0.3-0.2,0.2-0.3c-0.2-0.5-0.7-0.2-1.1-0.3
		c0-1.1,0.6-1.8,1.6-1.9c1.5-0.2,3-0.2,4.5-0.1c1.1,0.1,1.5-0.2,1.4-1.3c-0.1-1.1,0.8-2,1.8-1.6c1.4,0.6,1.2-0.3,1.2-1.1
		c-0.1-1.3,0.4-1.9,1.7-1.7c0.9,0.1,0.9-0.3,0.9-1.1c-0.2-1.9,0.4-3.4,1.9-4.6c0.8-0.6,0.9-1.5,0.6-2.5c-0.6-2.6-0.8-5.3,0.1-8
		c0.2-0.5,0.2-1.5-0.1-1.5c-1.6-0.1-1.3-1.6-1.9-2.4c-0.7-0.9-1.2-1.8,0.7-1.9c0.3,0,0.6-0.3,0.7-0.6c0-0.3-0.1-0.6-0.4-0.6
		c-1.3,0.1-2.7-0.6-3.9,0.5c-0.2-0.3-0.4-0.6-0.6-0.9c0,0,0-0.1,0.1-0.1c0.8-1.4-0.7-2.9,0.2-4.3c0.2-0.2-0.4-0.6-0.7-0.4
		c-1.5,0.6-3-0.3-4.5-0.1l0,0c-0.1-0.9-0.3-1.8-0.1-2.6c0.2-1-0.2-1.2-0.9-1.6c-2-1-3.9-1.5-6.1-0.8c-0.9,0.3-1.8,0.6-2.7,0.3
		c-1.9-0.7-3.8-0.6-5.7-0.6l0,0C55.3,14.6,55.2,14.4,55.1,14.3z"/>
	<path class="st1" d="M67.5,55.8c1,0.5,1.8,0.3,2.5,0.3c0.4,0,0.8,0,0.8-0.5c0-0.5-0.4-0.7-0.9-0.8C69.1,54.7,68.5,55.5,67.5,55.8z"
		/>
	<path class="st1" d="M47.4,6.1c0.4,0,0.8-0.1,0.7-0.6c-0.1-0.4-0.4-0.6-0.8-0.6c-0.5,0-0.7,0.2-0.7,0.7C46.6,6,47,6.1,47.4,6.1z"/>
	<path class="st1" d="M34.3,4.5c0.5,0.3,1.1,0.5,1.7-0.1C35.3,4,34.8,4.1,34.3,4.5z"/>
	<path class="st1" d="M44.7,4.4c-0.5-0.1-1.1-0.5-1.7,0.2C43.7,4.8,44.2,4.9,44.7,4.4z"/>
	<path class="st1" d="M2.8,49.9c0.4-0.6,0.4-1,0-1.6C2.3,48.9,2.3,49.3,2.8,49.9z"/>
	<path class="st1" d="M39.3,4.4c-0.6-0.3-1-0.4-1.7,0.1C38.3,4.8,38.7,4.9,39.3,4.4z"/>
	<path class="st1" d="M20.8,9.8c0-0.3-0.2-0.4-0.4-0.4c-0.2,0-0.4,0.2-0.4,0.4c0,0.3,0.2,0.5,0.5,0.4C20.7,10.3,20.8,10.1,20.8,9.8z
		"/>
	<path class="st1" d="M19.2,11.6c0-0.2-0.1-0.4-0.4-0.4c-0.2,0-0.4,0.1-0.5,0.3c-0.1,0.3,0.1,0.5,0.4,0.5C19,12,19.1,11.8,19.2,11.6
		z"/>
	<path class="st1" d="M49.7,4.5c0-0.3-0.3-0.3-0.5-0.3c-0.2,0-0.5,0-0.5,0.3c0,0.3,0.3,0.3,0.5,0.3C49.4,4.8,49.6,4.7,49.7,4.5z"/>
	<path class="st1" d="M29.6,4.6c0.1-0.3,0-0.4-0.2-0.4c-0.1,0-0.3,0-0.4,0.1c-0.1,0.2,0,0.4,0.3,0.4C29.4,4.7,29.5,4.6,29.6,4.6z"/>
	<path class="st1" d="M25.6,56c-0.3-0.1-0.4,0-0.4,0.2c0,0.1,0,0.3,0.1,0.4c0.2,0.1,0.4,0,0.4-0.3C25.8,56.2,25.7,56.1,25.6,56z"/>
	<path class="st1" d="M49.8,61.5c-0.1-0.1-0.3-0.2-0.4-0.2c-0.1,0-0.2,0.2-0.2,0.3c0,0.2,0.1,0.4,0.4,0.3
		C49.7,61.9,49.8,61.6,49.8,61.5z"/>
	<path class="st1" d="M2.4,26.5c0.2,0.3,0.3,0.4,0.4,0.5C2.8,26.9,3,26.9,3,26.8c0.1-0.2,0-0.4-0.3-0.4C2.6,26.4,2.5,26.5,2.4,26.5z
		"/>
	<path class="st1" d="M80.3,46c0.1,0,0.2,0.1,0.3,0.1c0.1,0,0.1-0.2,0.1-0.3c-0.1,0-0.2-0.1-0.3-0.1C80.3,45.8,80.3,45.9,80.3,46z"
		/>
	<path class="st2" d="M76.4,25.8c1.2-1.1,2.6-0.4,3.9-0.5c0.3,0,0.5,0.2,0.4,0.6c-0.1,0.4-0.3,0.6-0.7,0.6c-1.8,0.1-1.3,1-0.7,1.9
		c0.6,0.8,0.3,2.3,1.9,2.4c0.3,0,0.2,1,0.1,1.5c-0.9,2.7-0.6,5.3-0.1,8c0.2,1.1,0.1,1.9-0.6,2.5c-1.6,1.2-2.1,2.7-1.9,4.6
		c0.1,0.7,0,1.2-0.9,1.1c-1.3-0.2-1.8,0.4-1.7,1.7c0.1,0.8,0.2,1.6-1.2,1.1c-1-0.4-1.9,0.5-1.8,1.6c0.1,1.1-0.3,1.4-1.4,1.3
		c-1.5-0.1-3-0.1-4.5,0.1c-1,0.1-1.6,0.8-1.6,1.9l0,0c-2.7,0.1-5.5-0.2-8.3,0.4c-1.1,0.3-2.7-0.8-4.1,0.2c-0.2,0.1-0.5,0-0.7-0.3
		c-0.2-0.5,0.1-0.8,0.4-1.1c0.7-0.8,1.8-1.3,1.5-2.7c-0.1-0.3,0.1-0.8-0.4-1c-0.5-0.1-0.8,0.2-0.9,0.7c-0.3,1.3-1.8,2.1-1.4,3.7
		c0.2,0.6-0.5,0.9-1,0.6c-0.7-0.4-1.9,0.2-2.3-1.1c0-0.1-0.5-0.1-0.7,0.1c1.4,2,0.5,4.1,0.6,6.3c-0.8-1.1-1.1-1.6-2.1,0
		c-1,1.5-1.9,2.7-1.7,4.5c0,0.4-0.2,0.8-0.6,0.8c-3,0.1-6,0.1-8.9,0.1c-0.9,0-0.9-0.5-0.9-1.2c0-1.3,0.1-2.4-1.6-3
		c-0.7-0.2-1.1-1.5-1.6-2.4c-0.3,0.3-0.5,0.7-0.7,0.8c-0.3,0.1-0.8,0.6-1.1,0c-0.2-0.4,0.1-0.7,0.5-1c1.3-0.7,0.6-1.7,0.4-2.7
		c-0.2-0.7-1.2-1.2-0.6-2.1c0.2-0.3-0.3-0.3-0.5-0.4c-2.1-0.5-2.4-0.8-2.7-3.2c-1.4,0.9-2.2,2-2.3,3.5c0,0.4,0,0.8-0.4,0.8
		c-1.2,0-2.6,0.3-3.6-0.1c-1.4-0.6-2.5-0.4-3.8,0c-1,0.3-2,0.8-2.5-0.9c-0.2-0.7-1.2-1.1-2.1-1c-0.6,0.1-1.2,0.2-1.8,0.4
		c-1.2,0.3-2.1,0-1.8-1.4c0.3-1.8-0.6-2.3-2.1-2.3c-0.7,0-0.9-0.2-0.7-0.9c0.2-0.7,0.2-1.5-0.4-1.9c-1.9-1.2-2-3.1-1.9-5
		c0.1-2.1-0.1-4.2-0.2-6.3c0-2.5,0.5-4.9,0.1-7.4c-0.1-0.7,0.1-1.8,1.3-2c0.6-0.1,1.1-0.5,1.2-1c0.2-0.8-0.6-0.5-1-0.6
		c-0.2-0.1-0.4-0.2-0.3-0.5c0-0.1,0.2-0.3,0.3-0.4c0.3-0.2,0.7,0.1,0.9,0c1.4-0.2,3.2,0.3,3.3-2.1c0-0.6,0.6-1.2,1.2-1.2
		c1.3-0.2,1.1-1,0.7-1.9c2.3,0.3,4.4,0,6.6-0.1c1.6-0.1,2.7-2.1,2-3.6c-0.6-1.2-0.6-1.1,0.7-1.2c0.8-0.1,1.7-0.4,1.6-1.5
		c-0.1-1.1,0.2-1.8,1.5-1.6c1,0.1,1.2-0.5,1.1-1.3c-0.1-1.1,0.2-1.4,1.4-1.2c1.1,0.2,2.4,0.2,3.2-1.2c0.5-1,1.7-1.4,2.4-2.4
		c0.5-0.6,2,0.4,2.5,1.6c-6.6,2.1-11.4,6.1-14.2,12.5c-0.3,0.7-0.7,0.8-1.4,0.9C9.7,22.2,4.4,27.3,2.9,35.5C1.9,41,4,47.7,10.3,52
		c2.8,2,6,2.9,9.4,2.9c1.6,0,2.8-1.2,2.8-2.6c0-1.4-1.1-2.5-2.7-2.4c-1,0-1.9-0.3-2.9-0.6c-5.5-1.2-11-7.8-8.1-15.7
		c1.6-4.3,5.7-7.1,10.3-7.5c3.1-0.3,3.3-0.1,4.3-3C27.2,11.9,40.9,9,49.1,15.8c2,1.6,1.9,1.6-0.2,2.8c-5.2,3-8.3,7.4-8.3,13.6
		c0,1.7,1.1,2.8,2.6,2.8c1.5,0,2.3-1,2.4-2.7c0.2-3.4,1.7-6.3,4.5-8.3c3.9-2.8,8.2-3.1,12.6-2.1c5.4,1.2,8.9,4.8,10.7,10
		c2.1,6,0.2,11.9-4.7,15.1c-3.1,2-6.5,2.6-10.1,2.9c-1.9,0.1-3,1.3-2.6,3.1c0.3,1.5,1.9,2.4,3.7,2.2c1.9-0.3,3.8-0.6,5.6-1
		c7.7-1.9,13-7.6,13.8-14.8c0.4-0.6,0.3-1.3,0.2-2c0-0.5,0-1.1,0-1.6c0.1-0.7,0.2-1.4-0.2-2C78.8,30.9,77.8,28.3,76.4,25.8z
		 M41.9,46.2c-1.7-0.5-3.5-0.5-5.2,0c-3,0.4-5.5,1.8-7.7,3.7c-1,0.9-1.3,1.9-0.5,3c0.7,1,1.9,0.9,3.2-0.1c4.8-4,10.4-4,15.2,0
		c1.2,1,2.4,1.1,3.2,0.2c0.8-0.9,0.6-2.1-0.6-3.2C47.3,47.9,44.9,46.6,41.9,46.2z M36.7,41.3c1.7,0,3.4,0,5.1,0
		c1,0.2,1.9,0.4,2.9,0.6c3.2,0.9,6,2.6,8.4,4.9c0.9,0.9,2,1.1,2.9,0.2c0.9-0.9,0.7-2-0.1-2.9c-0.1-0.2-0.3-0.3-0.5-0.5
		c-5.5-5-11.9-7-19.2-6.2c-5.2,0.6-9.7,2.8-13.5,6.5c-1,0.9-1.2,2-0.2,3c0.9,0.9,2,0.8,2.9-0.1C28.6,43.8,32.4,42,36.7,41.3z
		 M44.9,60.3c0-3.4-2.3-5.8-5.5-5.8c-3.3,0-6,2.6-6,5.8c0,2.9,2.8,5.6,5.9,5.7C42.5,66,44.9,63.6,44.9,60.3z"/>
	<path class="st3" d="M79.4,35.7c0,0.5,0,1.1,0,1.6c-0.3,0.6-0.3,1.3-0.2,2c-0.9,7.1-6.2,12.8-13.8,14.8c-1.8,0.5-3.7,0.8-5.6,1
		c-1.8,0.3-3.4-0.7-3.7-2.2c-0.4-1.8,0.7-3,2.6-3.1c3.6-0.3,7-0.9,10.1-2.9c4.9-3.2,6.8-9.1,4.7-15.1c-1.8-5.2-5.4-8.8-10.7-10
		c-4.3-0.9-8.7-0.7-12.6,2.1c-2.9,2.1-4.3,4.9-4.5,8.3c-0.1,1.7-1,2.7-2.4,2.7c-1.5,0-2.6-1.1-2.6-2.8c0-6.2,3.1-10.6,8.3-13.6
		c2.2-1.3,2.2-1.2,0.2-2.8c-8.2-6.8-21.9-4-25.7,7.3c-1,2.9-1.2,2.7-4.3,3c-4.6,0.4-8.7,3.2-10.3,7.5c-2.9,7.9,2.6,14.5,8.1,15.7
		c0.9,0.2,1.8,0.6,2.9,0.6c1.6-0.1,2.7,0.9,2.7,2.4c0,1.5-1.1,2.6-2.8,2.6c-3.4,0-6.6-1-9.4-2.9C4,47.7,1.9,41,2.9,35.5
		C4.4,27.3,9.7,22.2,17.6,21c0.6-0.1,1.1-0.2,1.4-0.9c2.7-6.4,7.6-10.4,14.2-12.5c0.2-0.1,0.4-0.1,0.6-0.2c0.7-0.1,1.3-0.2,2-0.3
		c2,0,3.9,0,5.9,0c2.9,0.3,5.6,1.5,8.2,2.7c0,0,0,0,0,0c1.9,1.4,3.7,2.9,5.3,4.5c0,0,0,0,0,0c0.1,0.1,0.2,0.2,0.3,0.4c0,0,0,0,0,0
		c0.5,1.3,1.5,1.7,2.9,1.7c1.5-0.1,3-0.2,4.5,0.1c2.9,0.6,5.5,1.9,8,3.4c0,0,0,0,0,0c1.8,1.5,3.4,3.2,4.9,5c0.2,0.3,0.4,0.6,0.6,0.9
		c1.4,2.5,2.4,5.1,2.8,8C79.1,34.4,79.1,35.1,79.4,35.7z"/>
	<path class="st2" d="M70.9,19.9c-2.5-1.5-5.1-2.8-8-3.4c-1.5-0.3-3-0.2-4.5-0.1c-1.4,0.1-2.4-0.3-2.9-1.7c1.9,0,3.8-0.1,5.7,0.6
		c0.9,0.3,1.8,0,2.7-0.3c2.2-0.7,4.1-0.2,6.1,0.8c0.7,0.4,1.1,0.6,0.9,1.6C70.6,18.1,70.9,19,70.9,19.9z"/>
	<path class="st2" d="M35.7,7.1c-0.7,0.1-1.3,0.2-2,0.3c0.8-2.3,0.8-2.2,3.1-1.4c0.7,0.2,1.5,0.1,2.3,0.2c1.1,0.1,2.3-0.3,3.3,0.5
		c0.4,0.3,0.8-0.1,1.2-0.3c0.8-0.3,1.5-0.4,2.3,0.1c1.3,1,2.4,0.8,3.3-0.6c0.9,1.2,0.6,2.6,0.6,3.9c-2.6-1.2-5.3-2.4-8.2-2.7
		C39.6,6.6,37.7,6.6,35.7,7.1z"/>
	<path class="st2" d="M55.1,14.3c-1.6-1.7-3.5-3.1-5.3-4.5c1.5-0.9,3.2,0.2,4.8-0.3c0.5-0.2,0.6,0.6,0.5,1
		C54.7,11.8,55.2,13,55.1,14.3z"/>
	<path class="st2" d="M75.8,24.9c-1.5-1.8-3.1-3.5-4.9-5c1.5-0.3,3,0.6,4.5,0.1c0.3-0.1,0.8,0.2,0.7,0.4c-1,1.4,0.6,2.9-0.2,4.3
		C75.9,24.8,75.9,24.9,75.8,24.9z"/>
	<path class="st2" d="M67.5,55.8c1-0.3,1.5-1.1,2.4-1c0.5,0.1,0.9,0.2,0.9,0.8c0,0.5-0.4,0.6-0.8,0.5C69.3,56.1,68.5,56.3,67.5,55.8
		z"/>
	<path class="st2" d="M47.4,6.1c-0.4,0-0.8-0.1-0.8-0.6c0-0.5,0.2-0.7,0.7-0.7c0.4,0,0.8,0.2,0.8,0.6C48.2,6,47.8,6.1,47.4,6.1z"/>
	<path class="st2" d="M34.3,4.5C34.8,4.1,35.3,4,36,4.4C35.3,4.9,34.8,4.8,34.3,4.5z"/>
	<path class="st2" d="M44.7,4.4c-0.5,0.5-1,0.5-1.7,0.2C43.6,3.8,44.2,4.2,44.7,4.4z"/>
	<path class="st2" d="M2.8,49.9c-0.4-0.6-0.4-1,0-1.6C3.2,48.9,3.2,49.3,2.8,49.9z"/>
	<path class="st2" d="M39.3,4.4c-0.6,0.5-1,0.4-1.7,0.1C38.3,4,38.7,4.1,39.3,4.4z"/>
	<path class="st2" d="M20.8,9.8c0,0.2-0.1,0.4-0.3,0.5c-0.3,0.1-0.5-0.1-0.5-0.4c0-0.2,0.2-0.4,0.4-0.4C20.6,9.5,20.8,9.6,20.8,9.8z
		"/>
	<path class="st2" d="M19.2,11.6c0,0.2-0.2,0.4-0.4,0.4c-0.3,0-0.5-0.2-0.4-0.5c0.1-0.3,0.2-0.3,0.5-0.3
		C19.1,11.1,19.1,11.3,19.2,11.6z"/>
	<path class="st2" d="M65.7,56.1c0.4,0.1,0.9-0.2,1.1,0.3c0,0-0.1,0.3-0.2,0.3C66,56.9,65.7,56.7,65.7,56.1
		C65.7,56.1,65.7,56.1,65.7,56.1z"/>
	<path class="st2" d="M49.7,4.5c0,0.3-0.3,0.3-0.5,0.3c-0.2,0-0.5,0-0.5-0.3c0-0.3,0.3-0.3,0.5-0.3C49.4,4.2,49.6,4.2,49.7,4.5z"/>
	<path class="st2" d="M29.6,4.6c-0.1,0-0.2,0.1-0.3,0.1c-0.2,0-0.4-0.2-0.3-0.4c0.1-0.1,0.3-0.1,0.4-0.1C29.5,4.2,29.7,4.3,29.6,4.6
		z"/>
	<path class="st2" d="M25.6,56c0,0.1,0.1,0.2,0.1,0.3c0,0.2-0.2,0.4-0.4,0.3c-0.1,0-0.1-0.3-0.1-0.4C25.3,56.1,25.4,55.9,25.6,56z"
		/>
	<path class="st2" d="M49.8,61.5c-0.1,0.2-0.1,0.4-0.2,0.4c-0.2,0.1-0.4-0.1-0.4-0.3c0-0.1,0.1-0.3,0.2-0.3
		C49.6,61.2,49.7,61.4,49.8,61.5z"/>
	<path class="st2" d="M2.4,26.5c0.1-0.1,0.3-0.2,0.4-0.2c0.3,0,0.3,0.2,0.3,0.4c0,0.1-0.2,0.2-0.3,0.2C2.6,26.9,2.5,26.8,2.4,26.5z"
		/>
	<path class="st2" d="M80.3,46c0-0.1,0.1-0.2,0.1-0.3c0.1,0,0.2,0.1,0.3,0.1c0,0.1-0.1,0.2-0.1,0.3C80.5,46.2,80.4,46.1,80.3,46z"/>
	<path class="st2" d="M55.4,14.7c-0.1-0.1-0.2-0.2-0.3-0.4C55.2,14.4,55.3,14.6,55.4,14.7z"/>
	<path class="st4" d="M36.7,41.3c-4.3,0.7-8.2,2.4-11.3,5.5c-0.9,0.9-2,1.1-2.9,0.1c-1-1-0.7-2.1,0.2-3c3.8-3.7,8.3-5.9,13.5-6.5
		c7.3-0.8,13.8,1.2,19.2,6.2c0.2,0.1,0.3,0.3,0.5,0.5c0.8,0.9,1,2,0.1,2.9c-0.9,0.9-2,0.7-2.9-0.2c-2.4-2.3-5.2-4-8.4-4.9
		c-0.9-0.3-1.9-0.4-2.9-0.6C40.2,40.8,38.5,40.8,36.7,41.3z"/>
	<path class="st4" d="M44.9,60.3c0,3.3-2.4,5.7-5.7,5.7c-3.1,0-5.9-2.7-5.9-5.7c0-3.2,2.7-5.8,6-5.8C42.7,54.5,44.9,56.9,44.9,60.3z
		"/>
	<path class="st4" d="M41.9,46.2c2.9,0.4,5.4,1.7,7.6,3.7c1.2,1,1.3,2.3,0.6,3.2c-0.8,0.9-2,0.8-3.2-0.2c-4.8-4-10.4-4-15.2,0
		c-1.2,1-2.4,1.1-3.2,0.1c-0.9-1.1-0.5-2.2,0.5-3c2.2-1.9,4.7-3.4,7.7-3.7C38.4,46.2,40.2,46.2,41.9,46.2z"/>
	<path class="st5" d="M36.7,41.3c1.7-0.5,3.4-0.5,5.1,0C40.2,41.3,38.5,41.3,36.7,41.3z"/>
	<path class="st5" d="M41.9,46.2c-1.7,0-3.5,0-5.2,0C38.4,45.7,40.2,45.7,41.9,46.2z"/>
	<path class="st5" d="M79.2,39.3c-0.1-0.7-0.1-1.3,0.2-2C79.5,38.1,79.6,38.7,79.2,39.3z"/>
	<path class="st5" d="M79.4,35.7c-0.4-0.6-0.3-1.3-0.2-2C79.6,34.4,79.5,35.1,79.4,35.7z"/>
	<path class="st5" d="M35.7,7.1c2-0.5,3.9-0.5,5.9,0C39.6,7.1,37.7,7.1,35.7,7.1z"/>
</g>
<g id="Layer_2" class="st0">
	<path class="st6" d="M56.3,18.1c-1.2-0.5-2.5-0.2-3.8-0.2c-5,0-10,0-15,0c-0.2,0-0.4,0-0.6,0c-1.2,0.2-2-0.4-2.7-1.3
		c-1-1.1-1.9-2.4-3.2-3.3c-0.9-0.4-1.9-0.3-2.8-0.1c-0.2,0-0.4,0-0.6,0c-2.4-0.3-4.8-0.1-7.3-0.1c-1.2,0-2.5-0.3-3.7,0.2
		c-2.1,0.6-3.4,1.9-3.4,3.8c0,12,0,24,0,35.9c0,0.5,0.2,0.9,0.4,1.4c1,1.7,2.6,1.9,4.3,1.9c10.1,0,20.1,0,30.2,0c1,0,1.6,0.2,2.3,1
		c2,2.2,4.5,3.8,6.8,5.5c0.6,0.4,1,0.4,1.6,0c1.5-0.9,2.9-1.8,4.2-2.8c4.8-3.6,7.5-8.4,8.4-14.3c0.5-3.3,0.3-6.7,0.1-10
		c0-0.1-0.1-0.1-0.2-0.2c-1.9-0.4-3.7-0.9-5.6-1.3c-0.5-0.1-1-0.2-0.7-0.9c0.5-1.4,0.9-2.8,1.3-4.3c0.7-3,0.2-4.9-2.3-5.4
		c-1.6-0.5-3.3,0-4.9-0.3c0-0.5,0-1,0-1.6C59,19.8,58.3,18.8,56.3,18.1z"/>
	<path class="st7" d="M64,23.7c2.6,0.5,3.1,2.4,2.3,5.4c-0.3,1.4-0.8,2.9-1.3,4.3c-0.3,0.8,0.2,0.8,0.7,0.9c1.9,0.4,3.8,0.8,5.6,1.3
		c0,3.4,0.1,6.8,0.1,10.3c-0.9,5.9-3.6,10.7-8.4,14.3c-1.4,1-2.7,2-4.2,2.8c-0.7,0.4-1.1,0.4-1.6,0c-2.4-1.7-4.8-3.3-6.8-5.5
		c-0.7-0.7-1.3-1-2.3-1c-10.1,0-20.1,0-30.2,0c-1.7,0-3.3-0.2-4.3-1.9c-0.3-0.5-0.4-0.9-0.4-1.4c0-12,0-24,0-35.9
		c0-1.9,1.3-3.2,3.4-3.8c3.6,0,7.3,0.2,10.9-0.1c0.2,0,0.4,0,0.6,0c0.9,0.3,1.9,0.1,2.8,0.1c1.3,0.8,2.2,2.1,3.2,3.3
		c0.8,0.9,1.5,1.4,2.7,1.3c0.2,0.2,0.4,0.3,0.6,0c5,0,10,0,15,0c1.2,0.5,2.5,0.2,3.8,0.2c2,0.7,2.8,1.7,2.8,3.8c0,0.5,0,1,0,1.6
		C60.7,24.1,62.4,23.6,64,23.7z M57.2,21.4c-0.4-1.5-1.6-1.7-2.9-1.8c-5.9,0-11.9-0.1-17.8,0c-1.4,0-2.4-0.3-3.3-1.4
		c-0.8-1.1-1.9-2-2.8-3c-0.4-0.4-1-0.2-1.5-0.2c-2.9,0-5.8,0-8.6,0c-1.1,0-2.2-0.2-3.3,0.2c-1.5,0.3-1.8,1.3-1.8,2.6
		c0,5.6,0,11.3,0,16.9c0,4.2,0,8.5,0,12.7c0.1-0.1,0.2-0.1,0.2-0.1c1.7-6.4,3.4-12.9,5.1-19.3c0.6-2.3,2.1-4,4.6-4.4
		c10.2,0,20.4,0,30.6,0.1C57.7,23.7,57.8,23.6,57.2,21.4z M69.8,43.3c0.2-1.9,0.2-3.8,0-5.7c-0.1-0.7-0.7-0.7-1.3-0.8
		c-3.2-0.6-6.3-1.4-8.9-3.5c-0.9-0.7-1.7-0.6-2.6,0c-2.9,1.9-6,3.1-9.4,3.5c-1.4,0-0.9,0.8-0.7,1.5c0,0.8,0,1.7,0,2.5
		c-0.3,1.4-0.4,2.7,0,4.1c-0.1,2.2,0.7,4.1,1.4,6.1c-0.2,1.1,0,2,1.3,2.2c2.1,2.8,4.6,5.2,7.5,7.1c1,0.7,1.7,0.6,2.6,0
		c2.1-1.4,4.1-2.9,5.7-4.8c2.4-2.8,4.2-5.9,4.4-9.7c0.3-0.4,0.3-0.8,0.1-1.3C69.7,44.1,69.7,43.7,69.8,43.3z M44.5,25.5
		C44.5,25.5,44.5,25.5,44.5,25.5c-5.9,0-11.8,0-17.7,0c-2.8,0-3.7,0.8-4.5,3.5c-2.1,7.7-4.1,15.3-6.2,23c-0.5,1.7,0,2.5,1.8,2.5
		c9.5,0,19.1,0,28.6,0c1.4,0,1.5-0.4,0.8-1.5c-1.8-2.9-2.4-6.1-2.3-9.5c0.1-2.2,0.1-4.5,0-6.7c-0.1-1.3,0.4-1.8,1.6-1.9
		c4-0.3,7.5-1.9,10.7-4.2c0.8-0.6,1.3-0.5,2.1,0c0.9,0.7,1.9,1.3,2.9,1.8c0.7,0.4,1.2,0.3,1.4-0.6c0.3-1.4,0.7-2.7,1-4.1
		c0.5-1.9,0.2-2.5-1.8-2.5C56.7,25.5,50.6,25.5,44.5,25.5z"/>
	<path class="st8" d="M27.6,13.2c-3.6,0.3-7.3,0.1-10.9,0.1c1.2-0.5,2.4-0.2,3.7-0.2C22.8,13.1,25.2,12.9,27.6,13.2z"/>
	<path class="st8" d="M71.6,45.8c0-3.4-0.1-6.8-0.1-10.3c0.1,0.1,0.2,0.1,0.2,0.2C71.8,39.1,72,42.5,71.6,45.8z"/>
	<path class="st8" d="M64,23.7c-1.6-0.1-3.3,0.4-4.9-0.3C60.7,23.6,62.4,23.1,64,23.7z"/>
	<path class="st9" d="M56.3,18.1c-1.3-0.1-2.5,0.2-3.8-0.2C53.8,17.9,55,17.6,56.3,18.1z"/>
	<path class="st8" d="M31,13.3c-1,0-1.9,0.2-2.8-0.1C29.2,13.1,30.1,12.9,31,13.3z"/>
	<path class="st9" d="M37.5,17.9c-0.2,0.2-0.4,0.2-0.6,0C37.1,17.9,37.3,17.9,37.5,17.9z"/>
	<path class="st10" d="M44.5,25.5c6.1,0,12.2,0,18.3,0c2,0,2.4,0.6,1.8,2.5c-0.4,1.3-0.7,2.7-1,4.1c-0.2,0.9-0.7,1.1-1.4,0.6
		c-1-0.6-1.9-1.2-2.9-1.8c-0.7-0.5-1.3-0.6-2.1,0c-3.2,2.3-6.7,3.9-10.7,4.2c-1.2,0.1-1.7,0.7-1.6,1.9c0.1,2.2,0.1,4.5,0,6.7
		c-0.1,3.4,0.5,6.6,2.3,9.5c0.7,1.1,0.6,1.5-0.8,1.5c-9.5,0-19.1,0-28.6,0c-1.7,0-2.2-0.8-1.8-2.5c2.1-7.7,4.1-15.3,6.2-23
		c0.7-2.7,1.7-3.5,4.5-3.5C32.6,25.5,38.5,25.5,44.5,25.5C44.5,25.5,44.5,25.5,44.5,25.5z"/>
	<path class="st6" d="M46.8,40.8c0-0.8,0-1.7,0-2.5c0.1-0.5-0.1-1.3,0.7-1.5c3.4-0.4,6.6-1.6,9.4-3.5c1-0.6,1.7-0.7,2.6,0
		c2.6,2,5.7,2.8,8.9,3.5c0.6,0.1,1.1,0.1,1.3,0.8c-0.3,1.9-0.3,3.8,0,5.7c0,0.4,0,0.8,0,1.2c-0.3,0.4-0.2,0.8-0.1,1.3
		c-0.2,3.8-1.9,6.9-4.4,9.7c-1.6,1.9-3.6,3.4-5.7,4.8c-0.9,0.6-1.6,0.7-2.6,0c-2.9-1.9-5.4-4.3-7.5-7.1c-0.4-0.7-0.8-1.5-1.3-2.2
		c-0.6-2-1.5-3.9-1.4-6.1C46.8,43.5,46.8,42.2,46.8,40.8z M66.8,42.2c0.2-1.2-0.3-2.1-1.3-2.5c-1.3-0.6-2.5-0.5-3.5,0.6
		c-1.4,1.6-2.8,3.2-4.2,4.8c-1.5,1.7-1.5,1.7-2.9,0.1c-0.1-0.2-0.3-0.3-0.4-0.4c-0.9-0.7-3-1-3.9,0c-1.3,1.3-1.5,2.3-0.4,3.8
		c1.2,1.5,2.5,2.9,3.8,4.3c1.4,1.6,3.4,1.6,4.8,0c2.5-2.8,4.9-5.6,7.4-8.4C66.6,43.8,67,43.1,66.8,42.2z"/>
	<path class="st6" d="M30.4,15.3c1,1,2,1.9,2.8,3c0.9,1.1,1.9,1.4,3.3,1.4c5.9-0.1,11.9,0,17.8,0c1.3,0,2.5,0.2,2.9,1.8
		c-0.1,2-0.1,2-2.2,2c-9.4,0-18.8,0-28.3,0c-0.6,0-1.1-0.1-1.7,0.2c-2.6,0.4-4,2.1-4.6,4.4c-1.8,6.4-3.4,12.9-5.1,19.3
		c0,0-0.1,0.1-0.2,0.1c0-4.3,0-8.5,0-12.7c0-5.6,0-11.3,0-16.9c0-1.3,0.4-2.3,1.8-2.6C21.4,15.3,25.9,15.3,30.4,15.3z"/>
	<path class="st8" d="M25.1,23.7c0.5-0.3,1.1-0.2,1.7-0.2c9.4,0,18.8,0,28.3,0c2.1,0,2.1,0,2.2-2c0.6,2.1,0.5,2.3-1.5,2.3
		C45.5,23.7,35.3,23.7,25.1,23.7z"/>
	<path class="st8" d="M30.4,15.3c-4.5,0-9,0-13.4,0c1.1-0.5,2.2-0.2,3.3-0.2c2.9,0,5.8,0,8.6,0C29.4,15,30,14.8,30.4,15.3z"/>
	<path class="st8" d="M69.8,43.3c-0.3-1.9-0.3-3.8,0-5.7C70,39.5,70,41.4,69.8,43.3z"/>
	<path class="st9" d="M48.2,51c0.4,0.7,0.8,1.5,1.3,2.2C48.2,53,48,52.1,48.2,51z"/>
	<path class="st11" d="M46.8,40.8c0,1.4,0,2.7,0,4.1C46.4,43.5,46.5,42.2,46.8,40.8z"/>
	<path class="st11" d="M47.5,36.8c-0.8,0.3-0.6,1-0.7,1.5C46.6,37.6,46.1,36.8,47.5,36.8z"/>
	<path class="st8" d="M69.6,45.8c-0.1-0.4-0.1-0.9,0.1-1.3C69.9,45,69.9,45.4,69.6,45.8z"/>
	<path class="st7" d="M66.8,42.2c0.2,0.9-0.2,1.6-0.8,2.2c-2.5,2.8-4.9,5.6-7.4,8.4c-1.4,1.6-3.4,1.6-4.8,0
		c-1.3-1.4-2.6-2.8-3.8-4.3c-1.1-1.4-0.9-2.5,0.4-3.8c1-1,3.1-0.7,3.9,0c0.2,0.1,0.3,0.3,0.4,0.4c1.5,1.5,1.5,1.6,2.9-0.1
		c1.4-1.6,2.8-3.2,4.2-4.8c1-1.1,2.2-1.2,3.5-0.6C66.5,40.2,67,41,66.8,42.2z M65.2,42.4c-0.1-0.5-0.2-0.9-0.7-1.1
		c-0.6-0.3-1,0.1-1.3,0.5c-1.6,1.8-3.2,3.6-4.8,5.5c-2.3,2.6-2.3,2.8-4.6-0.4c-0.5-0.7-1-1.4-1.8-0.8c-0.8,0.6-0.3,1.4,0.2,2
		c1,1.2,2.1,2.3,3.1,3.5c0.8,1,1.5,0.7,2.3-0.1c1.9-2.1,3.6-4.3,5.6-6.3C63.9,44.3,64.7,43.4,65.2,42.4z"/>
	<path class="st10" d="M65.2,42.4c-0.4,1.1-1.3,1.9-2.1,2.7c-2,2-3.7,4.3-5.6,6.3c-0.8,0.9-1.4,1.1-2.3,0.1c-1-1.2-2.1-2.3-3.1-3.5
		c-0.6-0.6-1-1.4-0.2-2c0.8-0.6,1.4,0.1,1.8,0.8c2.3,3.2,2.3,3,4.6,0.4c1.6-1.8,3.2-3.6,4.8-5.5c0.3-0.4,0.7-0.8,1.3-0.5
		C64.9,41.5,65,41.9,65.2,42.4z"/>
</g>
<g id="Layer_3" class="st0">
	<path class="st6" d="M32.5,40.1c0,1.8,0,3.5,0,5.3c-1.6,1.3-3,2.8-4.4,4.3c-1,1-1.4,2.2-1,3.6c0.4,1.6,1.7,1.5,3,1.5
		c13.2,0,26.4,0,39.6,0c1.7,0,2.4-0.7,2.4-2.4c0-1.2-0.5-2.1-1.3-2.9c-1.1-1.1-2.3-2.2-3.5-3.3c-0.5-0.4-0.7-0.9-0.7-1.5
		c0.1-3.4,0.1-6.9,0.1-10.3c0.1-0.3,0.1-0.5,0.1-0.8c0-3,0-6.1,0-9.1c0-0.3,0.1-0.6-0.2-0.9c-0.2-1-0.7-1.6-1.7-1.9
		c-0.2-0.1-0.5-0.3-0.7-0.2c-0.2,0-0.3,0-0.5,0c-0.8-0.1-1.6-0.1-2.4,0c-0.2,0-0.3,0-0.5,0c-0.3-0.1-0.6-0.1-1,0
		c-0.2,0-0.5,0-0.5-0.3c0-0.1,0-0.1,0-0.2c0-2,0-4,0-6c0-0.3,0.1-0.5-0.2-0.7c-1.6-1-3.1-2.1-3.9-3.9c-0.2-0.4-0.6-0.4-1-0.4
		c-3.1,0-6.2,0-9.3,0c-0.4,0-0.8,0-0.9,0.4c-0.8,1.8-2.4,2.9-4,4c-0.3,0.4-0.2,0.8-0.2,1.2c0,2,0,4,0,5.9c-0.2,0-0.3,0-0.5,0.1
		c-0.2,0-0.3,0-0.5,0c-0.2,0-0.3,0-0.5,0c-1.3,0-2.6-0.3-3.8,0.2c-0.8,0.3-1.4,0.9-1.7,1.7c-0.1,0.2-0.2,0.4-0.2,0.6
		C32.5,29.3,32.5,34.7,32.5,40.1z"/>
	<path class="st7" d="M38.2,21.5c0.2,0,0.3,0,0.5,0c0.2,0.2,0.3,0.2,0.5,0c0.2,0,0.3,0,0.5-0.1c0.4-0.3,0.2-0.7,0.2-1.1
		c0-2,0-4,0-6.1c1.6-1.1,3.2-2.2,4-4c0.2-0.4,0.6-0.4,0.9-0.4c3.1,0,6.2,0,9.3,0c0.4,0,0.8,0,1,0.4c0.8,1.8,2.3,2.9,3.9,3.9
		c0,0.3,0,0.5,0.2,0.7c0,2,0,4,0,6c0,0-0.1,0-0.1,0.1c0,0.1,0,0.1,0.1,0.1c0.1,0.3,0.3,0.3,0.5,0.3c0.3,0.2,0.6,0.2,1,0
		c0.2,0,0.3,0,0.5,0c0.8,0.3,1.6,0.3,2.4,0c0.2,0,0.3,0,0.5,0c0.2,0.2,0.5,0.2,0.7,0.2c1,0.3,1.5,0.9,1.7,1.9c0,3.6,0,7.2,0,10.8
		c0,3.4,0,6.9-0.1,10.3c0,0.7,0.2,1.1,0.7,1.5c1.2,1.1,2.4,2.2,3.5,3.3c0.8,0.8,1.4,1.7,1.3,2.9c0,1.8-0.7,2.4-2.4,2.4
		c-13.2,0-26.4,0-39.6,0c-1.3,0-2.5,0.1-3-1.5c-0.4-1.4,0-2.6,1-3.6c1.5-1.4,2.9-2.9,4.4-4.3c0.4-1.8,0.2-3.5,0.2-5.3
		c0-5.6,0-11.2,0-16.7c0.3-0.8,0.8-1.4,1.7-1.7C35.6,21.5,36.9,21.8,38.2,21.5z M37.2,26c-0.2,0-0.2,0.1-0.1,0.2c0,0.2,0,0.3,0,0.5
		c-0.1,1.9-0.1,3.8,0,5.8c0,3,0,6,0,9c0,0.3-0.1,0.7,0.2,0.9c0.3,0.3,0.7,0.2,1,0.2c7.3,0,14.6,0,21.9,0c0.4,0,0.7,0.1,1-0.2
		c0.2,0,0.5,0,0.7-0.1c0.6-1.3,0.2-2.7,0.2-4.1c0-1.9,0-3.8-0.1-5.8c0-0.6,0-1.3,0-1.9c0.1-0.7,0.1-1.3,0-2c0-0.6,0-1.1,0-1.7
		c0-0.3,0-0.7,0-1c-1.3-0.4-2.5-0.3-3.8,0c-1.7,3.7-4.4,6.4-7.8,8.5c-0.6,0.4-1.1,0.6-1.9,0.1c-3.5-2.2-6.3-4.9-8.1-8.6
		C39.5,25.6,38.3,25.6,37.2,26L37.2,26z M34.1,24.8c-0.1,0.1-0.1,0.3-0.1,0.4c0,5.2,0,10.4,0,15.5c0,1.2,0,2.4,0,3.6
		c0,0.7,0.1,1,0.9,1c9.8,0,19.6,0,29.4,0c0.8,0,1-0.4,0.9-1c-0.3-1.6-0.1-3.2,0-4.8c0.1-5.2,0.1-10.3,0.1-15.5
		c0-0.7-0.4-1.2-1.1-1.2c-1.5-0.1-3,0-4.4,0c-0.7,0-0.7,0.6-0.7,1c-0.1,0.6,0.4,0.6,0.8,0.6c1,0,1.9,0,2.9,0c0.7,0,1.1,0.3,1.1,1.1
		c0,0.4,0,0.7,0,1.1c-0.1,0.1-0.1,0.3-0.1,0.4c0,5,0,9.9,0,14.9c0,0.4,0,0.8,0,1.2c0,0.1,0,0.1,0,0.2c-0.4,0.4-0.9,0.3-1.4,0.3
		c-1.8,0-3.6,0-5.4,0c-6.6,0-13.1,0-19.7,0c-0.8,0-1.4,0-1.4-1.1c0-5.7,0.1-11.3,0.1-17c0-0.9,0.4-1.1,1.2-1.1c0.8,0,1.6,0,2.4,0
		c0.4,0,1,0.2,0.9-0.6c0-0.6-0.1-1.1-1-1.1c-1.2,0-2.5,0-3.7,0C34.2,22.9,33.8,23.6,34.1,24.8z M45.9,11.3c-0.3-0.2-0.6-0.3-0.9,0
		C44,12.8,42.8,14,41.3,15c-0.4,2.4-0.3,4.8,0,7.2c0.1,0.9,0.2,1.8,0.5,2.7c1.4,3.7,4.1,6.2,7.3,8.3c0.3,0.2,0.5,0.1,0.7,0
		c3.3-2.1,6.1-4.6,7.4-8.5c0.9-3,0.6-6,0.7-9.1c0-0.4-0.2-0.6-0.5-0.8c-1.4-0.9-2.5-2.1-3.4-3.5c-0.1-0.2-0.3-0.2-0.4,0
		C51,11.3,48.4,11.3,45.9,11.3z M49.5,53.3c6.5,0,13,0,19.5,0c0.4,0,1.1,0.3,1.3-0.3c0.2-0.7,0.4-1.6-0.3-2.2
		c-1.2-1.1-2.3-2.2-3.4-3.4c-0.5-0.5-0.9-0.6-1.6-0.6c-9.5,0-18.9,0.1-28.4,0c-2.3,0-4.1,0.3-5.6,2.1c-0.6,0.8-1.5,1.4-2.2,2.2
		c-0.5,0.5-0.6,1.2-0.3,1.8c0.2,0.6,0.9,0.4,1.4,0.4C36.4,53.3,42.9,53.3,49.5,53.3z"/>
	<path class="st8" d="M32.7,23.3c0,5.6,0,11.2,0,16.7c0,0-0.1,0-0.2,0c0-5.4,0-10.8,0-16.2C32.5,23.7,32.6,23.5,32.7,23.3z"/>
	<path class="st8" d="M66.6,34.4c0-3.6,0-7.2,0-10.8c0.2,0.3,0.2,0.6,0.2,0.9c0,3,0,6.1,0,9.1C66.7,33.8,66.6,34.1,66.6,34.4z"/>
	<path class="st11" d="M39.9,14.2c0,2,0,4,0,6.1c0,0.4,0.2,0.8-0.2,1.1c0-2,0-4,0-5.9C39.7,15,39.5,14.6,39.9,14.2z"/>
	<path class="st11" d="M32.5,40.1c0.1,0,0.1,0,0.2,0c0,1.8,0.2,3.6-0.2,5.3C32.5,43.6,32.5,41.9,32.5,40.1z"/>
	<path class="st11" d="M38.2,21.5c-1.3,0.4-2.6,0.1-3.8,0.2C35.6,21.2,36.9,21.4,38.2,21.5z"/>
	<path class="st11" d="M63.6,21.5c-0.8,0.3-1.6,0.3-2.4,0C62,21.3,62.8,21.4,63.6,21.5z"/>
	<path class="st11" d="M60.8,21.5c-0.3,0.2-0.6,0.2-1,0C60.1,21.4,60.4,21.4,60.8,21.5z"/>
	<path class="st11" d="M64.9,21.6c-0.3,0.1-0.5,0.1-0.7-0.2C64.4,21.4,64.6,21.5,64.9,21.6z"/>
	<path class="st9" d="M59.3,14.9c-0.2-0.2-0.2-0.5-0.2-0.7C59.4,14.4,59.3,14.6,59.3,14.9z"/>
	<path class="st11" d="M39.2,21.5c-0.2,0.2-0.3,0.2-0.5,0C38.8,21.5,39,21.5,39.2,21.5z"/>
	<path class="st9" d="M59.3,21.1c0,0-0.1-0.1-0.1-0.1c0,0,0,0,0.1-0.1C59.3,21,59.3,21.1,59.3,21.1z"/>
	<path class="st6" d="M37.2,42.3c-0.4-0.2-0.2-0.6-0.2-0.9c0-3,0-6,0-9c0.3-1.9,0.2-3.8,0-5.8c0-0.2,0-0.3,0-0.5
		c0-0.1,0.1-0.2,0.1-0.2c0,0,0-0.1,0-0.1c1.1,0,2.2,0,3.4,0c1.8,3.7,4.6,6.5,8.1,8.6c0.7,0.4,1.2,0.2,1.9-0.1
		c3.4-2.1,6.1-4.8,7.8-8.5c1.2,0,2.4,0,3.6,0.1c0.1,0.3-0.1,0.7,0.2,1c0,0.6,0,1.1,0,1.7c-0.2,0.6-0.2,1.3,0,2c0,0.6,0,1.3,0,1.9
		c-0.3,1.9-0.2,3.9-0.1,5.8c0,1.3,0,2.7-0.1,4c-0.2,0-0.5,0-0.7,0.1c-4.2,0-8.4,0-12.5,0C44.9,42.3,41.1,42.3,37.2,42.3z"/>
	<path class="st6" d="M41.3,15c1.5-0.9,2.7-2.1,3.6-3.7c0.3,0,0.6,0,0.9,0c2.6,0,5.1,0,7.7,0c0.1,0,0.3,0,0.4,0
		c0.9,1.3,2,2.6,3.4,3.5c0.3,0.2,0.5,0.4,0.5,0.8c-0.1,3,0.2,6.1-0.7,9.1c-1.2,3.9-4.1,6.4-7.4,8.5c-0.2,0.1-0.4,0.2-0.7,0
		c-3.2-2.1-5.9-4.6-7.3-8.3c-0.3-0.9-0.5-1.7-0.5-2.7C41.3,19.8,41.3,17.4,41.3,15z M42.7,21.6c-0.1,0.6,0.2,1,0.5,1.4
		c1,1.2,2.1,2.3,3.1,3.5c1.1,1.2,2.7,0.7,3.5-0.2c1.9-2.2,3.9-4.4,5.8-6.7c0.9-1.1,0.8-2.5-0.1-3.3c-1-0.8-2.3-0.7-3.3,0.4
		c-0.9,1-1.8,2.1-2.8,3.1c-0.4,0.5-0.8,1.3-1.4,1.4c-0.6,0.1-0.9-0.8-1.4-1.2c-0.1-0.1-0.2-0.2-0.4-0.3c-0.7-0.4-1.5-0.5-2.3-0.1
		C43.3,20.1,42.8,20.7,42.7,21.6z"/>
	<path class="st10" d="M49.5,53.3c-6.6,0-13.1,0-19.7,0c-0.5,0-1.1,0.2-1.4-0.4c-0.2-0.6-0.1-1.3,0.3-1.8c0.7-0.8,1.5-1.4,2.2-2.2
		c1.5-1.8,3.3-2.2,5.6-2.1c9.5,0.1,18.9,0.1,28.4,0c0.7,0,1.1,0.2,1.6,0.6c1.1,1.1,2.3,2.3,3.4,3.4c0.7,0.7,0.5,1.5,0.3,2.2
		c-0.1,0.6-0.8,0.3-1.3,0.3C62.5,53.3,56,53.3,49.5,53.3z M32,51.9c0.4,0.4,0.8,0.2,1.3,0.2c10.9,0,21.7,0,32.6,0
		c0.4,0,0.8,0.1,1.1-0.2c0.4-0.2,0.6-0.5,0.5-1c-0.1-0.4-0.5-0.5-0.9-0.5c-0.2,0-0.4,0-0.6,0c-11,0-22,0-32.9,0c-0.2,0-0.4,0-0.6,0
		c-0.4,0-0.7,0-0.9,0.5C31.4,51.4,31.6,51.7,32,51.9z"/>
	<path class="st10" d="M63.4,43.2c0-0.4,0-0.8,0-1.2c0.1-0.2,0.2-0.4,0.2-0.6c0-4.9,0-9.8,0-14.8c0-0.4,0-0.7,0-1.1
		c0.1-0.8-0.3-1.1-1.1-1.1c-1,0-1.9,0-2.9,0c-0.4,0-0.9,0-0.8-0.6c0.1-0.4,0.1-1,0.7-1c1.5,0,3-0.1,4.4,0c0.6,0,1.1,0.5,1.1,1.2
		c0,5.2,0.1,10.3-0.1,15.5c0,1.6-0.2,3.2,0,4.8c0.1,0.7,0,1-0.9,1c-9.8,0-19.6,0-29.4,0c-0.8,0-0.9-0.3-0.9-1c0-1.2,0-2.4,0-3.6
		c0-0.1,0.1-0.3,0.1-0.4c0-5.2,0-10.4,0-15.5c-0.3-1.2,0.2-1.9,1.3-1.9c1.2,0,2.5,0,3.7,0c0.8,0,0.9,0.5,1,1.1
		c0.1,0.7-0.5,0.6-0.9,0.6c-0.8,0-1.6,0-2.4,0c-0.8,0-1.2,0.3-1.2,1.1c0,5.7,0,11.3-0.1,17c0,1.1,0.7,1.1,1.4,1.1
		c6.6,0,13.1,0,19.7,0c1.8,0,3.6,0,5.4,0c0.5,0,1,0.1,1.4-0.3c0,0,0.1,0,0.1,0C63.5,43.3,63.4,43.3,63.4,43.2z"/>
	<path class="st9" d="M37.2,42.3c3.8,0,7.6-0.1,11.5-0.1c4.2,0,8.4,0,12.5,0c-0.3,0.3-0.7,0.2-1,0.2c-7.3,0-14.6,0-21.9,0
		C37.9,42.5,37.6,42.6,37.2,42.3z"/>
	<path class="st11" d="M34.1,24.8c0,5.2,0,10.4,0,15.5c0,0.1-0.1,0.3-0.1,0.4c0-5.2,0-10.4,0-15.5C33.9,25.1,34,24.9,34.1,24.8z"/>
	<path class="st11" d="M63.6,26.7c0,4.9,0,9.8,0,14.8c0,0.2-0.1,0.4-0.2,0.6c0-5,0-9.9,0-14.9C63.4,27,63.5,26.8,63.6,26.7z"/>
	<path class="st8" d="M41.3,15c0,2.4,0,4.8,0,7.2C41,19.8,40.9,17.4,41.3,15z"/>
	<path class="st8" d="M62,38.2c0-1.9-0.2-3.9,0.1-5.8c0,1.9,0,3.8,0.1,5.8C62.1,38.2,62.1,38.2,62,38.2z"/>
	<path class="st8" d="M37.1,26.7c0.2,1.9,0.2,3.8,0,5.8C37,30.5,36.9,28.6,37.1,26.7z"/>
	<path class="st11" d="M62,38.2c0.1,0,0.1,0,0.2-0.1c-0.1,1.4,0.3,2.7-0.2,4.1C62,40.9,62,39.6,62,38.2z"/>
	<path class="st9" d="M62,26c-1.2,0-2.4,0-3.6-0.1c1.3-0.3,2.6-0.4,3.8,0C62.1,25.9,62,25.9,62,26z"/>
	<path class="st9" d="M40.6,25.9c-1.1,0-2.2,0-3.4,0C38.3,25.6,39.5,25.6,40.6,25.9z"/>
	<path class="st8" d="M62.1,30.5c-0.2-0.7-0.2-1.3,0-2C62.2,29.2,62.2,29.9,62.1,30.5z"/>
	<path class="st9" d="M45.9,11.3c-0.3,0-0.6,0-0.9,0C45.2,11,45.5,11,45.9,11.3z"/>
	<path class="st8" d="M62,26c0.1,0,0.1,0,0.2,0c0,0.3,0,0.6,0,1C61.9,26.6,62,26.3,62,26z"/>
	<path class="st9" d="M54,11.3c-0.1,0-0.3,0-0.4,0C53.7,11.1,53.9,11.1,54,11.3z"/>
	<path class="st8" d="M37.2,26c0,0.1-0.1,0.2-0.1,0.2C37,26.1,37.1,26,37.2,26z"/>
	<path class="st11" d="M63.4,43.2c0,0,0,0.1,0,0.1c0,0-0.1,0-0.1,0C63.4,43.3,63.4,43.3,63.4,43.2z"/>
	<path class="st7" d="M42.7,21.6c0-0.9,0.5-1.5,1.2-1.9c0.8-0.4,1.5-0.3,2.3,0.1c0.1,0.1,0.2,0.2,0.4,0.3c0.5,0.4,0.8,1.4,1.4,1.2
		c0.5-0.1,0.9-0.9,1.4-1.4c0.9-1,1.8-2.1,2.8-3.1c1-1.1,2.3-1.2,3.3-0.4c0.9,0.8,1,2.2,0.1,3.3c-1.9,2.2-3.9,4.5-5.8,6.7
		c-0.8,0.9-2.4,1.4-3.5,0.2c-1-1.2-2.1-2.3-3.1-3.5C42.9,22.6,42.7,22.2,42.7,21.6z M54.8,18.1c0-0.3-0.1-0.6-0.4-0.7
		c-0.5-0.2-0.8,0-1.2,0.4c-1.5,1.7-3,3.3-4.4,5c-0.6,0.7-1,0.8-1.6,0.1c-0.5-0.5-0.9-1.1-1.4-1.6c-0.3-0.3-0.7-0.6-1.2-0.2
		c-0.4,0.4-0.4,0.8,0,1.3c0.8,0.9,1.6,1.9,2.4,2.8c0.7,0.8,1.3,0.8,2,0c1.7-2,3.5-4,5.3-6C54.5,18.8,54.7,18.5,54.8,18.1z"/>
	<path class="st7" d="M32,51.9c-0.4-0.2-0.6-0.5-0.5-1c0.2-0.4,0.5-0.5,0.9-0.5c0.2,0,0.4,0,0.6,0c11,0,22,0,32.9,0
		c0.2,0,0.4,0,0.6,0c0.4,0,0.7,0.1,0.9,0.5c0.2,0.5-0.1,0.8-0.5,1C55.3,51.9,43.6,51.9,32,51.9z"/>
	<path class="st11" d="M32,51.9c11.7,0,23.3,0,35,0c-0.3,0.3-0.8,0.2-1.1,0.2c-10.9,0-21.7,0-32.6,0C32.8,52.1,32.4,52.2,32,51.9z"
		/>
	<path class="st10" d="M54.8,18.1c0,0.4-0.3,0.7-0.5,1c-1.8,2-3.5,4-5.3,6c-0.7,0.8-1.3,0.8-2,0c-0.8-0.9-1.6-1.9-2.4-2.8
		c-0.4-0.4-0.5-0.9,0-1.3c0.4-0.4,0.8-0.2,1.2,0.2c0.5,0.5,1,1,1.4,1.6c0.6,0.7,1.1,0.6,1.6-0.1c1.5-1.7,3-3.3,4.4-5
		c0.3-0.3,0.7-0.6,1.2-0.4C54.6,17.5,54.8,17.8,54.8,18.1z"/>
</g>
<g id="Layer_4" class="st0">
</g>
<g id="Layer_5" class="st0">
	<path class="st12" d="M44.1,28.3l12.4-6.7c0.2-0.1,0.6-0.1,0.9,0l17.5,3.6c0.3,0.1,0.5,0.2,0.3,0.3l-12.4,6.7
		c-0.2,0.1-0.6,0.1-0.9,0l-17.5-3.6C44,28.5,43.9,28.3,44.1,28.3z"/>
	<path class="st13" d="M31.6,23.6L44,8.8c0.2-0.2,0.6-0.2,0.9-0.1l17.5,8c0.3,0.2,0.5,0.4,0.3,0.6L50.4,32.2
		c-0.2,0.2-0.6,0.2-0.9,0.1l-17.5-8C31.6,24.1,31.4,23.8,31.6,23.6z"/>
	<path class="st14" d="M45.3,42L21.6,29.5c-0.3-0.2-0.5-0.7-0.4-1.1l5.3-23.2c0.1-0.4,0.4-0.7,0.7-0.5L51,17.3
		c0.3,0.2,0.5,0.7,0.4,1.1L46,41.5C45.9,42,45.6,42.2,45.3,42z"/>
	<path class="st15" d="M45.1,61L10.7,44.8c-0.4-0.2-0.8-0.8-0.8-1.4V13.5c0-0.6,0.4-0.9,0.8-0.7L45.1,29c0.4,0.2,0.8,0.8,0.8,1.4
		v29.9C45.9,60.9,45.5,61.2,45.1,61z"/>
	<g class="st16">
		<path class="st17" d="M54.6,63.7l-32.2-5.1c-0.4-0.1-0.8-0.5-0.9-1l-3.4-25.2c-0.1-0.5,0.2-0.8,0.6-0.8l32.2,5.1
			c0.4,0.1,0.8,0.5,0.9,1L55.2,63C55.3,63.4,55,63.8,54.6,63.7z"/>
	</g>
	<g class="st16">
		<path class="st18" d="M63.3,64.2L36.3,67c-0.4,0-0.7-0.2-0.9-0.6l-7-17.9c-0.1-0.3,0-0.7,0.4-0.7L55.8,45c0.4,0,0.7,0.2,0.9,0.6
			l7,17.9C63.9,63.9,63.7,64.2,63.3,64.2z"/>
	</g>
</g>
<g id="Layer_6">
	<path class="st19" d="M12.7,59.7c0.3,0.6,0.3,1.5,1.4,1.5c1.3,0.6,2.6,0.3,4,0.3c1,0,1.6,0.1,1.1,1.4c-0.5,1.4,0.2,2.6,1.4,2.6
		c2.6,0.1,5.1,0.1,7.7,0c1,0,1.5-0.5,1.5-1.6c0-0.8,0-1.7,0.1-2.5c0.2,0,0.4-0.1,0.5-0.1c0.2,0,0.4,0,0.6,0c0.5,0.3,1.1,0.2,1.7,0.2
		c5.5,0,11,0,16.4,0c1.4,0,2.8,0.2,4.2-0.1c0.6,0.5,0.2,1.1,0.3,1.6c0,2,0.6,2.6,2.7,2.6c1.3,0,2.5,0,3.8,0c4.3,0,4.3,0,4.6-4.1
		c1.5-0.1,3.1,0.3,4.6-0.3c1.1-0.3,1.8-1.1,2-2.2c0.1-0.2,0.2-0.4,0.2-0.6c0-4.3,0-8.6,0-12.9c0-0.2-0.2-0.5-0.2-0.7
		c-0.5-1.6-1.5-2.3-3.1-2.2c-1.1,0.1-2.2,0-3.3,0c-0.9,0.1-1.1-0.6-0.8-1c0.7-0.9,0.4-1.9,0.6-2.8c1-4.3,1.9-8.7,3-13
		C69,21,69.8,15.9,71.1,11c0.2-0.9,0.3-1.9-0.1-2.8c-0.4-0.9-1.2-1.4-2.2-1.4c-1.4,0-2.2,1.1-2.6,2.2c-0.5,1.3-0.8,2.7-1.2,3.9
		c-1.9,5.1-3.2,10.4-4.8,15.5c-1.3,4.2-2.6,8.4-3.8,12.5c-0.3,1.1-0.8,1.6-2.1,1.6c-8.2-0.1-16.4-0.1-24.6,0c-1.4,0-2-0.4-2.4-1.7
		c-1.2-4.8-2.8-9.4-4.2-14.1C21.2,21,19.4,15,17.5,9.1c-0.5-1.4-1.9-2.4-3.2-2.2c-1.5,0.3-1.8,1.5-1.8,2.8c0,0.9,0.1,1.8,0.4,2.7
		c1.3,5.2,2.3,10.5,3.5,15.7c0.9,3.8,1.9,7.5,2.7,11.3c0.2,1,0.9,2.5,0.5,3c-0.6,0.8-2.1,0.2-3.2,0.3c-0.4,0-0.8,0-1.3,0
		c-1.1,0-1.9,0.4-2.3,1.5c-0.4,0.4-0.3,0.9-0.3,1.3c0,4.3,0,8.6,0,12.8C12.4,58.8,12.3,59.3,12.7,59.7L12.7,59.7z"/>
	<path class="st19" d="M55.2,22.9c0.5-3,0.3-6.1,0.1-9.1c0-0.2,0-0.4,0-0.6c0.2-0.2,0.2-0.4,0-0.7c-0.3-0.7-0.9-0.9-1.5-0.9
		c-2.9-0.1-5.8-0.9-8.1-2.6c-2.8-2-5-2.4-7.9,0c-2.1,1.8-5.1,2.1-7.8,2.6c-1,0.2-1.6,0.6-1.6,1.8c0.1,3.2,0.1,6.4,0.1,9.6
		c0,1.3,0.3,2.5,0.8,3.7c2.2,5.7,6.4,9.7,11.5,12.8c0.7,0.4,1.3,0.5,2,0C49.3,35.7,54.1,30.6,55.2,22.9z"/>
	<path class="st20" d="M31,61.4c-0.2,0-0.4,0-0.6,0c-0.2-0.1-0.4-0.2-0.5,0.1c0,0.8-0.1,1.7-0.1,2.5c0,1.1-0.6,1.6-1.5,1.6
		c-2.6,0-5.1,0-7.7,0c-1.2,0-1.9-1.2-1.4-2.6c0.5-1.3-0.1-1.4-1.1-1.4c-1.3,0-2.7,0.2-4-0.3c-0.1-0.8-0.5-1.3-1.4-1.5c0,0,0,0,0,0
		c0-5.2,0-10.3,0.1-15.5c0.4-1.1,1.2-1.5,2.3-1.5c0.4,0,0.8,0,1.3,0c1.1-0.1,2.6,0.5,3.2-0.3c0.4-0.5-0.3-2-0.5-3
		c-0.8-3.8-1.8-7.5-2.7-11.3c-1.2-5.2-2.2-10.5-3.5-15.7c-0.2-0.9-0.4-1.8-0.4-2.7c0-1.3,0.3-2.5,1.8-2.8c1.3-0.3,2.7,0.7,3.2,2.2
		C19.4,15,21.2,21,23,26.9c1.5,4.7,3,9.3,4.2,14.1c0.3,1.3,1,1.7,2.4,1.7c8.2-0.1,16.4-0.1,24.6,0c1.3,0,1.8-0.6,2.1-1.6
		c1.3-4.2,2.5-8.4,3.8-12.5c1.6-5.2,2.9-10.4,4.8-15.5c0.5-1.3,0.7-2.7,1.2-3.9c0.4-1.1,1.1-2.2,2.6-2.2c1,0,1.8,0.5,2.2,1.4
		c0.4,0.9,0.3,1.9,0.1,2.8c-1.3,4.9-2.2,9.9-3.4,14.9c-1.1,4.3-1.9,8.7-3,13c-0.2,0.9,0.1,1.9-0.6,2.8c-0.3,0.4-0.2,1.1,0.8,1
		c1.1-0.1,2.2,0,3.3,0c1.6-0.1,2.7,0.6,3.1,2.2c0,4.7,0,9.5,0,14.2c-0.2,1.2-0.8,1.9-2,2.2c-1.5,0.1-3.1-0.4-4.6,0.3
		c-0.3,4.1-0.3,4.1-4.6,4.1c-1.3,0-2.5,0-3.8,0c-2.1,0-2.7-0.6-2.7-2.6c0-0.5,0.3-1.1-0.3-1.6c-3.5-0.3-7.1-0.1-10.6-0.1
		C38.8,61.3,34.9,61.1,31,61.4z M55.7,61.5c-0.2,0.2-0.2,0.4-0.2,0.6c0,0.2,0,0.5,0,0.7c-0.1,0.3-0.1,0.7,0.3,0.9c1.9,0,3.9,0,5.8,0
		c0.5,0,1.1,0,1.1-0.7c0-0.7,0.3-1.6-0.9-1.6C59.8,61.1,57.8,61.1,55.7,61.5L55.7,61.5z M21.5,61.4c-0.4,0.1-0.5,0.4-0.5,0.7
		c0,0.3,0,0.6,0,0.9c0,0.8,0.6,0.7,1.1,0.7c1.5,0,3-0.1,4.5,0c1.3,0.1,1.8-0.4,1.6-1.7c0.1-0.5-0.1-0.9-0.6-0.9
		C25.5,61.3,23.5,61,21.5,61.4z M15,59.4c0.3,0.3,0.6,0.3,1,0c0.2,0,0.4,0,0.6,0c0.4,0.3,0.9,0.2,1.4,0.2c10.8,0,21.6,0,32.4,0
		c0.5,0,0.9,0.1,1.4-0.2c0.2,0,0.4,0,0.7,0c0.1,0,0.2,0.1,0.3,0.1c5.2,0,10.4,0,15.6,0c0.1,0,0.3-0.1,0.4-0.2c0.3,0,0.5-0.1,0.7-0.4
		c0.5-1.7,0.2-3.5,0.2-5.2c0-2.6,0.3-5.3-0.2-7.9c0.1-1.1-0.5-1.3-1.4-1.3c-17.4,0-34.7,0-52.1,0c-1.1,0-1.5,0.4-1.5,1.5
		c0,4,0,8.1,0,12.1C14.3,58.6,14.4,59.2,15,59.4z M60.3,42.7c1.4,0.5,1.8-0.5,2.2-1.9c1.9-8.6,3.9-17.1,5.8-25.7
		c0.4-1.6,0.7-3.3,1-4.9C69.4,9.7,69.6,9,69,8.9c-0.6-0.1-0.7,0.6-0.9,1.1c-2,5.7-3.7,11.5-5.5,17.3c-1.4,4.5-2.8,8.9-4,13.4
		C57.9,42.7,57.9,42.7,60.3,42.7z M23.4,42.7c2.5,0,2.5,0,1.8-2.2c-0.4-1.2-0.7-2.5-1.1-3.7c-1.1-3.6-2.3-7.2-3.4-10.8
		c-0.7-2.2-1.5-4.4-2.1-6.7c-0.8-3.1-1.8-6.1-2.7-9.1c-0.1-0.5-0.3-1.4-1-1.2c-0.8,0.2-0.4,1-0.3,1.6c0,0.1,0.1,0.2,0.1,0.3
		c2.3,10,4.5,20,6.8,30C21.6,42.2,22,43.1,23.4,42.7z"/>
	<path class="st20" d="M55.4,13.2c0,0.2,0,0.4,0,0.6c-0.3,3-0.1,6.1-0.1,9.1c-1.2,7.8-5.9,12.8-12.4,16.6c-0.7,0.4-1.3,0.4-2,0
		c-5.1-3.1-9.3-7-11.5-12.8c-0.4-1.2-0.8-2.4-0.8-3.7c0-3.2,0-6.4-0.1-9.6c0-1.2,0.5-1.6,1.6-1.8c2.8-0.5,5.7-0.8,7.8-2.6
		c2.9-2.4,5.1-2,7.9,0c2.3,1.7,5.2,2.4,8.1,2.6c0.6,0,1.2,0.2,1.5,0.9C55.3,12.7,55.3,13,55.4,13.2z M53.4,20.1
		c0.1-2.2,0.4-4.4-0.2-6.5c-3.9-0.5-7.5-1.9-10.8-4.2c-0.6-0.4-0.9-0.2-1.4,0.1c-1.9,1.3-3.9,2.2-6.1,3c-1.5,0.5-3.3,0.4-4.7,1.3
		c-0.3,2.5-0.4,5,0,7.6c-0.2,2,0.4,3.9,1.1,5.7c1.5,3.7,4.2,6.6,7.4,8.8c3.7,2.5,2.3,2.6,5.9,0.1c4.8-3.4,8.2-7.7,8.6-13.9
		c0.2-0.2,0.2-0.4,0.1-0.7C53.4,20.9,53.4,20.5,53.4,20.1z"/>
	<path class="st21" d="M31,61.4c3.9-0.3,7.8-0.1,11.7-0.1c3.5,0,7.1-0.2,10.6,0.1c-1.4,0.3-2.8,0.1-4.2,0.1c-5.5,0-11,0-16.4,0
		C32.1,61.5,31.5,61.7,31,61.4z"/>
	<path class="st22" d="M12.8,44.2c0,5.2,0,10.3-0.1,15.5c-0.4-0.4-0.3-0.9-0.3-1.3c0-4.3,0-8.6,0-12.8
		C12.4,45.1,12.4,44.6,12.8,44.2z"/>
	<path class="st21" d="M71.3,59c0-4.7,0-9.5,0-14.2c0.1,0.2,0.2,0.5,0.2,0.7c0,4.3,0,8.6,0,12.9C71.5,58.7,71.4,58.8,71.3,59z"/>
	<path class="st21" d="M55.2,22.9c0.1-3-0.2-6.1,0.1-9.1C55.5,16.8,55.8,19.9,55.2,22.9z"/>
	<path class="st21" d="M64.7,61.5c1.5-0.6,3.1-0.1,4.6-0.3C67.8,61.8,66.2,61.4,64.7,61.5z"/>
	<path class="st22" d="M12.7,59.7c0.9,0.1,1.3,0.6,1.4,1.5C13,61.2,13,60.3,12.7,59.7z"/>
	<path class="st21" d="M55.4,13.2c0-0.2,0-0.4,0-0.7C55.6,12.7,55.5,13,55.4,13.2z"/>
	<path class="st21" d="M29.8,61.5c0.1-0.3,0.3-0.2,0.5-0.1C30.2,61.4,30,61.5,29.8,61.5z"/>
	<path class="st17" d="M69.3,59c-0.1,0.3-0.4,0.3-0.7,0.4c-5.4,0-10.9,0-16.3,0c-0.2,0-0.4,0-0.7,0c-3.6,0-7.1-0.1-10.7-0.1
		c-8.2,0-16.3,0-24.5,0.1c-0.2,0-0.4,0-0.6,0c-0.3,0-0.6,0-1,0c-0.6-0.2-0.6-0.7-0.6-1.3c0-4,0-8.1,0-12.1c0-1.1,0.4-1.5,1.5-1.5
		c17.4,0,34.7,0,52.1,0c0.9,0,1.6,0.2,1.4,1.3C69.4,50.2,69.4,54.6,69.3,59z M43.2,49.5c0,1.8,1.2,2.9,3,2.9c1.6,0,2.9-1.3,2.9-2.9
		c0-1.6-1.4-3-3-3C44.5,46.5,43.2,47.8,43.2,49.5z M57.9,49.4c0-1.5-1.6-3-3.1-2.9c-1.5,0.1-2.9,1.5-2.9,3c0,1.6,1.5,3,3,2.9
		C56.5,52.3,57.9,51,57.9,49.4z M66.6,49.5c0-1.5-1.3-2.9-2.9-3c-1.5,0-3.1,1.4-3.1,2.9c0,1.5,1.4,3,3,3
		C65.2,52.4,66.6,51,66.6,49.5z"/>
	<path class="st17" d="M60.3,42.7c-2.4,0-2.3,0-1.8-2.1c1.2-4.5,2.6-9,4-13.4c1.8-5.8,3.5-11.5,5.5-17.3c0.2-0.5,0.3-1.2,0.9-1.1
		c0.7,0.1,0.4,0.9,0.4,1.3c-0.3,1.6-0.7,3.3-1,4.9c-2,8.6-3.9,17.1-5.8,25.7C62.1,42.2,61.7,43.2,60.3,42.7z"/>
	<path class="st17" d="M23.4,42.7c-1.4,0.4-1.8-0.5-2.1-1.8c-2.2-10-4.5-20-6.8-30c0-0.1-0.1-0.2-0.1-0.3c0-0.6-0.4-1.4,0.3-1.6
		c0.7-0.2,0.8,0.7,1,1.2c0.9,3,1.9,6.1,2.7,9.1c0.6,2.2,1.5,4.4,2.1,6.7c1.1,3.6,2.3,7.2,3.4,10.8c0.4,1.2,0.8,2.5,1.1,3.7
		C25.9,42.7,25.9,42.7,23.4,42.7z"/>
	<path class="st17" d="M21,62.2c0-0.4,0.1-0.7,0.5-0.7c1.7,0,3.3,0.1,5,0.1c0.6,0,1.2,0,1.6,0.6c0.2,1.3-0.2,1.8-1.6,1.7
		c-1.5-0.1-3,0-4.5,0c-0.5,0-1.1,0.2-1.1-0.7C21.3,62.8,21.3,62.5,21,62.2z"/>
	<path class="st17" d="M55.6,62.8c0-0.2,0-0.5,0-0.7c0.2-0.2,0.2-0.4,0.2-0.6c0,0,0.1,0,0.1,0c2,0,4,0,6,0c1.2,0,0.9,0.9,0.9,1.6
		c0,0.8-0.5,0.7-1.1,0.7c-1.9,0-3.9,0-5.8,0C55.8,63.4,55.8,63.1,55.6,62.8z"/>
	<path class="st23" d="M16.6,59.4c8.2,0,16.3-0.1,24.5-0.1c3.6,0,7.1,0,10.7,0.1c-0.4,0.3-0.9,0.2-1.4,0.2c-10.8,0-21.6,0-32.4,0
		C17.5,59.6,17,59.7,16.6,59.4z"/>
	<path class="st23" d="M52.4,59.4c5.4,0,10.9,0,16.3,0c-0.1,0.1-0.3,0.2-0.4,0.2c-5.2,0-10.4,0-15.6,0
		C52.6,59.5,52.5,59.4,52.4,59.4z"/>
	<path class="st23" d="M69.3,59c0-4.4,0-8.8,0-13.2c0.5,2.6,0.2,5.3,0.2,7.9C69.6,55.5,69.9,57.3,69.3,59z"/>
	<path class="st23" d="M28.2,62.1c-0.4-0.6-1-0.6-1.6-0.6c-1.7,0-3.3,0-5-0.1c2-0.4,4-0.1,6-0.2C28.1,61.2,28.2,61.6,28.2,62.1z"/>
	<path class="st23" d="M61.8,61.4c-2,0-4,0-6,0C57.8,61.1,59.8,61.1,61.8,61.4z"/>
	<path class="st23" d="M15,59.4c0.3,0,0.6,0,1,0C15.6,59.6,15.3,59.7,15,59.4z"/>
	<path class="st23" d="M21,62.2c0.3,0.3,0.3,0.6,0,0.9C21,62.7,21,62.5,21,62.2z"/>
	<path class="st23" d="M55.6,62.8c0.3,0.2,0.2,0.6,0.3,0.9C55.4,63.5,55.5,63.2,55.6,62.8z"/>
	<path class="st23" d="M55.7,61.5c0,0.2,0,0.5-0.2,0.6C55.5,61.9,55.5,61.7,55.7,61.5z"/>
	<path class="st24" d="M53.3,22c-0.3,6.2-3.8,10.5-8.6,13.9c-3.6,2.6-2.2,2.5-5.9-0.1c-3.3-2.2-5.9-5.1-7.4-8.8
		c-0.7-1.8-1.4-3.7-1.1-5.7c0.1-2.5,0.2-5,0-7.6c1.4-0.9,3.2-0.8,4.7-1.3c2.2-0.8,4.2-1.7,6.1-3c0.5-0.3,0.8-0.5,1.4-0.1
		c3.2,2.3,6.9,3.7,10.8,4.2c0.1,2.2-0.2,4.4,0.2,6.5c0,0.4,0,0.8,0,1.2C53.2,21.5,53.2,21.8,53.3,22z M50.5,18.9
		c0.2-1.3-0.3-2.3-1.5-2.7c-1.2-0.4-2.4-0.4-3.4,0.7c-1.4,1.6-2.8,3.2-4.2,4.8c-1.4,1.6-1.4,1.6-2.9,0.1c-1.3-1.3-3.1-1.5-4.3-0.5
		c-1.5,1.3-1.5,2.7-0.1,4.3c1.1,1.3,2.2,2.5,3.3,3.7c1.8,2,3.4,2,5.1,0c2.5-2.8,4.9-5.6,7.3-8.3C50.3,20.4,50.6,19.7,50.5,18.9z"/>
	<path class="st23" d="M30.3,13.8c0.2,2.5,0.1,5,0,7.6C29.9,18.8,30,16.3,30.3,13.8z"/>
	<path class="st21" d="M53.4,20.1c-0.4-2.2-0.1-4.4-0.2-6.5C53.8,15.7,53.6,17.9,53.4,20.1z"/>
	<path class="st21" d="M53.3,22c-0.1-0.2-0.1-0.5,0.1-0.7C53.6,21.6,53.5,21.8,53.3,22z"/>
	<path class="st20" d="M43.2,49.5c0-1.7,1.2-3,2.9-3c1.6,0,3,1.4,3,3c0,1.6-1.3,2.9-2.9,2.9C44.4,52.4,43.3,51.3,43.2,49.5z
		 M46.1,50.5c0.6,0,0.9-0.3,0.9-1c0-0.5,0-0.9-0.7-0.9c-0.6,0-1.2,0-1.2,0.8C45.1,50.1,45.5,50.4,46.1,50.5z"/>
	<path class="st20" d="M57.9,49.4c0,1.6-1.3,2.9-3,3c-1.6,0-3-1.4-3-2.9c0-1.4,1.5-2.9,2.9-3C56.3,46.4,57.9,47.9,57.9,49.4z
		 M55.9,49.4c0-0.7-0.5-0.8-1.1-0.8c-0.6,0-1,0.2-1,0.9c0,0.6,0.4,1,1,1C55.5,50.5,55.8,50.1,55.9,49.4z"/>
	<path class="st20" d="M66.6,49.5c0,1.6-1.4,3-3,2.9c-1.6,0-3-1.5-3-3c0-1.5,1.6-2.9,3.1-2.9C65.2,46.5,66.6,47.9,66.6,49.5z
		 M63.3,48.7c-0.2,0-0.9-0.1-0.9,0.8c0,0.7,0.6,1,1.2,1c0.6,0,1-0.3,1-0.9C64.7,48.9,64.3,48.6,63.3,48.7z"/>
	<path class="st20" d="M50.5,18.9c0.2,0.8-0.2,1.5-0.7,2.1c-2.5,2.8-4.9,5.6-7.3,8.3c-1.8,2-3.3,2-5.1,0c-1.1-1.2-2.2-2.5-3.3-3.7
		c-1.4-1.6-1.4-3,0.1-4.3c1.2-1.1,3-0.9,4.3,0.5c1.5,1.6,1.5,1.6,2.9-0.1c1.4-1.6,2.8-3.2,4.2-4.8c1-1.1,2.2-1.1,3.4-0.7
		C50.2,16.6,50.7,17.6,50.5,18.9z M48.8,18.7c-0.1-0.4-0.2-0.7-0.7-0.8c-0.6-0.2-1.1,0.1-1.5,0.6c-1.9,2.2-3.7,4.3-5.7,6.5
		c-1.1,1.2-1.6,1.1-2.5-0.2c-0.5-0.6-1-1.2-1.5-1.8c-0.4-0.5-1-0.7-1.5-0.2c-0.6,0.5-0.4,1.1,0,1.6c1,1.2,2.1,2.4,3.1,3.7
		c0.8,1,1.6,1.1,2.4,0c0.5-0.7,0.9-1.5,1.5-2c2.2-1.8,3.8-4.2,5.7-6.2C48.5,19.6,48.8,19.2,48.8,18.7z"/>
	<path class="st25" d="M46.1,50.5c-0.6-0.1-1-0.4-1-1c0-0.9,0.6-0.8,1.2-0.8c0.7,0,0.7,0.4,0.7,0.9C47,50.2,46.7,50.5,46.1,50.5z"/>
	<path class="st25" d="M55.9,49.4c0,0.7-0.4,1.1-1,1.1c-0.6,0-0.9-0.4-1-1c0-0.7,0.3-0.9,1-0.9C55.4,48.6,55.9,48.7,55.9,49.4z"/>
	<path class="st25" d="M63.3,48.7c1-0.1,1.3,0.2,1.3,0.9c0,0.6-0.4,1-1,0.9c-0.6,0-1.1-0.4-1.2-1C62.4,48.6,63.1,48.7,63.3,48.7z"/>
	<path class="st17" d="M48.8,18.7c0,0.5-0.3,0.9-0.6,1.2c-1.9,2-3.5,4.4-5.7,6.2c-0.6,0.5-1,1.3-1.5,2c-0.8,1.1-1.6,1-2.4,0
		c-1-1.2-2.1-2.5-3.1-3.7c-0.5-0.5-0.7-1.1,0-1.6c0.5-0.4,1.1-0.3,1.5,0.2c0.5,0.6,1.1,1.1,1.5,1.8c0.9,1.3,1.5,1.4,2.5,0.2
		c1.9-2.1,3.8-4.3,5.7-6.5c0.4-0.5,0.9-0.8,1.5-0.6C48.6,18,48.7,18.3,48.8,18.7z"/>
</g>
</svg>
