<?xml version="1.0" encoding="utf-8"?>
<!-- Generator: Adobe Illustrator 27.5.0, SVG Export Plug-In . SVG Version: 6.00 Build 0)  -->
<svg version="1.1" xmlns="http://www.w3.org/2000/svg" xmlns:xlink="http://www.w3.org/1999/xlink" x="0px" y="0px"
	 viewBox="0 0 84 72.7" style="enable-background:new 0 0 84 72.7;" xml:space="preserve">
<style type="text/css">
	.st0{display:none;}
	.st1{display:inline;fill:#FFFFFF;}
	.st2{display:inline;fill:#FAFCFC;}
	.st3{display:inline;fill:#28468B;}
	.st4{display:inline;fill:#298CC8;}
	.st5{display:inline;fill:#A1A6A7;}
	.st6{display:inline;fill:#F5F7FA;}
	.st7{display:inline;fill:#0E4770;}
	.st8{display:inline;fill:#ACAFB2;}
	.st9{display:inline;fill:#37566A;}
	.st10{display:inline;fill:#26A7DF;}
	.st11{display:inline;fill:#46859E;}
	.st12{opacity:0.4;fill:#C6CCE0;}
	.st13{fill:#C6CCE0;}
	.st14{fill:#8D99C0;}
	.st15{fill:#4360A0;}
	.st16{fill:#FF5000;}
	.st17{fill:#F6D637;}
</style>
<g id="Layer_1" class="st0">
	<path class="st1" d="M52.4,20.8L52.4,20.8c0.1-0.9-0.3-1.9,0-2.8c0.1-0.3,0-0.8-0.4-0.7c-1.2,0.4-2.4-0.5-3.5,0.2c0,0,0,0,0,0
		c0-1,0.2-2-0.4-2.9c-0.7,1-1.5,1.2-2.4,0.4c-0.6-0.4-1.1-0.3-1.7-0.1c-0.3,0.1-0.6,0.4-0.9,0.2c-0.8-0.6-1.6-0.3-2.4-0.4
		c-0.6,0-1.1,0-1.7-0.1c-1.7-0.6-1.7-0.6-2.3,1c-0.2,0-0.3,0.1-0.5,0.1c-0.4-0.9-1.5-1.6-1.9-1.1c-0.5,0.7-1.4,1-1.8,1.7
		c-0.6,1.1-1.5,1-2.3,0.9c-0.9-0.2-1.1,0.1-1,0.9c0.1,0.6-0.1,1.1-0.8,0.9c-1-0.1-1.2,0.4-1.1,1.2c0.1,0.8-0.6,1-1.2,1.1
		c-0.9,0.1-0.9,0-0.5,0.9c0.5,1.1-0.3,2.5-1.5,2.6c-1.6,0.1-3.1,0.4-4.8,0.1c0.2,0.7,0.4,1.3-0.5,1.4c-0.4,0.1-0.9,0.5-0.9,0.9
		c0,1.7-1.4,1.4-2.4,1.5c-0.2,0-0.5-0.2-0.7,0c-0.1,0.1-0.2,0.2-0.2,0.3c-0.1,0.2,0.1,0.3,0.2,0.3c0.3,0.1,0.9-0.1,0.8,0.5
		c-0.1,0.4-0.4,0.7-0.8,0.7c-0.9,0.1-1,0.9-0.9,1.4c0.3,1.8-0.1,3.6-0.1,5.4c0,1.5,0.2,3.1,0.1,4.6c-0.1,1.3,0.1,2.7,1.4,3.6
		c0.5,0.3,0.5,0.9,0.3,1.4c-0.2,0.5-0.1,0.6,0.5,0.6c1.1,0,1.8,0.4,1.5,1.7c-0.2,1,0.5,1.2,1.3,1c0.4-0.1,0.8-0.2,1.3-0.3
		c0.7-0.1,1.4,0.2,1.5,0.7c0.4,1.3,1.1,0.9,1.9,0.6c0.9-0.3,1.8-0.4,2.8,0c0.8,0.3,1.7,0.1,2.6,0.1c0.3,0,0.3-0.3,0.3-0.6
		c0.1-1.1,0.7-2,1.7-2.6c0.2,1.7,0.5,1.9,2,2.3c0.2,0,0.5,0.1,0.4,0.3c-0.4,0.7,0.3,1,0.4,1.6c0.2,0.7,0.6,1.5-0.3,2
		c-0.4,0.2-0.6,0.4-0.4,0.7c0.2,0.4,0.6,0.1,0.8,0c0.2-0.1,0.3-0.4,0.5-0.6c0.4,0.6,0.7,1.6,1.2,1.7c1.2,0.4,1.2,1.2,1.2,2.2
		c0,0.5,0.1,0.9,0.7,0.9c2.2,0,4.3-0.1,6.5-0.1c0.3,0,0.5-0.3,0.5-0.6c-0.1-1.3,0.5-2.2,1.2-3.3c0.8-1.2,0.9-0.8,1.6,0
		c-0.1-1.6,0.6-3.2-0.4-4.6c0.2-0.2,0.5-0.1,0.5-0.1c0.2,0.9,1.1,0.5,1.7,0.8c0.4,0.2,0.8,0,0.7-0.4c-0.3-1.2,0.8-1.8,1-2.7
		c0.1-0.3,0.3-0.6,0.7-0.5c0.4,0.1,0.2,0.5,0.3,0.7c0.3,1-0.6,1.4-1.1,2c-0.2,0.3-0.5,0.5-0.3,0.8c0.1,0.2,0.4,0.3,0.5,0.2
		c1-0.7,2.2,0,3-0.1c2-0.5,4-0.2,6-0.3c0,0.4,0.3,0.5,0.6,0.4c0.1,0,0.2-0.2,0.2-0.2c-0.2-0.4-0.5-0.2-0.8-0.2
		c0-0.8,0.4-1.3,1.2-1.4c1.1-0.1,2.2-0.1,3.3-0.1c0.8,0.1,1.1-0.2,1-1c-0.1-0.8,0.6-1.5,1.3-1.2c1,0.4,0.9-0.2,0.8-0.8
		C67.7,46,68,45.6,69,45.7c0.7,0.1,0.7-0.2,0.6-0.8c-0.1-1.4,0.3-2.5,1.4-3.3c0.6-0.4,0.6-1.1,0.5-1.8c-0.4-1.9-0.6-3.9,0-5.8
		c0.1-0.4,0.2-1.1-0.1-1.1c-1.2-0.1-0.9-1.1-1.4-1.7c-0.5-0.7-0.8-1.3,0.5-1.4c0.3,0,0.4-0.2,0.5-0.5c0-0.2-0.1-0.4-0.3-0.4
		c-0.9,0.1-2-0.4-2.8,0.4c-0.1-0.2-0.3-0.4-0.4-0.6c0,0,0-0.1,0-0.1c0.6-1-0.5-2.1,0.2-3.2c0.1-0.2-0.3-0.4-0.5-0.3
		c-1.1,0.4-2.2-0.2-3.3,0l0,0c0-0.6-0.2-1.3-0.1-1.9c0.2-0.7-0.1-0.9-0.6-1.2c-1.4-0.7-2.9-1.1-4.4-0.6c-0.6,0.2-1.3,0.5-2,0.2
		c-1.4-0.5-2.7-0.5-4.1-0.4l0,0C52.6,21,52.5,20.9,52.4,20.8z"/>
	<path class="st1" d="M61.4,51c0.7,0.4,1.3,0.2,1.8,0.3c0.3,0,0.6,0,0.6-0.4c0-0.4-0.3-0.5-0.6-0.6C62.6,50.3,62.2,50.8,61.4,51z"/>
	<path class="st1" d="M46.8,14.8c0.3,0,0.6-0.1,0.5-0.5c0-0.3-0.3-0.5-0.6-0.5c-0.3,0-0.5,0.1-0.5,0.5
		C46.2,14.8,46.5,14.8,46.8,14.8z"/>
	<path class="st1" d="M37.2,13.7c0.4,0.2,0.8,0.3,1.3,0C38,13.3,37.6,13.4,37.2,13.7z"/>
	<path class="st1" d="M44.8,13.6c-0.4-0.1-0.8-0.4-1.2,0.2C44.1,13.9,44.5,14,44.8,13.6z"/>
	<path class="st1" d="M14.3,46.7c0.3-0.4,0.3-0.7,0-1.2C13.9,46,13.9,46.3,14.3,46.7z"/>
	<path class="st1" d="M40.9,13.6c-0.4-0.2-0.8-0.3-1.2,0C40.1,13.9,40.4,14,40.9,13.6z"/>
	<path class="st1" d="M27.4,17.5c0-0.2-0.2-0.3-0.3-0.3c-0.2,0-0.3,0.1-0.3,0.3c0,0.2,0.1,0.4,0.4,0.3
		C27.4,17.9,27.4,17.7,27.4,17.5z"/>
	<path class="st1" d="M26.2,18.8c0-0.2-0.1-0.3-0.3-0.3c-0.2,0-0.3,0-0.3,0.2c0,0.2,0.1,0.4,0.3,0.4C26.1,19.1,26.2,19,26.2,18.8z"
		/>
	<path class="st1" d="M48.4,13.6c0-0.2-0.2-0.2-0.3-0.2c-0.2,0-0.3,0-0.3,0.2c0,0.2,0.2,0.2,0.3,0.2C48.2,13.8,48.4,13.8,48.4,13.6z
		"/>
	<path class="st1" d="M33.8,13.7c0.1-0.2,0-0.3-0.1-0.3c-0.1,0-0.3,0-0.3,0.1c-0.1,0.2,0,0.3,0.2,0.3C33.6,13.8,33.7,13.8,33.8,13.7
		z"/>
	<path class="st1" d="M30.9,51.2c-0.2-0.1-0.3,0-0.3,0.1c0,0.1,0,0.3,0.1,0.3c0.2,0.1,0.3,0,0.3-0.2C31,51.4,30.9,51.3,30.9,51.2z"
		/>
	<path class="st1" d="M48.6,55.2c-0.1-0.1-0.2-0.2-0.3-0.2c-0.1,0-0.2,0.1-0.2,0.2c0,0.2,0.1,0.3,0.3,0.2
		C48.5,55.5,48.5,55.3,48.6,55.2z"/>
	<path class="st1" d="M13.9,29.7c0.1,0.2,0.2,0.3,0.3,0.3c0.1-0.1,0.2-0.1,0.2-0.2c0-0.1,0-0.3-0.2-0.3
		C14.1,29.6,14.1,29.7,13.9,29.7z"/>
	<path class="st1" d="M70.7,43.9c0.1,0,0.1,0.1,0.2,0.1c0,0,0.1-0.1,0.1-0.2c-0.1,0-0.1-0.1-0.2-0.1C70.8,43.8,70.8,43.9,70.7,43.9z
		"/>
	<path class="st2" d="M67.9,29.2c0.9-0.8,1.9-0.3,2.8-0.4c0.2,0,0.3,0.2,0.3,0.4c0,0.3-0.2,0.5-0.5,0.5c-1.3,0.1-1,0.7-0.5,1.4
		c0.4,0.6,0.2,1.7,1.4,1.7c0.2,0,0.2,0.7,0.1,1.1c-0.6,1.9-0.5,3.9,0,5.8c0.2,0.8,0.1,1.4-0.5,1.8c-1.1,0.9-1.5,2-1.4,3.3
		c0.1,0.5,0,0.9-0.6,0.8c-0.9-0.1-1.3,0.3-1.2,1.2c0,0.6,0.2,1.2-0.8,0.8c-0.7-0.3-1.4,0.4-1.3,1.2c0.1,0.8-0.2,1-1,1
		c-1.1-0.1-2.2-0.1-3.3,0.1c-0.7,0.1-1.2,0.6-1.2,1.4l0,0c-2,0.1-4-0.2-6,0.3c-0.8,0.2-2-0.6-3,0.1c-0.1,0.1-0.4,0-0.5-0.2
		c-0.2-0.4,0.1-0.6,0.3-0.8c0.5-0.6,1.3-1,1.1-2c-0.1-0.3,0.1-0.6-0.3-0.7c-0.4-0.1-0.6,0.2-0.7,0.5c-0.2,0.9-1.3,1.6-1,2.7
		c0.1,0.5-0.3,0.7-0.7,0.4c-0.5-0.3-1.4,0.1-1.7-0.8c0-0.1-0.4-0.1-0.5,0.1c1,1.4,0.4,3,0.4,4.6c-0.6-0.8-0.8-1.2-1.6,0
		c-0.7,1.1-1.4,1.9-1.2,3.3c0,0.3-0.1,0.6-0.5,0.6c-2.2,0-4.3,0.1-6.5,0.1c-0.6,0-0.7-0.4-0.7-0.9c0-0.9,0.1-1.8-1.2-2.2
		c-0.5-0.2-0.8-1.1-1.2-1.7c-0.2,0.2-0.3,0.5-0.5,0.6c-0.2,0.1-0.6,0.4-0.8,0c-0.2-0.3,0-0.5,0.4-0.7c0.9-0.5,0.5-1.3,0.3-2
		c-0.1-0.5-0.9-0.9-0.4-1.6c0.1-0.2-0.2-0.3-0.4-0.3c-1.5-0.4-1.7-0.6-2-2.3c-1,0.6-1.6,1.4-1.7,2.6c0,0.3,0,0.6-0.3,0.6
		c-0.9,0-1.9,0.2-2.6-0.1c-1-0.4-1.8-0.3-2.8,0c-0.8,0.2-1.5,0.6-1.9-0.6c-0.1-0.5-0.9-0.8-1.5-0.7c-0.4,0.1-0.9,0.2-1.3,0.3
		c-0.9,0.2-1.5,0-1.3-1c0.2-1.3-0.4-1.7-1.5-1.7c-0.5,0-0.6-0.2-0.5-0.6c0.2-0.5,0.2-1.1-0.3-1.4c-1.4-0.9-1.5-2.3-1.4-3.6
		c0.1-1.5-0.1-3.1-0.1-4.6c0-1.8,0.4-3.6,0.1-5.4c-0.1-0.5,0-1.3,0.9-1.4c0.4-0.1,0.8-0.4,0.8-0.7c0.1-0.6-0.5-0.4-0.8-0.5
		c-0.2-0.1-0.3-0.2-0.2-0.3c0-0.1,0.1-0.2,0.2-0.3c0.2-0.1,0.5,0.1,0.7,0c1-0.1,2.3,0.2,2.4-1.5c0-0.4,0.5-0.8,0.9-0.9
		c1-0.1,0.8-0.7,0.5-1.4c1.7,0.3,3.2,0,4.8-0.1c1.2-0.1,2-1.5,1.5-2.6c-0.4-0.8-0.4-0.8,0.5-0.9c0.6-0.1,1.2-0.3,1.2-1.1
		c-0.1-0.8,0.1-1.3,1.1-1.2c0.7,0.1,0.9-0.3,0.8-0.9c-0.1-0.8,0.2-1,1-0.9c0.8,0.2,1.8,0.2,2.3-0.9c0.4-0.7,1.3-1,1.8-1.7
		c0.3-0.4,1.5,0.3,1.9,1.1C31.6,17.4,28,20.3,26,25c-0.2,0.5-0.5,0.6-1,0.6c-5.7,0.9-9.6,4.6-10.7,10.6c-0.7,4,0.8,8.9,5.4,12
		c2.1,1.4,4.4,2.1,6.9,2.1c1.2,0,2-0.9,2-1.9c0-1.1-0.8-1.8-2-1.7c-0.7,0-1.4-0.3-2.1-0.4c-4-0.9-8-5.7-5.9-11.5
		c1.2-3.1,4.2-5.2,7.5-5.5c2.3-0.2,2.4-0.1,3.1-2.2C32,19,42,17,48,21.9c1.4,1.2,1.4,1.1-0.2,2c-3.8,2.2-6,5.4-6,9.9
		c0,1.2,0.8,2,1.9,2c1.1,0,1.7-0.8,1.8-2c0.2-2.5,1.2-4.6,3.3-6.1c2.8-2,6-2.2,9.2-1.5c3.9,0.9,6.5,3.5,7.8,7.3
		c1.5,4.4,0.2,8.7-3.4,11c-2.2,1.5-4.8,1.9-7.3,2.1c-1.4,0.1-2.2,1-1.9,2.3c0.2,1.1,1.3,1.8,2.7,1.6c1.4-0.2,2.8-0.4,4.1-0.7
		c5.6-1.4,9.5-5.6,10.1-10.8c0.3-0.4,0.2-0.9,0.2-1.4c0-0.4,0-0.8,0-1.2c0.1-0.5,0.1-1-0.2-1.4C69.7,32.9,68.9,31,67.9,29.2z
		 M42.8,44.1c-1.3-0.4-2.5-0.4-3.8,0c-2.2,0.3-4,1.3-5.6,2.7c-0.7,0.6-1,1.4-0.3,2.2c0.5,0.7,1.4,0.7,2.3-0.1
		c3.5-2.9,7.6-2.9,11.1,0c0.9,0.7,1.8,0.8,2.3,0.1c0.6-0.6,0.4-1.6-0.4-2.3C46.7,45.3,44.9,44.3,42.8,44.1z M39,40.5
		c1.2,0,2.5,0,3.7,0c0.7,0.2,1.4,0.3,2.1,0.5c2.4,0.6,4.4,1.9,6.1,3.6c0.7,0.6,1.4,0.8,2.1,0.1c0.7-0.7,0.5-1.4-0.1-2.1
		c-0.1-0.1-0.2-0.2-0.3-0.3c-4-3.6-8.7-5.1-14-4.5c-3.8,0.4-7.1,2.1-9.9,4.7c-0.7,0.7-0.9,1.5-0.2,2.2c0.7,0.7,1.4,0.6,2.1-0.1
		C33.1,42.3,35.9,41,39,40.5z M45,54.3c0-2.5-1.6-4.2-4-4.2c-2.4,0-4.4,1.9-4.4,4.2c0,2.1,2,4.1,4.3,4.1C43.2,58.5,45,56.7,45,54.3z
		"/>
	<path class="st3" d="M70.1,36.4c0,0.4,0,0.8,0,1.2c-0.2,0.5-0.2,0.9-0.2,1.4c-0.6,5.2-4.5,9.4-10.1,10.8c-1.3,0.3-2.7,0.5-4.1,0.7
		c-1.3,0.2-2.4-0.5-2.7-1.6c-0.3-1.3,0.5-2.2,1.9-2.3c2.6-0.2,5.1-0.7,7.3-2.1c3.6-2.3,4.9-6.6,3.4-11c-1.3-3.8-3.9-6.4-7.8-7.3
		c-3.2-0.7-6.4-0.5-9.2,1.5c-2.1,1.5-3.1,3.6-3.3,6.1c-0.1,1.2-0.7,2-1.8,2c-1.1,0-1.9-0.8-1.9-2c0-4.5,2.2-7.7,6-9.9
		c1.6-0.9,1.6-0.9,0.2-2c-6-5-16-2.9-18.7,5.3c-0.7,2.1-0.8,2-3.1,2.2c-3.3,0.3-6.3,2.3-7.5,5.5c-2.1,5.8,1.9,10.6,5.9,11.5
		c0.7,0.2,1.3,0.4,2.1,0.4c1.2-0.1,2,0.7,2,1.7c0,1.1-0.8,1.9-2,1.9c-2.5,0-4.8-0.7-6.9-2.1c-4.6-3.1-6.1-8-5.4-12
		c1.1-6,5-9.7,10.7-10.6c0.5-0.1,0.8-0.1,1-0.6c2-4.7,5.5-7.6,10.3-9.1c0.2,0,0.3-0.1,0.5-0.1c0.5-0.1,1-0.1,1.4-0.2
		c1.4,0,2.9,0,4.3,0c2.1,0.2,4,1.1,6,2c0,0,0,0,0,0c1.4,1,2.7,2.1,3.9,3.3c0,0,0,0,0,0c0.1,0.1,0.1,0.2,0.2,0.3c0,0,0,0,0,0
		c0.4,1,1.1,1.3,2.1,1.2c1.1-0.1,2.2-0.1,3.3,0.1c2.1,0.4,4,1.4,5.9,2.5c0,0,0,0,0,0c1.3,1.1,2.5,2.3,3.6,3.6
		c0.1,0.2,0.3,0.4,0.4,0.6c1,1.8,1.8,3.7,2,5.8C69.9,35.5,69.9,36,70.1,36.4z"/>
	<path class="st2" d="M63.9,24.9c-1.8-1.1-3.7-2.1-5.9-2.5c-1.1-0.2-2.2-0.2-3.3-0.1c-1,0.1-1.7-0.2-2.1-1.2c1.4,0,2.8,0,4.1,0.4
		c0.6,0.2,1.3,0,2-0.2c1.6-0.5,3-0.2,4.4,0.6c0.5,0.3,0.8,0.5,0.6,1.2C63.7,23.6,63.9,24.3,63.9,24.9z"/>
	<path class="st2" d="M38.3,15.5c-0.5,0.1-1,0.1-1.4,0.2c0.6-1.7,0.6-1.6,2.3-1c0.5,0.2,1.1,0.1,1.7,0.1c0.8,0.1,1.7-0.2,2.4,0.4
		c0.3,0.2,0.6-0.1,0.9-0.2c0.6-0.2,1.1-0.3,1.7,0.1c1,0.7,1.7,0.6,2.4-0.4c0.7,0.9,0.4,1.9,0.4,2.9c-1.9-0.9-3.8-1.8-6-2
		C41.1,15.2,39.7,15.2,38.3,15.5z"/>
	<path class="st2" d="M52.4,20.8c-1.2-1.2-2.5-2.3-3.9-3.3c1.1-0.7,2.3,0.2,3.5-0.2c0.4-0.1,0.5,0.4,0.4,0.7
		C52.1,19,52.5,19.9,52.4,20.8z"/>
	<path class="st2" d="M67.5,28.5c-1.1-1.3-2.2-2.5-3.6-3.6c1.1-0.2,2.2,0.4,3.3,0c0.2-0.1,0.6,0.1,0.5,0.3c-0.7,1,0.5,2.1-0.2,3.2
		C67.5,28.5,67.5,28.5,67.5,28.5z"/>
	<path class="st2" d="M61.4,51c0.7-0.2,1.1-0.8,1.8-0.7c0.3,0,0.6,0.2,0.6,0.6c0,0.4-0.3,0.4-0.6,0.4C62.8,51.3,62.2,51.4,61.4,51z"
		/>
	<path class="st2" d="M46.8,14.8c-0.3,0-0.6-0.1-0.6-0.4c0-0.4,0.2-0.5,0.5-0.5c0.3,0,0.5,0.2,0.6,0.5
		C47.4,14.8,47.1,14.8,46.8,14.8z"/>
	<path class="st2" d="M37.2,13.7c0.4-0.3,0.8-0.3,1.3,0C38,14,37.6,13.9,37.2,13.7z"/>
	<path class="st2" d="M44.8,13.6c-0.4,0.4-0.7,0.3-1.2,0.2C44,13.2,44.4,13.5,44.8,13.6z"/>
	<path class="st2" d="M14.3,46.7c-0.3-0.4-0.3-0.7,0-1.2C14.6,46,14.6,46.3,14.3,46.7z"/>
	<path class="st2" d="M40.9,13.6c-0.4,0.4-0.8,0.3-1.2,0C40.1,13.3,40.4,13.4,40.9,13.6z"/>
	<path class="st2" d="M27.4,17.5c0,0.2,0,0.3-0.2,0.3c-0.2,0-0.4-0.1-0.4-0.3c0-0.2,0.1-0.3,0.3-0.3C27.2,17.3,27.4,17.4,27.4,17.5z
		"/>
	<path class="st2" d="M26.2,18.8c0,0.2-0.1,0.3-0.3,0.3c-0.2,0-0.4-0.1-0.3-0.4c0-0.2,0.2-0.2,0.3-0.2
		C26.1,18.5,26.2,18.6,26.2,18.8z"/>
	<path class="st2" d="M60.1,51.3c0.3,0.1,0.6-0.1,0.8,0.2c0,0-0.1,0.2-0.2,0.2C60.4,51.8,60.1,51.7,60.1,51.3
		C60.1,51.3,60.1,51.3,60.1,51.3z"/>
	<path class="st2" d="M48.4,13.6c0,0.2-0.2,0.2-0.3,0.2c-0.2,0-0.3,0-0.3-0.2c0-0.2,0.2-0.2,0.3-0.2C48.2,13.4,48.4,13.4,48.4,13.6z
		"/>
	<path class="st2" d="M33.8,13.7c-0.1,0-0.2,0.1-0.2,0.1c-0.2,0-0.3-0.1-0.2-0.3c0-0.1,0.2-0.1,0.3-0.1
		C33.8,13.5,33.9,13.5,33.8,13.7z"/>
	<path class="st2" d="M30.9,51.2c0,0.1,0.1,0.2,0.1,0.2c0,0.2-0.1,0.3-0.3,0.2c-0.1,0-0.1-0.2-0.1-0.3
		C30.6,51.2,30.7,51.1,30.9,51.2z"/>
	<path class="st2" d="M48.6,55.2c-0.1,0.1-0.1,0.3-0.2,0.3c-0.2,0.1-0.3-0.1-0.3-0.2c0-0.1,0.1-0.2,0.2-0.2
		C48.4,55,48.5,55.1,48.6,55.2z"/>
	<path class="st2" d="M13.9,29.7c0.1-0.1,0.2-0.1,0.3-0.1c0.2,0,0.2,0.2,0.2,0.3c0,0.1-0.1,0.1-0.2,0.2C14.2,30,14.1,29.9,13.9,29.7
		z"/>
	<path class="st2" d="M70.7,43.9c0-0.1,0-0.2,0.1-0.2c0,0,0.1,0,0.2,0.1c0,0.1,0,0.2-0.1,0.2C70.9,44,70.8,44,70.7,43.9z"/>
	<path class="st2" d="M52.6,21.1c-0.1-0.1-0.1-0.2-0.2-0.3C52.5,20.9,52.6,21,52.6,21.1z"/>
	<path class="st4" d="M39,40.5c-3.2,0.5-5.9,1.8-8.3,4c-0.7,0.7-1.4,0.8-2.1,0.1c-0.7-0.7-0.5-1.5,0.2-2.2c2.8-2.7,6.1-4.3,9.9-4.7
		c5.3-0.6,10,0.8,14,4.5c0.1,0.1,0.2,0.2,0.3,0.3c0.6,0.7,0.8,1.4,0.1,2.1c-0.7,0.7-1.4,0.5-2.1-0.1c-1.8-1.7-3.8-2.9-6.1-3.6
		c-0.7-0.2-1.4-0.3-2.1-0.5C41.5,40.2,40.3,40.2,39,40.5z"/>
	<path class="st4" d="M45,54.3c0,2.4-1.8,4.2-4.1,4.1c-2.2,0-4.3-2-4.3-4.1c0-2.3,2-4.2,4.4-4.2C43.3,50.1,45,51.9,45,54.3z"/>
	<path class="st4" d="M42.8,44.1c2.1,0.3,3.9,1.3,5.5,2.7c0.8,0.7,1,1.7,0.4,2.3c-0.6,0.7-1.4,0.6-2.3-0.1c-3.5-2.9-7.6-2.9-11.1,0
		c-0.9,0.7-1.8,0.8-2.3,0.1c-0.6-0.8-0.4-1.6,0.3-2.2c1.6-1.4,3.4-2.4,5.6-2.7C40.3,44.1,41.5,44.1,42.8,44.1z"/>
	<path class="st5" d="M39,40.5c1.2-0.4,2.5-0.4,3.7,0C41.5,40.5,40.3,40.5,39,40.5z"/>
	<path class="st5" d="M42.8,44.1c-1.3,0-2.5,0-3.8,0C40.3,43.7,41.5,43.7,42.8,44.1z"/>
	<path class="st5" d="M70,39.1c0-0.5-0.1-1,0.2-1.4C70.2,38.1,70.3,38.6,70,39.1z"/>
	<path class="st5" d="M70.1,36.4c-0.3-0.5-0.2-1-0.2-1.4C70.3,35.4,70.2,35.9,70.1,36.4z"/>
	<path class="st5" d="M38.3,15.5c1.4-0.4,2.9-0.4,4.3,0C41.1,15.5,39.7,15.5,38.3,15.5z"/>
</g>
<g id="Layer_2" class="st0">
	<path class="st6" d="M59.8,16.9c-0.9-0.4-1.9-0.2-2.9-0.2c-3.9,0-7.7,0-11.6,0c-0.1,0-0.3,0-0.4,0c-0.9,0.1-1.5-0.3-2.1-1
		c-0.8-0.9-1.5-1.9-2.5-2.5c-0.7-0.3-1.5-0.2-2.2-0.1c-0.1,0-0.3,0-0.4,0c-1.9-0.3-3.7-0.1-5.6-0.1c-0.9,0-1.9-0.2-2.8,0.2
		c-1.6,0.4-2.6,1.5-2.6,2.9c0,9.2,0,18.5,0,27.7c0,0.4,0.1,0.7,0.3,1.1c0.8,1.3,2,1.5,3.3,1.5c7.8,0,15.5,0,23.3,0
		c0.7,0,1.2,0.2,1.8,0.7c1.5,1.7,3.4,2.9,5.3,4.3c0.4,0.3,0.7,0.3,1.3,0c1.1-0.7,2.2-1.4,3.2-2.2c3.7-2.8,5.8-6.5,6.5-11
		c0.4-2.6,0.2-5.2,0.1-7.7c0-0.1-0.1-0.1-0.2-0.2c-1.4-0.3-2.9-0.7-4.3-1c-0.4-0.1-0.8-0.1-0.6-0.7c0.4-1.1,0.7-2.2,1-3.3
		c0.6-2.3,0.2-3.8-1.8-4.2c-1.2-0.4-2.5,0-3.8-0.2c0-0.4,0-0.8,0-1.2C62,18.3,61.4,17.5,59.8,16.9z"/>
	<path class="st7" d="M65.8,21.2c2,0.4,2.4,1.8,1.8,4.2c-0.3,1.1-0.6,2.2-1,3.3c-0.2,0.6,0.1,0.6,0.6,0.7c1.5,0.3,2.9,0.6,4.3,1
		c0,2.6,0,5.3,0.1,7.9c-0.7,4.5-2.8,8.2-6.5,11c-1,0.8-2.1,1.5-3.2,2.2c-0.5,0.3-0.8,0.3-1.3,0c-1.8-1.3-3.7-2.6-5.3-4.3
		c-0.5-0.6-1-0.7-1.8-0.7c-7.8,0-15.5,0-23.3,0c-1.3,0-2.5-0.2-3.3-1.5c-0.2-0.4-0.3-0.7-0.3-1.1c0-9.2,0-18.5,0-27.7
		c0-1.4,1-2.5,2.6-2.9c2.8,0,5.6,0.1,8.4-0.1c0.1,0,0.3,0,0.4,0c0.7,0.2,1.5,0.1,2.2,0.1c1,0.7,1.7,1.6,2.5,2.5
		c0.6,0.7,1.2,1.1,2.1,1c0.1,0.2,0.3,0.2,0.4,0c3.9,0,7.7,0,11.6,0c0.9,0.4,1.9,0.1,2.9,0.2c1.6,0.6,2.1,1.3,2.1,2.9
		c0,0.4,0,0.8,0,1.2C63.2,21.5,64.5,21.2,65.8,21.2z M60.6,19.5c-0.3-1.2-1.2-1.3-2.2-1.3c-4.6,0-9.2,0-13.7,0
		c-1.1,0-1.9-0.2-2.6-1.1c-0.7-0.8-1.5-1.6-2.2-2.3c-0.3-0.3-0.8-0.2-1.1-0.2c-2.2,0-4.4,0-6.7,0c-0.9,0-1.7-0.2-2.6,0.2
		c-1.1,0.2-1.4,1-1.4,2c0,4.3,0,8.7,0,13c0,3.3,0,6.5,0,9.8c0.1-0.1,0.2-0.1,0.2-0.1c1.3-5,2.6-9.9,3.9-14.9
		c0.5-1.8,1.6-3.1,3.6-3.4c7.9,0,15.7,0,23.6,0C60.9,21.3,61,21.2,60.6,19.5z M70.2,36.4c0.2-1.5,0.2-2.9,0-4.4
		c-0.1-0.6-0.5-0.6-1-0.7c-2.4-0.5-4.8-1.1-6.9-2.7c-0.7-0.5-1.3-0.5-2,0c-2.2,1.5-4.6,2.4-7.3,2.7c-1.1,0-0.7,0.6-0.5,1.2
		c0,0.6,0,1.3,0,1.9c-0.3,1-0.3,2.1,0,3.1c-0.1,1.7,0.6,3.2,1,4.7c-0.1,0.8,0,1.5,1,1.7c1.6,2.2,3.5,4,5.8,5.5c0.8,0.5,1.3,0.4,2,0
		c1.6-1,3.1-2.2,4.4-3.7c1.9-2.2,3.2-4.6,3.4-7.5c0.2-0.3,0.2-0.6,0.1-1C70.2,37,70.2,36.7,70.2,36.4z M50.7,22.7
		C50.7,22.7,50.7,22.7,50.7,22.7c-4.6,0-9.1,0-13.7,0c-2.1,0-2.9,0.6-3.4,2.7c-1.6,5.9-3.2,11.8-4.8,17.7c-0.4,1.3,0,1.9,1.4,1.9
		c7.4,0,14.7,0,22.1,0c1.1,0,1.2-0.3,0.6-1.1c-1.4-2.2-1.9-4.7-1.8-7.3c0.1-1.7,0.1-3.4,0-5.2c0-1,0.3-1.4,1.2-1.5
		c3.1-0.3,5.8-1.5,8.2-3.2c0.6-0.4,1-0.4,1.6,0c0.7,0.5,1.5,1,2.2,1.4c0.6,0.3,0.9,0.2,1.1-0.5c0.2-1,0.5-2.1,0.8-3.1
		c0.4-1.5,0.1-1.9-1.4-1.9C60.2,22.7,55.4,22.7,50.7,22.7z"/>
	<path class="st8" d="M37.7,13.2c-2.8,0.2-5.6,0.1-8.4,0.1c0.9-0.4,1.9-0.2,2.8-0.2C34,13.1,35.9,12.9,37.7,13.2z"/>
	<path class="st8" d="M71.6,38.3c0-2.6,0-5.3-0.1-7.9c0.1,0.1,0.2,0.1,0.2,0.2C71.8,33.1,72,35.7,71.6,38.3z"/>
	<path class="st8" d="M65.8,21.2c-1.3-0.1-2.6,0.3-3.8-0.2C63.3,21.2,64.6,20.8,65.8,21.2z"/>
	<path class="st9" d="M59.8,16.9c-1-0.1-1.9,0.2-2.9-0.2C57.9,16.8,58.9,16.5,59.8,16.9z"/>
	<path class="st8" d="M40.4,13.3c-0.7,0-1.5,0.1-2.2-0.1C38.9,13.1,39.7,13,40.4,13.3z"/>
	<path class="st9" d="M45.4,16.8c-0.1,0.2-0.3,0.2-0.4,0C45.1,16.8,45.2,16.8,45.4,16.8z"/>
	<path class="st10" d="M50.7,22.7c4.7,0,9.4,0,14.1,0c1.5,0,1.8,0.4,1.4,1.9c-0.3,1-0.6,2.1-0.8,3.1c-0.2,0.7-0.5,0.8-1.1,0.5
		c-0.7-0.5-1.5-0.9-2.2-1.4c-0.6-0.4-1-0.5-1.6,0c-2.5,1.8-5.2,3-8.2,3.2c-0.9,0.1-1.3,0.5-1.2,1.5c0.1,1.7,0.1,3.4,0,5.2
		c-0.1,2.6,0.4,5.1,1.8,7.3c0.5,0.8,0.4,1.1-0.6,1.1c-7.4,0-14.7,0-22.1,0c-1.3,0-1.7-0.6-1.4-1.9c1.6-5.9,3.2-11.8,4.8-17.7
		c0.6-2.1,1.3-2.7,3.4-2.7C41.6,22.7,46.2,22.7,50.7,22.7C50.7,22.7,50.7,22.7,50.7,22.7z"/>
	<path class="st6" d="M52.5,34.5c0-0.6,0-1.3,0-1.9c0.1-0.4-0.1-1,0.5-1.2c2.6-0.3,5.1-1.2,7.3-2.7c0.7-0.5,1.3-0.5,2,0
		c2,1.6,4.4,2.2,6.9,2.7c0.4,0.1,0.9,0.1,1,0.7c-0.2,1.5-0.2,2.9,0,4.4c0,0.3,0,0.6,0,0.9c-0.2,0.3-0.2,0.6-0.1,1
		c-0.2,2.9-1.5,5.4-3.4,7.5c-1.3,1.5-2.8,2.6-4.4,3.7c-0.7,0.4-1.2,0.5-2,0c-2.3-1.5-4.2-3.3-5.8-5.5c-0.3-0.6-0.6-1.2-1-1.7
		c-0.5-1.5-1.2-3-1-4.7C52.6,36.5,52.6,35.5,52.5,34.5z M68,35.6c0.2-0.9-0.2-1.6-1-2c-1-0.5-1.9-0.4-2.7,0.5
		c-1.1,1.2-2.2,2.5-3.2,3.7c-1.1,1.3-1.1,1.3-2.3,0.1c-0.1-0.1-0.2-0.2-0.3-0.3c-0.7-0.6-2.3-0.7-3,0c-1,1-1.2,1.8-0.3,2.9
		c0.9,1.2,1.9,2.3,2.9,3.3c1.1,1.2,2.7,1.2,3.7,0c1.9-2.1,3.8-4.3,5.7-6.5C67.8,36.8,68.1,36.2,68,35.6z"/>
	<path class="st6" d="M39.9,14.8c0.7,0.8,1.5,1.5,2.2,2.3c0.7,0.9,1.5,1.1,2.6,1.1c4.6-0.1,9.2,0,13.7,0c1,0,1.9,0.2,2.2,1.3
		c-0.1,1.5-0.1,1.5-1.7,1.5c-7.3,0-14.5,0-21.8,0c-0.4,0-0.9-0.1-1.3,0.2c-2,0.3-3.1,1.6-3.6,3.4c-1.4,4.9-2.6,9.9-3.9,14.9
		c0,0-0.1,0-0.2,0.1c0-3.3,0-6.6,0-9.8c0-4.3,0-8.7,0-13c0-1,0.3-1.8,1.4-2C33,14.7,36.4,14.8,39.9,14.8z"/>
	<path class="st8" d="M35.8,21.2c0.4-0.3,0.9-0.2,1.3-0.2c7.3,0,14.5,0,21.8,0c1.6,0,1.6,0,1.7-1.5c0.4,1.6,0.4,1.8-1.2,1.8
		C51.5,21.3,43.7,21.2,35.8,21.2z"/>
	<path class="st8" d="M39.9,14.8c-3.5,0-6.9,0-10.4,0c0.8-0.3,1.7-0.1,2.6-0.2c2.2,0,4.4,0,6.7,0C39.1,14.6,39.6,14.4,39.9,14.8z"/>
	<path class="st8" d="M70.2,36.4c-0.2-1.5-0.2-2.9,0-4.4C70.4,33.5,70.4,34.9,70.2,36.4z"/>
	<path class="st9" d="M53.6,42.3c0.3,0.6,0.6,1.2,1,1.7C53.6,43.8,53.5,43.1,53.6,42.3z"/>
	<path class="st11" d="M52.5,34.5c0,1,0,2.1,0,3.1C52.3,36.5,52.3,35.5,52.5,34.5z"/>
	<path class="st11" d="M53.1,31.4c-0.6,0.2-0.4,0.8-0.5,1.2C52.4,32,52,31.3,53.1,31.4z"/>
	<path class="st8" d="M70.1,38.3c-0.1-0.3-0.1-0.7,0.1-1C70.3,37.7,70.4,38,70.1,38.3z"/>
	<path class="st7" d="M68,35.6c0.2,0.7-0.1,1.2-0.6,1.7c-1.9,2.1-3.8,4.3-5.7,6.5c-1.1,1.2-2.6,1.2-3.7,0c-1-1.1-2-2.2-2.9-3.3
		c-0.9-1.1-0.7-1.9,0.3-2.9c0.7-0.7,2.4-0.5,3,0c0.1,0.1,0.2,0.2,0.3,0.3c1.1,1.2,1.1,1.2,2.3-0.1c1.1-1.2,2.1-2.5,3.2-3.7
		c0.8-0.8,1.7-0.9,2.7-0.5C67.7,34,68.1,34.6,68,35.6z M66.7,35.7c-0.1-0.4-0.2-0.7-0.5-0.8c-0.5-0.2-0.8,0.1-1,0.4
		c-1.2,1.4-2.5,2.8-3.7,4.2c-1.7,2-1.8,2.1-3.5-0.3c-0.4-0.5-0.8-1.1-1.4-0.6c-0.6,0.5-0.3,1.1,0.2,1.6c0.8,0.9,1.6,1.8,2.4,2.7
		c0.7,0.8,1.1,0.6,1.7-0.1c1.5-1.6,2.8-3.4,4.3-4.9C65.7,37.1,66.3,36.5,66.7,35.7z"/>
	<path class="st10" d="M66.7,35.7c-0.3,0.8-1,1.5-1.6,2.1c-1.6,1.5-2.9,3.3-4.3,4.9c-0.6,0.7-1.1,0.9-1.7,0.1
		c-0.8-0.9-1.6-1.8-2.4-2.7c-0.4-0.5-0.8-1.1-0.2-1.6c0.6-0.5,1.1,0.1,1.4,0.6c1.8,2.5,1.8,2.3,3.5,0.3c1.2-1.4,2.5-2.8,3.7-4.2
		c0.3-0.3,0.6-0.6,1-0.4C66.5,35,66.6,35.3,66.7,35.7z"/>
</g>
<g id="Layer_3" class="st0">
	<path class="st6" d="M32.5,40.1c0,1.8,0,3.5,0,5.3c-1.6,1.3-3,2.8-4.4,4.3c-1,1-1.4,2.2-1,3.6c0.4,1.6,1.7,1.5,3,1.5
		c13.2,0,26.4,0,39.6,0c1.7,0,2.4-0.7,2.4-2.4c0-1.2-0.5-2.1-1.3-2.9c-1.1-1.1-2.3-2.2-3.5-3.3c-0.5-0.4-0.7-0.9-0.7-1.5
		c0.1-3.4,0.1-6.9,0.1-10.3c0.1-0.3,0.1-0.5,0.1-0.8c0-3,0-6.1,0-9.1c0-0.3,0.1-0.6-0.2-0.9c-0.2-1-0.7-1.6-1.7-1.9
		c-0.2-0.1-0.5-0.3-0.7-0.2c-0.2,0-0.3,0-0.5,0c-0.8-0.1-1.6-0.1-2.4,0c-0.2,0-0.3,0-0.5,0c-0.3-0.1-0.6-0.1-1,0
		c-0.2,0-0.5,0-0.5-0.3c0-0.1,0-0.1,0-0.2c0-2,0-4,0-6c0-0.3,0.1-0.5-0.2-0.7c-1.6-1-3.1-2.1-3.9-3.9c-0.2-0.4-0.6-0.4-1-0.4
		c-3.1,0-6.2,0-9.3,0c-0.4,0-0.8,0-0.9,0.4c-0.8,1.8-2.4,2.9-4,4c-0.3,0.4-0.2,0.8-0.2,1.2c0,2,0,4,0,5.9c-0.2,0-0.3,0-0.5,0.1
		c-0.2,0-0.3,0-0.5,0c-0.2,0-0.3,0-0.5,0c-1.3,0-2.6-0.3-3.8,0.2c-0.8,0.3-1.4,0.9-1.7,1.7c-0.1,0.2-0.2,0.4-0.2,0.6
		C32.5,29.3,32.5,34.7,32.5,40.1z"/>
	<path class="st7" d="M38.2,21.5c0.2,0,0.3,0,0.5,0c0.2,0.2,0.3,0.2,0.5,0c0.2,0,0.3,0,0.5-0.1c0.4-0.3,0.2-0.7,0.2-1.1
		c0-2,0-4,0-6.1c1.6-1.1,3.2-2.2,4-4c0.2-0.4,0.6-0.4,0.9-0.4c3.1,0,6.2,0,9.3,0c0.4,0,0.8,0,1,0.4c0.8,1.8,2.3,2.9,3.9,3.9
		c0,0.3,0,0.5,0.2,0.7c0,2,0,4,0,6c0,0-0.1,0-0.1,0.1c0,0.1,0,0.1,0.1,0.1c0.1,0.3,0.3,0.3,0.5,0.3c0.3,0.2,0.6,0.2,1,0
		c0.2,0,0.3,0,0.5,0c0.8,0.3,1.6,0.3,2.4,0c0.2,0,0.3,0,0.5,0c0.2,0.2,0.5,0.2,0.7,0.2c1,0.3,1.5,0.9,1.7,1.9c0,3.6,0,7.2,0,10.8
		c0,3.4,0,6.9-0.1,10.3c0,0.7,0.2,1.1,0.7,1.5c1.2,1.1,2.4,2.2,3.5,3.3c0.8,0.8,1.4,1.7,1.3,2.9c0,1.8-0.7,2.4-2.4,2.4
		c-13.2,0-26.4,0-39.6,0c-1.3,0-2.5,0.1-3-1.5c-0.4-1.4,0-2.6,1-3.6c1.5-1.4,2.9-2.9,4.4-4.3c0.4-1.8,0.2-3.5,0.2-5.3
		c0-5.6,0-11.2,0-16.7c0.3-0.8,0.8-1.4,1.7-1.7C35.6,21.5,36.9,21.8,38.2,21.5z M37.2,26c-0.2,0-0.2,0.1-0.1,0.2c0,0.2,0,0.3,0,0.5
		c-0.1,1.9-0.1,3.8,0,5.8c0,3,0,6,0,9c0,0.3-0.1,0.7,0.2,0.9c0.3,0.3,0.7,0.2,1,0.2c7.3,0,14.6,0,21.9,0c0.4,0,0.7,0.1,1-0.2
		c0.2,0,0.5,0,0.7-0.1c0.6-1.3,0.2-2.7,0.2-4.1c0-1.9,0-3.8-0.1-5.8c0-0.6,0-1.3,0-1.9c0.1-0.7,0.1-1.3,0-2c0-0.6,0-1.1,0-1.7
		c0-0.3,0-0.7,0-1c-1.3-0.4-2.5-0.3-3.8,0c-1.7,3.7-4.4,6.4-7.8,8.5c-0.6,0.4-1.1,0.6-1.9,0.1c-3.5-2.2-6.3-4.9-8.1-8.6
		C39.5,25.6,38.3,25.6,37.2,26L37.2,26z M34.1,24.8c-0.1,0.1-0.1,0.3-0.1,0.4c0,5.2,0,10.4,0,15.5c0,1.2,0,2.4,0,3.6
		c0,0.7,0.1,1,0.9,1c9.8,0,19.6,0,29.4,0c0.8,0,1-0.4,0.9-1c-0.3-1.6-0.1-3.2,0-4.8c0.1-5.2,0.1-10.3,0.1-15.5
		c0-0.7-0.4-1.2-1.1-1.2c-1.5-0.1-3,0-4.4,0c-0.7,0-0.7,0.6-0.7,1c-0.1,0.6,0.4,0.6,0.8,0.6c1,0,1.9,0,2.9,0c0.7,0,1.1,0.3,1.1,1.1
		c0,0.4,0,0.7,0,1.1c-0.1,0.1-0.1,0.3-0.1,0.4c0,5,0,9.9,0,14.9c0,0.4,0,0.8,0,1.2c0,0.1,0,0.1,0,0.2c-0.4,0.4-0.9,0.3-1.4,0.3
		c-1.8,0-3.6,0-5.4,0c-6.6,0-13.1,0-19.7,0c-0.8,0-1.4,0-1.4-1.1c0-5.7,0.1-11.3,0.1-17c0-0.9,0.4-1.1,1.2-1.1c0.8,0,1.6,0,2.4,0
		c0.4,0,1,0.2,0.9-0.6c0-0.6-0.1-1.1-1-1.1c-1.2,0-2.5,0-3.7,0C34.2,22.9,33.8,23.6,34.1,24.8z M45.9,11.3c-0.3-0.2-0.6-0.3-0.9,0
		C44,12.8,42.8,14,41.3,15c-0.4,2.4-0.3,4.8,0,7.2c0.1,0.9,0.2,1.8,0.5,2.7c1.4,3.7,4.1,6.2,7.3,8.3c0.3,0.2,0.5,0.1,0.7,0
		c3.3-2.1,6.1-4.6,7.4-8.5c0.9-3,0.6-6,0.7-9.1c0-0.4-0.2-0.6-0.5-0.8c-1.4-0.9-2.5-2.1-3.4-3.5c-0.1-0.2-0.3-0.2-0.4,0
		C51,11.3,48.4,11.3,45.9,11.3z M49.5,53.3c6.5,0,13,0,19.5,0c0.4,0,1.1,0.3,1.3-0.3c0.2-0.7,0.4-1.6-0.3-2.2
		c-1.2-1.1-2.3-2.2-3.4-3.4c-0.5-0.5-0.9-0.6-1.6-0.6c-9.5,0-18.9,0.1-28.4,0c-2.3,0-4.1,0.3-5.6,2.1c-0.6,0.8-1.5,1.4-2.2,2.2
		c-0.5,0.5-0.6,1.2-0.3,1.8c0.2,0.6,0.9,0.4,1.4,0.4C36.4,53.3,42.9,53.3,49.5,53.3z"/>
	<path class="st8" d="M32.7,23.3c0,5.6,0,11.2,0,16.7c0,0-0.1,0-0.2,0c0-5.4,0-10.8,0-16.2C32.5,23.7,32.6,23.5,32.7,23.3z"/>
	<path class="st8" d="M66.6,34.4c0-3.6,0-7.2,0-10.8c0.2,0.3,0.2,0.6,0.2,0.9c0,3,0,6.1,0,9.1C66.7,33.8,66.6,34.1,66.6,34.4z"/>
	<path class="st11" d="M39.9,14.2c0,2,0,4,0,6.1c0,0.4,0.2,0.8-0.2,1.1c0-2,0-4,0-5.9C39.7,15,39.5,14.6,39.9,14.2z"/>
	<path class="st11" d="M32.5,40.1c0.1,0,0.1,0,0.2,0c0,1.8,0.2,3.6-0.2,5.3C32.5,43.6,32.5,41.9,32.5,40.1z"/>
	<path class="st11" d="M38.2,21.5c-1.3,0.4-2.6,0.1-3.8,0.2C35.6,21.2,36.9,21.4,38.2,21.5z"/>
	<path class="st11" d="M63.6,21.5c-0.8,0.3-1.6,0.3-2.4,0C62,21.3,62.8,21.4,63.6,21.5z"/>
	<path class="st11" d="M60.8,21.5c-0.3,0.2-0.6,0.2-1,0C60.1,21.4,60.4,21.4,60.8,21.5z"/>
	<path class="st11" d="M64.9,21.6c-0.3,0.1-0.5,0.1-0.7-0.2C64.4,21.4,64.6,21.5,64.9,21.6z"/>
	<path class="st9" d="M59.3,14.9c-0.2-0.2-0.2-0.5-0.2-0.7C59.4,14.4,59.3,14.6,59.3,14.9z"/>
	<path class="st11" d="M39.2,21.5c-0.2,0.2-0.3,0.2-0.5,0C38.8,21.5,39,21.5,39.2,21.5z"/>
	<path class="st9" d="M59.3,21.1c0,0-0.1-0.1-0.1-0.1c0,0,0,0,0.1-0.1C59.3,21,59.3,21.1,59.3,21.1z"/>
	<path class="st6" d="M37.2,42.3c-0.4-0.2-0.2-0.6-0.2-0.9c0-3,0-6,0-9c0.3-1.9,0.2-3.8,0-5.8c0-0.2,0-0.3,0-0.5
		c0-0.1,0.1-0.2,0.1-0.2c0,0,0-0.1,0-0.1c1.1,0,2.2,0,3.4,0c1.8,3.7,4.6,6.5,8.1,8.6c0.7,0.4,1.2,0.2,1.9-0.1
		c3.4-2.1,6.1-4.8,7.8-8.5c1.2,0,2.4,0,3.6,0.1c0.1,0.3-0.1,0.7,0.2,1c0,0.6,0,1.1,0,1.7c-0.2,0.6-0.2,1.3,0,2c0,0.6,0,1.3,0,1.9
		c-0.3,1.9-0.2,3.9-0.1,5.8c0,1.3,0,2.7-0.1,4c-0.2,0-0.5,0-0.7,0.1c-4.2,0-8.4,0-12.5,0C44.9,42.3,41.1,42.3,37.2,42.3z"/>
	<path class="st6" d="M41.3,15c1.5-0.9,2.7-2.1,3.6-3.7c0.3,0,0.6,0,0.9,0c2.6,0,5.1,0,7.7,0c0.1,0,0.3,0,0.4,0
		c0.9,1.3,2,2.6,3.4,3.5c0.3,0.2,0.5,0.4,0.5,0.8c-0.1,3,0.2,6.1-0.7,9.1c-1.2,3.9-4.1,6.4-7.4,8.5c-0.2,0.1-0.4,0.2-0.7,0
		c-3.2-2.1-5.9-4.6-7.3-8.3c-0.3-0.9-0.5-1.7-0.5-2.7C41.3,19.8,41.3,17.4,41.3,15z M42.7,21.6c-0.1,0.6,0.2,1,0.5,1.4
		c1,1.2,2.1,2.3,3.1,3.5c1.1,1.2,2.7,0.7,3.5-0.2c1.9-2.2,3.9-4.4,5.8-6.7c0.9-1.1,0.8-2.5-0.1-3.3c-1-0.8-2.3-0.7-3.3,0.4
		c-0.9,1-1.8,2.1-2.8,3.1c-0.4,0.5-0.8,1.3-1.4,1.4c-0.6,0.1-0.9-0.8-1.4-1.2c-0.1-0.1-0.2-0.2-0.4-0.3c-0.7-0.4-1.5-0.5-2.3-0.1
		C43.3,20.1,42.8,20.7,42.7,21.6z"/>
	<path class="st10" d="M49.5,53.3c-6.6,0-13.1,0-19.7,0c-0.5,0-1.1,0.2-1.4-0.4c-0.2-0.6-0.1-1.3,0.3-1.8c0.7-0.8,1.5-1.4,2.2-2.2
		c1.5-1.8,3.3-2.2,5.6-2.1c9.5,0.1,18.9,0.1,28.4,0c0.7,0,1.1,0.2,1.6,0.6c1.1,1.1,2.3,2.3,3.4,3.4c0.7,0.7,0.5,1.5,0.3,2.2
		c-0.1,0.6-0.8,0.3-1.3,0.3C62.5,53.3,56,53.3,49.5,53.3z M32,51.9c0.4,0.4,0.8,0.2,1.3,0.2c10.9,0,21.7,0,32.6,0
		c0.4,0,0.8,0.1,1.1-0.2c0.4-0.2,0.6-0.5,0.5-1c-0.1-0.4-0.5-0.5-0.9-0.5c-0.2,0-0.4,0-0.6,0c-11,0-22,0-32.9,0c-0.2,0-0.4,0-0.6,0
		c-0.4,0-0.7,0-0.9,0.5C31.4,51.4,31.6,51.7,32,51.9z"/>
	<path class="st10" d="M63.4,43.2c0-0.4,0-0.8,0-1.2c0.1-0.2,0.2-0.4,0.2-0.6c0-4.9,0-9.8,0-14.8c0-0.4,0-0.7,0-1.1
		c0.1-0.8-0.3-1.1-1.1-1.1c-1,0-1.9,0-2.9,0c-0.4,0-0.9,0-0.8-0.6c0.1-0.4,0.1-1,0.7-1c1.5,0,3-0.1,4.4,0c0.6,0,1.1,0.5,1.1,1.2
		c0,5.2,0.1,10.3-0.1,15.5c0,1.6-0.2,3.2,0,4.8c0.1,0.7,0,1-0.9,1c-9.8,0-19.6,0-29.4,0c-0.8,0-0.9-0.3-0.9-1c0-1.2,0-2.4,0-3.6
		c0-0.1,0.1-0.3,0.1-0.4c0-5.2,0-10.4,0-15.5c-0.3-1.2,0.2-1.9,1.3-1.9c1.2,0,2.5,0,3.7,0c0.8,0,0.9,0.5,1,1.1
		c0.1,0.7-0.5,0.6-0.9,0.6c-0.8,0-1.6,0-2.4,0c-0.8,0-1.2,0.3-1.2,1.1c0,5.7,0,11.3-0.1,17c0,1.1,0.7,1.1,1.4,1.1
		c6.6,0,13.1,0,19.7,0c1.8,0,3.6,0,5.4,0c0.5,0,1,0.1,1.4-0.3c0,0,0.1,0,0.1,0C63.5,43.3,63.4,43.3,63.4,43.2z"/>
	<path class="st9" d="M37.2,42.3c3.8,0,7.6-0.1,11.5-0.1c4.2,0,8.4,0,12.5,0c-0.3,0.3-0.7,0.2-1,0.2c-7.3,0-14.6,0-21.9,0
		C37.9,42.5,37.6,42.6,37.2,42.3z"/>
	<path class="st11" d="M34.1,24.8c0,5.2,0,10.4,0,15.5c0,0.1-0.1,0.3-0.1,0.4c0-5.2,0-10.4,0-15.5C33.9,25.1,34,24.9,34.1,24.8z"/>
	<path class="st11" d="M63.6,26.7c0,4.9,0,9.8,0,14.8c0,0.2-0.1,0.4-0.2,0.6c0-5,0-9.9,0-14.9C63.4,27,63.5,26.8,63.6,26.7z"/>
	<path class="st8" d="M41.3,15c0,2.4,0,4.8,0,7.2C41,19.8,40.9,17.4,41.3,15z"/>
	<path class="st8" d="M62,38.2c0-1.9-0.2-3.9,0.1-5.8c0,1.9,0,3.8,0.1,5.8C62.1,38.2,62.1,38.2,62,38.2z"/>
	<path class="st8" d="M37.1,26.7c0.2,1.9,0.2,3.8,0,5.8C37,30.5,36.9,28.6,37.1,26.7z"/>
	<path class="st11" d="M62,38.2c0.1,0,0.1,0,0.2-0.1c-0.1,1.4,0.3,2.7-0.2,4.1C62,40.9,62,39.6,62,38.2z"/>
	<path class="st9" d="M62,26c-1.2,0-2.4,0-3.6-0.1c1.3-0.3,2.6-0.4,3.8,0C62.1,25.9,62,25.9,62,26z"/>
	<path class="st9" d="M40.6,25.9c-1.1,0-2.2,0-3.4,0C38.3,25.6,39.5,25.6,40.6,25.9z"/>
	<path class="st8" d="M62.1,30.5c-0.2-0.7-0.2-1.3,0-2C62.2,29.2,62.2,29.9,62.1,30.5z"/>
	<path class="st9" d="M45.9,11.3c-0.3,0-0.6,0-0.9,0C45.2,11,45.5,11,45.9,11.3z"/>
	<path class="st8" d="M62,26c0.1,0,0.1,0,0.2,0c0,0.3,0,0.6,0,1C61.9,26.6,62,26.3,62,26z"/>
	<path class="st9" d="M54,11.3c-0.1,0-0.3,0-0.4,0C53.7,11.1,53.9,11.1,54,11.3z"/>
	<path class="st8" d="M37.2,26c0,0.1-0.1,0.2-0.1,0.2C37,26.1,37.1,26,37.2,26z"/>
	<path class="st11" d="M63.4,43.2c0,0,0,0.1,0,0.1c0,0-0.1,0-0.1,0C63.4,43.3,63.4,43.3,63.4,43.2z"/>
	<path class="st7" d="M42.7,21.6c0-0.9,0.5-1.5,1.2-1.9c0.8-0.4,1.5-0.3,2.3,0.1c0.1,0.1,0.2,0.2,0.4,0.3c0.5,0.4,0.8,1.4,1.4,1.2
		c0.5-0.1,0.9-0.9,1.4-1.4c0.9-1,1.8-2.1,2.8-3.1c1-1.1,2.3-1.2,3.3-0.4c0.9,0.8,1,2.2,0.1,3.3c-1.9,2.2-3.9,4.5-5.8,6.7
		c-0.8,0.9-2.4,1.4-3.5,0.2c-1-1.2-2.1-2.3-3.1-3.5C42.9,22.6,42.7,22.2,42.7,21.6z M54.8,18.1c0-0.3-0.1-0.6-0.4-0.7
		c-0.5-0.2-0.8,0-1.2,0.4c-1.5,1.7-3,3.3-4.4,5c-0.6,0.7-1,0.8-1.6,0.1c-0.5-0.5-0.9-1.1-1.4-1.6c-0.3-0.3-0.7-0.6-1.2-0.2
		c-0.4,0.4-0.4,0.8,0,1.3c0.8,0.9,1.6,1.9,2.4,2.8c0.7,0.8,1.3,0.8,2,0c1.7-2,3.5-4,5.3-6C54.5,18.8,54.7,18.5,54.8,18.1z"/>
	<path class="st7" d="M32,51.9c-0.4-0.2-0.6-0.5-0.5-1c0.2-0.4,0.5-0.5,0.9-0.5c0.2,0,0.4,0,0.6,0c11,0,22,0,32.9,0
		c0.2,0,0.4,0,0.6,0c0.4,0,0.7,0.1,0.9,0.5c0.2,0.5-0.1,0.8-0.5,1C55.3,51.9,43.6,51.9,32,51.9z"/>
	<path class="st11" d="M32,51.9c11.7,0,23.3,0,35,0c-0.3,0.3-0.8,0.2-1.1,0.2c-10.9,0-21.7,0-32.6,0C32.8,52.1,32.4,52.2,32,51.9z"
		/>
	<path class="st10" d="M54.8,18.1c0,0.4-0.3,0.7-0.5,1c-1.8,2-3.5,4-5.3,6c-0.7,0.8-1.3,0.8-2,0c-0.8-0.9-1.6-1.9-2.4-2.8
		c-0.4-0.4-0.5-0.9,0-1.3c0.4-0.4,0.8-0.2,1.2,0.2c0.5,0.5,1,1,1.4,1.6c0.6,0.7,1.1,0.6,1.6-0.1c1.5-1.7,3-3.3,4.4-5
		c0.3-0.3,0.7-0.6,1.2-0.4C54.6,17.5,54.8,17.8,54.8,18.1z"/>
</g>
<g id="Layer_4" class="st0">
</g>
<g id="Layer_5">
	<path class="st12" d="M44.1,28.3l12.4-6.7c0.2-0.1,0.6-0.1,0.9,0l17.5,3.6c0.3,0.1,0.5,0.2,0.3,0.3l-12.4,6.7
		c-0.2,0.1-0.6,0.1-0.9,0l-17.5-3.6C44,28.5,43.9,28.3,44.1,28.3z"/>
	<path class="st13" d="M31.6,23.6L44,8.8c0.2-0.2,0.6-0.2,0.9-0.1l17.5,8c0.3,0.2,0.5,0.4,0.3,0.6L50.4,32.2
		c-0.2,0.2-0.6,0.2-0.9,0.1l-17.5-8C31.6,24.1,31.4,23.8,31.6,23.6z"/>
	<path class="st14" d="M45.3,42L21.6,29.5c-0.3-0.2-0.5-0.7-0.4-1.1l5.3-23.2c0.1-0.4,0.4-0.7,0.7-0.5L51,17.3
		c0.3,0.2,0.5,0.7,0.4,1.1L46,41.5C45.9,42,45.6,42.2,45.3,42z"/>
	<path class="st15" d="M45.1,61L10.7,44.8c-0.4-0.2-0.8-0.8-0.8-1.4V13.5c0-0.6,0.4-0.9,0.8-0.7L45.1,29c0.4,0.2,0.8,0.8,0.8,1.4
		v29.9C45.9,60.9,45.5,61.2,45.1,61z"/>
	<g>
		<path class="st16" d="M54.6,63.7l-32.2-5.1c-0.4-0.1-0.8-0.5-0.9-1l-3.4-25.2c-0.1-0.5,0.2-0.8,0.6-0.8l32.2,5.1
			c0.4,0.1,0.8,0.5,0.9,1L55.2,63C55.3,63.4,55,63.8,54.6,63.7z"/>
	</g>
	<g>
		<path class="st17" d="M63.3,64.2L36.3,67c-0.4,0-0.7-0.2-0.9-0.6l-7-17.9c-0.1-0.3,0-0.7,0.4-0.7L55.8,45c0.4,0,0.7,0.2,0.9,0.6
			l7,17.9C63.9,63.9,63.7,64.2,63.3,64.2z"/>
	</g>
</g>
<g id="Layer_6" class="st0">
	<path class="st6" d="M27,50.4c0.2,0.5,0.2,1.2,1,1.1c1,0.4,2,0.2,3,0.3c0.8,0,1.2,0.1,0.9,1.1c-0.4,1.1,0.2,2,1.1,2
		c2,0,3.9,0,5.9,0c0.7,0,1.2-0.4,1.2-1.2c0-0.6,0-1.3,0.1-1.9c0.1,0,0.3-0.1,0.4-0.1c0.2,0,0.3,0,0.5,0c0.4,0.2,0.9,0.1,1.3,0.1
		c4.2,0,8.4,0,12.6,0c1.1,0,2.2,0.1,3.2-0.1c0.4,0.3,0.2,0.8,0.2,1.2c0,1.5,0.5,2,2.1,2c1,0,1.9,0,2.9,0c3.3,0,3.3,0,3.5-3.1
		c1.2-0.1,2.4,0.2,3.5-0.2c0.9-0.2,1.4-0.8,1.5-1.7c0.1-0.1,0.1-0.3,0.1-0.4c0-3.3,0-6.6,0-9.9c0-0.2-0.1-0.4-0.2-0.5
		c-0.3-1.2-1.1-1.7-2.4-1.7c-0.8,0-1.7,0-2.5,0c-0.7,0-0.8-0.5-0.6-0.8c0.5-0.7,0.3-1.4,0.5-2.1c0.8-3.3,1.4-6.6,2.3-9.9
		c1-3.8,1.6-7.6,2.6-11.4c0.2-0.7,0.2-1.5-0.1-2.1c-0.3-0.7-0.9-1.1-1.7-1c-1.1,0-1.6,0.8-2,1.7c-0.4,1-0.6,2-0.9,3
		c-1.4,3.9-2.4,7.9-3.7,11.9c-1,3.2-2,6.4-2.9,9.6c-0.2,0.8-0.6,1.3-1.6,1.2c-6.3-0.1-12.6-0.1-18.8,0c-1.1,0-1.6-0.3-1.8-1.3
		c-0.9-3.6-2.1-7.2-3.2-10.8c-1.4-4.5-2.8-9.1-4.2-13.6c-0.4-1.1-1.4-1.9-2.5-1.7c-1.2,0.2-1.4,1.1-1.4,2.2c0,0.7,0.1,1.4,0.3,2.1
		c1,4,1.8,8,2.7,12c0.7,2.9,1.4,5.7,2.1,8.6c0.2,0.8,0.7,1.9,0.4,2.3c-0.5,0.6-1.6,0.2-2.5,0.2c-0.3,0-0.6,0-1,0
		c-0.8,0-1.5,0.3-1.8,1.2c-0.3,0.3-0.3,0.7-0.3,1c0,3.3,0,6.5,0,9.8C26.8,49.7,26.7,50.1,27,50.4L27,50.4z"/>
	<path class="st6" d="M59.5,22.2c0.4-2.3,0.2-4.6,0.1-7c0-0.2,0-0.3,0-0.5c0.1-0.2,0.2-0.3,0-0.5c-0.2-0.5-0.7-0.7-1.1-0.7
		c-2.2-0.1-4.4-0.7-6.2-2c-2.1-1.5-3.8-1.9-6,0c-1.6,1.4-3.9,1.6-6,2C39.4,13.7,39,14,39,15c0.1,2.4,0.1,4.9,0.1,7.3
		c0,1,0.3,1.9,0.6,2.8c1.7,4.4,4.9,7.4,8.8,9.7c0.5,0.3,1,0.4,1.5,0C55,32,58.6,28.1,59.5,22.2z"/>
	<path class="st7" d="M41,51.6c-0.2,0-0.3,0-0.5,0c-0.2-0.1-0.3-0.1-0.4,0.1c0,0.6-0.1,1.3-0.1,1.9c0,0.8-0.4,1.2-1.2,1.2
		c-2,0-3.9,0-5.9,0c-0.9,0-1.5-0.9-1.1-2c0.4-1-0.1-1.1-0.9-1.1c-1,0-2.1,0.2-3-0.3c-0.1-0.6-0.4-1-1-1.1c0,0,0,0,0,0
		c0-3.9,0-7.9,0-11.8c0.3-0.8,0.9-1.1,1.8-1.2c0.3,0,0.6,0,1,0c0.9-0.1,2,0.4,2.5-0.2c0.3-0.4-0.2-1.5-0.4-2.3
		c-0.6-2.9-1.4-5.7-2.1-8.6c-0.9-4-1.7-8-2.7-12c-0.2-0.7-0.3-1.4-0.3-2.1c0-1,0.2-1.9,1.4-2.2c1-0.2,2.1,0.6,2.5,1.7
		c1.5,4.5,2.8,9.1,4.2,13.6c1.1,3.6,2.3,7.1,3.2,10.8c0.3,1,0.8,1.3,1.8,1.3c6.3-0.1,12.6-0.1,18.8,0c1,0,1.4-0.4,1.6-1.2
		c1-3.2,1.9-6.4,2.9-9.6c1.2-4,2.2-8,3.7-11.9c0.4-1,0.6-2,0.9-3c0.3-0.8,0.9-1.6,2-1.7c0.8,0,1.4,0.4,1.7,1
		c0.3,0.7,0.3,1.4,0.1,2.1c-1,3.8-1.6,7.6-2.6,11.4c-0.8,3.3-1.5,6.6-2.3,9.9c-0.2,0.7,0,1.5-0.5,2.1c-0.3,0.3-0.1,0.8,0.6,0.8
		c0.8-0.1,1.7,0,2.5,0c1.3-0.1,2.1,0.5,2.4,1.7c0,3.6,0,7.2,0,10.8c-0.1,0.9-0.6,1.5-1.5,1.7c-1.2,0.1-2.4-0.3-3.5,0.2
		c-0.3,3.1-0.3,3.1-3.5,3.1c-1,0-1.9,0-2.9,0c-1.6,0-2-0.5-2.1-2c0-0.4,0.2-0.9-0.2-1.2c-2.7-0.2-5.4-0.1-8.1-0.1
		C47,51.5,44,51.4,41,51.6z M59.9,51.7c-0.2,0.1-0.2,0.3-0.1,0.5c0,0.2,0,0.4,0,0.5c0,0.3-0.1,0.5,0.2,0.7c1.5,0,2.9,0,4.4,0
		c0.4,0,0.9,0,0.8-0.6c0-0.5,0.3-1.2-0.7-1.2C63,51.4,61.5,51.4,59.9,51.7L59.9,51.7z M33.8,51.7c-0.3,0-0.4,0.3-0.4,0.6
		c0,0.2,0,0.4,0,0.7c0,0.6,0.5,0.5,0.8,0.5c1.1,0,2.3-0.1,3.4,0c1,0.1,1.4-0.3,1.2-1.3c0-0.4,0-0.7-0.5-0.7
		C36.8,51.6,35.3,51.3,33.8,51.7z M28.8,50.1c0.2,0.2,0.5,0.2,0.7,0c0.2,0,0.3,0,0.5,0c0.3,0.2,0.7,0.1,1,0.1c8.3,0,16.5,0,24.8,0
		c0.4,0,0.7,0.1,1-0.1c0.2,0,0.3,0,0.5,0c0.1,0,0.1,0.1,0.2,0.1c4,0,8,0,11.9,0c0.1,0,0.2-0.1,0.3-0.1c0.2,0,0.4-0.1,0.5-0.3
		c0.4-1.3,0.2-2.7,0.2-4c0-2,0.2-4-0.1-6.1c0.1-0.8-0.4-1-1.1-1c-13.3,0-26.6,0-39.8,0c-0.8,0-1.1,0.3-1.1,1.1c0,3.1,0,6.2,0,9.2
		C28.3,49.5,28.3,49.9,28.8,50.1z M63.4,37.3c1.1,0.4,1.4-0.4,1.7-1.5c1.5-6.5,3-13.1,4.5-19.6c0.3-1.2,0.6-2.5,0.8-3.7
		c0.1-0.3,0.2-0.9-0.3-1c-0.5-0.1-0.6,0.4-0.7,0.8c-1.5,4.4-2.8,8.8-4.2,13.2C64,28.9,63,32.3,62,35.8
		C61.6,37.4,61.5,37.3,63.4,37.3z M35.2,37.3c1.9,0,1.9,0,1.4-1.7c-0.3-1-0.6-1.9-0.9-2.9c-0.9-2.8-1.8-5.5-2.6-8.3
		c-0.5-1.7-1.2-3.4-1.6-5.1c-0.6-2.3-1.4-4.7-2.1-7c-0.1-0.4-0.2-1.1-0.8-0.9c-0.6,0.2-0.3,0.8-0.3,1.3c0,0.1,0,0.2,0.1,0.2
		c1.7,7.7,3.5,15.3,5.2,23C33.8,37,34.1,37.7,35.2,37.3z"/>
	<path class="st7" d="M59.6,14.8c0,0.2,0,0.3,0,0.5c-0.2,2.3-0.1,4.6-0.1,7C58.6,28.1,55,32,50,34.9c-0.6,0.3-1,0.3-1.5,0
		c-3.9-2.4-7.1-5.4-8.8-9.7c-0.3-0.9-0.6-1.8-0.6-2.8c0-2.4,0-4.9-0.1-7.3c0-1,0.4-1.2,1.2-1.4c2.1-0.4,4.4-0.6,6-2
		c2.2-1.8,3.9-1.5,6,0c1.8,1.3,4,1.9,6.2,2c0.5,0,0.9,0.2,1.1,0.7C59.6,14.5,59.6,14.6,59.6,14.8z M58.1,20.1c0.1-1.7,0.3-3.3-0.1-5
		c-3-0.4-5.8-1.5-8.3-3.2c-0.4-0.3-0.7-0.1-1.1,0.1c-1.5,1-3,1.7-4.7,2.3c-1.2,0.4-2.5,0.3-3.6,1c-0.2,1.9-0.3,3.9,0,5.8
		c-0.2,1.5,0.3,3,0.9,4.3c1.2,2.8,3.2,5,5.7,6.7c2.8,1.9,1.8,2,4.5,0c3.6-2.6,6.3-5.9,6.5-10.6c0.1-0.2,0.2-0.3,0.1-0.5
		C58.1,20.7,58.1,20.4,58.1,20.1z"/>
	<path class="st8" d="M41,51.6c3-0.2,6-0.1,9-0.1c2.7,0,5.4-0.2,8.1,0.1c-1.1,0.2-2.1,0.1-3.2,0.1c-4.2,0-8.4,0-12.6,0
		C41.9,51.7,41.4,51.8,41,51.6z"/>
	<path class="st9" d="M27.1,38.5c0,3.9,0,7.9,0,11.8c-0.3-0.3-0.2-0.7-0.2-1c0-3.3,0-6.5,0-9.8C26.8,39.2,26.8,38.8,27.1,38.5z"/>
	<path class="st8" d="M71.8,49.8c0-3.6,0-7.2,0-10.8c0.1,0.2,0.2,0.4,0.2,0.5c0,3.3,0,6.6,0,9.9C71.9,49.5,71.8,49.7,71.8,49.8z"/>
	<path class="st8" d="M59.5,22.2c0-2.3-0.1-4.6,0.1-7C59.7,17.6,59.9,19.9,59.5,22.2z"/>
	<path class="st8" d="M66.7,51.7c1.2-0.5,2.4-0.1,3.5-0.2C69.1,52,67.9,51.7,66.7,51.7z"/>
	<path class="st9" d="M27,50.4c0.7,0.1,1,0.5,1,1.1C27.3,51.5,27.2,50.8,27,50.4z"/>
	<path class="st8" d="M59.6,14.8c0-0.2,0-0.3,0-0.5C59.8,14.5,59.8,14.6,59.6,14.8z"/>
	<path class="st8" d="M40.1,51.7c0.1-0.2,0.2-0.2,0.4-0.1C40.4,51.7,40.2,51.7,40.1,51.7z"/>
	<path class="st10" d="M70.3,49.8c-0.1,0.2-0.3,0.3-0.5,0.3c-4.2,0-8.3,0-12.5,0c-0.2,0-0.3,0-0.5,0c-2.7,0-5.4-0.1-8.2-0.1
		c-6.2,0-12.5,0-18.7,0.1c-0.2,0-0.3,0-0.5,0c-0.2,0-0.5,0-0.7,0c-0.5-0.2-0.5-0.6-0.5-1c0-3.1,0-6.2,0-9.2c0-0.8,0.3-1.1,1.1-1.1
		c13.3,0,26.6,0,39.8,0c0.7,0,1.2,0.1,1.1,1C70.3,43.1,70.3,46.4,70.3,49.8z M50.3,42.6c0,1.3,0.9,2.2,2.3,2.2c1.2,0,2.2-1,2.2-2.2
		c0-1.2-1.1-2.3-2.3-2.3C51.3,40.3,50.3,41.3,50.3,42.6z M61.5,42.5c0-1.2-1.2-2.3-2.4-2.2c-1.1,0-2.2,1.2-2.2,2.3
		c0,1.2,1.1,2.3,2.3,2.3C60.5,44.7,61.6,43.7,61.5,42.5z M68.2,42.5c0-1.2-1-2.2-2.2-2.3c-1.2,0-2.4,1.1-2.4,2.2
		c0,1.2,1.1,2.3,2.3,2.3C67.1,44.8,68.2,43.7,68.2,42.5z"/>
	<path class="st10" d="M63.4,37.3c-1.8,0-1.8,0-1.4-1.6c0.9-3.4,2-6.9,3.1-10.3c1.4-4.4,2.7-8.8,4.2-13.2c0.1-0.4,0.2-0.9,0.7-0.8
		c0.5,0.1,0.3,0.7,0.3,1c-0.2,1.3-0.5,2.5-0.8,3.7c-1.5,6.5-3,13.1-4.5,19.6C64.8,37,64.5,37.7,63.4,37.3z"/>
	<path class="st10" d="M35.2,37.3c-1,0.3-1.3-0.4-1.6-1.4c-1.7-7.7-3.4-15.3-5.2-23c0-0.1-0.1-0.2-0.1-0.2c0-0.5-0.3-1.1,0.3-1.3
		c0.5-0.1,0.6,0.5,0.8,0.9c0.7,2.3,1.5,4.6,2.1,7c0.5,1.7,1.1,3.4,1.6,5.1c0.8,2.8,1.7,5.5,2.6,8.3c0.3,1,0.6,1.9,0.9,2.9
		C37.1,37.3,37.1,37.3,35.2,37.3z"/>
	<path class="st10" d="M33.4,52.2c0-0.3,0.1-0.5,0.4-0.6c1.3,0,2.5,0,3.8,0.1c0.5,0,0.9,0,1.3,0.5c0.2,1-0.2,1.3-1.2,1.3
		c-1.1-0.1-2.3,0-3.4,0c-0.4,0-0.9,0.1-0.8-0.5C33.6,52.7,33.6,52.5,33.4,52.2z"/>
	<path class="st10" d="M59.8,52.7c0-0.2,0-0.4,0-0.5c0.2-0.1,0.2-0.3,0.1-0.5c0,0,0,0,0,0c1.5,0,3.1,0,4.6,0c0.9,0,0.7,0.7,0.7,1.2
		c0,0.6-0.4,0.6-0.8,0.6c-1.5,0-2.9,0-4.4,0C59.9,53.2,60,52.9,59.8,52.7z"/>
	<path class="st11" d="M30,50.1c6.2,0,12.5,0,18.7-0.1c2.7,0,5.4,0,8.2,0.1c-0.3,0.2-0.7,0.1-1,0.1c-8.3,0-16.5,0-24.8,0
		C30.7,50.3,30.3,50.3,30,50.1z"/>
	<path class="st11" d="M57.3,50.1c4.2,0,8.3,0,12.5,0c-0.1,0.1-0.2,0.1-0.3,0.1c-4,0-8,0-11.9,0C57.5,50.2,57.4,50.1,57.3,50.1z"/>
	<path class="st11" d="M70.3,49.8c0-3.4,0-6.7,0-10.1c0.4,2,0.1,4,0.1,6.1C70.5,47.1,70.7,48.5,70.3,49.8z"/>
	<path class="st11" d="M38.8,52.2c-0.3-0.5-0.8-0.5-1.3-0.5c-1.3,0-2.5,0-3.8-0.1c1.5-0.3,3.1-0.1,4.6-0.1
		C38.8,51.5,38.9,51.8,38.8,52.2z"/>
	<path class="st11" d="M64.5,51.7c-1.5,0-3.1,0-4.6,0C61.5,51.4,63,51.4,64.5,51.7z"/>
	<path class="st11" d="M28.8,50.1c0.2,0,0.5,0,0.7,0C29.2,50.3,29,50.3,28.8,50.1z"/>
	<path class="st11" d="M33.4,52.2c0.2,0.2,0.2,0.5,0,0.7C33.4,52.7,33.4,52.5,33.4,52.2z"/>
	<path class="st11" d="M59.8,52.7c0.2,0.2,0.2,0.4,0.2,0.7C59.7,53.2,59.7,53,59.8,52.7z"/>
	<path class="st11" d="M59.9,51.7c0,0.2,0,0.3-0.1,0.5C59.7,52,59.7,51.8,59.9,51.7z"/>
	<path class="st6" d="M58.1,21.5c-0.2,4.7-2.9,8-6.5,10.6c-2.8,2-1.7,1.9-4.5,0c-2.5-1.7-4.5-3.9-5.7-6.7c-0.6-1.4-1-2.8-0.9-4.3
		c0.1-1.9,0.1-3.9,0-5.8c1.1-0.7,2.4-0.6,3.6-1c1.7-0.6,3.2-1.3,4.7-2.3c0.4-0.2,0.6-0.4,1.1-0.1c2.5,1.8,5.2,2.8,8.3,3.2
		c0.1,1.7-0.2,3.3,0.1,5c0,0.3,0,0.6,0,0.9C58,21.2,58,21.3,58.1,21.5z M55.9,19.2c0.2-1-0.2-1.8-1.2-2.1c-0.9-0.3-1.9-0.3-2.6,0.6
		c-1.1,1.2-2.2,2.5-3.2,3.7c-1.1,1.3-1.1,1.3-2.2,0.1c-1-1-2.4-1.2-3.3-0.3c-1.1,1-1.2,2-0.1,3.3c0.8,1,1.7,1.9,2.5,2.9
		c1.4,1.5,2.6,1.5,3.9,0c1.9-2.1,3.7-4.3,5.6-6.4C55.7,20.3,56,19.8,55.9,19.2z"/>
	<path class="st11" d="M40.4,15.3c0.1,1.9,0.1,3.9,0,5.8C40.2,19.1,40.2,17.2,40.4,15.3z"/>
	<path class="st8" d="M58.1,20.1c-0.3-1.7-0.1-3.3-0.1-5C58.4,16.7,58.2,18.4,58.1,20.1z"/>
	<path class="st8" d="M58.1,21.5C58,21.3,58,21.2,58.1,21C58.2,21.2,58.2,21.4,58.1,21.5z"/>
	<path class="st7" d="M50.3,42.6c0-1.3,0.9-2.3,2.2-2.3c1.2,0,2.3,1.1,2.3,2.3c0,1.2-1,2.2-2.2,2.2C51.2,44.8,50.4,43.9,50.3,42.6z
		 M52.5,43.3c0.4,0,0.7-0.2,0.7-0.7c0-0.4,0-0.7-0.6-0.7c-0.5,0-0.9,0-0.9,0.6C51.8,43,52,43.2,52.5,43.3z"/>
	<path class="st7" d="M61.5,42.5c0,1.2-1,2.2-2.3,2.3c-1.2,0-2.3-1-2.3-2.3c0-1.1,1.1-2.2,2.2-2.3C60.3,40.2,61.5,41.3,61.5,42.5z
		 M60,42.5c0-0.6-0.4-0.6-0.8-0.6c-0.5,0-0.8,0.1-0.7,0.7c0,0.5,0.3,0.7,0.7,0.8C59.7,43.3,60,43,60,42.5z"/>
	<path class="st7" d="M68.2,42.5c0,1.2-1.1,2.3-2.3,2.2c-1.2,0-2.3-1.1-2.3-2.3c0-1.1,1.2-2.2,2.4-2.2
		C67.2,40.3,68.2,41.3,68.2,42.5z M65.7,41.9c-0.1,0-0.7-0.1-0.7,0.6c0,0.5,0.4,0.8,0.9,0.8c0.4,0,0.7-0.2,0.8-0.7
		C66.7,42.1,66.5,41.9,65.7,41.9z"/>
	<path class="st7" d="M55.9,19.2c0.1,0.6-0.1,1.2-0.6,1.6c-1.9,2.1-3.7,4.3-5.6,6.4c-1.4,1.5-2.6,1.5-3.9,0
		c-0.9-0.9-1.7-1.9-2.5-2.9c-1.1-1.3-1-2.3,0.1-3.3c0.9-0.8,2.3-0.7,3.3,0.3c1.1,1.2,1.1,1.2,2.2-0.1c1.1-1.2,2.2-2.4,3.2-3.7
		c0.7-0.9,1.7-0.9,2.6-0.6C55.6,17.4,56,18.2,55.9,19.2z M54.6,19c-0.1-0.3-0.2-0.5-0.5-0.6c-0.5-0.1-0.8,0.1-1.1,0.4
		c-1.4,1.7-2.9,3.3-4.3,4.9c-0.8,0.9-1.2,0.8-1.9-0.1c-0.4-0.5-0.8-0.9-1.2-1.3c-0.3-0.4-0.8-0.5-1.2-0.2c-0.5,0.4-0.3,0.8,0,1.3
		c0.8,0.9,1.6,1.9,2.4,2.8c0.6,0.8,1.2,0.8,1.8,0c0.4-0.5,0.7-1.1,1.1-1.5c1.7-1.4,2.9-3.2,4.3-4.7C54.3,19.7,54.6,19.4,54.6,19z"/>
	<path class="st6" d="M52.5,43.3c-0.5-0.1-0.8-0.3-0.8-0.8c0-0.7,0.4-0.6,0.9-0.6c0.5,0,0.6,0.3,0.6,0.7
		C53.2,43.1,53,43.3,52.5,43.3z"/>
	<path class="st6" d="M60,42.5c0,0.5-0.3,0.8-0.8,0.8c-0.4,0-0.7-0.3-0.7-0.8c0-0.5,0.3-0.7,0.7-0.7C59.6,41.9,60,41.9,60,42.5z"/>
	<path class="st6" d="M65.7,41.9c0.8-0.1,1,0.1,1,0.7c0,0.5-0.3,0.7-0.8,0.7c-0.5,0-0.9-0.3-0.9-0.8C65,41.9,65.6,42,65.7,41.9z"/>
	<path class="st10" d="M54.6,19c0,0.4-0.3,0.7-0.5,0.9c-1.5,1.6-2.7,3.3-4.3,4.7c-0.5,0.4-0.7,1-1.1,1.5c-0.6,0.8-1.2,0.7-1.8,0
		c-0.8-0.9-1.6-1.9-2.4-2.8c-0.3-0.4-0.5-0.9,0-1.3c0.4-0.3,0.8-0.2,1.2,0.2c0.4,0.4,0.8,0.9,1.2,1.3c0.7,1,1.1,1,1.9,0.1
		c1.5-1.6,2.9-3.3,4.3-4.9c0.3-0.4,0.7-0.6,1.1-0.4C54.4,18.5,54.5,18.7,54.6,19z"/>
</g>
</svg>
