<?xml version="1.0" encoding="utf-8"?>
<!-- Generator: Adobe Illustrator 27.5.0, SVG Export Plug-In . SVG Version: 6.00 Build 0)  -->
<svg version="1.1" xmlns="http://www.w3.org/2000/svg" xmlns:xlink="http://www.w3.org/1999/xlink" x="0px" y="0px"
	 viewBox="0 0 331.8 134.4" style="enable-background:new 0 0 331.8 134.4;" xml:space="preserve">
<style type="text/css">
	.st0{display:none;}
	.st1{display:inline;}
	.st2{fill:#FF3000;}
	.st3{font-family:'Barlow-ExtraBold';}
	.st4{font-size:48.5506px;}
	.st5{letter-spacing:4;}
	.st6{fill:#383F68;}
	.st7{font-family:'Barlow-Bold';}
	.st8{font-size:74.2906px;}
	.st9{fill:#FF5000;}
	.st10{fill:#2290D3;}
	.st11{opacity:0.25;fill:#FFFFFF;}
	.st12{display:inline;fill:#383F68;}
	.st13{display:inline;fill:#FF3000;}
	.st14{display:inline;fill:#FF5000;}
	.st15{display:inline;opacity:0.25;fill:#FFFFFF;}
	.st16{display:inline;opacity:0.4;fill:#FFFFFF;}
</style>
<g id="Layer_1" class="st0">
	<g class="st1">
		<text transform="matrix(1 0 0 1 0.6119 55.7347)" class="st2 st3 st4 st5">DIGITAL</text>
	</g>
	<g class="st1">
		<text transform="matrix(1 0 0 1 -0.7777 117.5828)" class="st6 st7 st8">Guide</text>
	</g>
</g>
<g id="Layer_1_copy">
	<g>
		<g>
			<path class="st9" d="M3.2,55.5C3.1,55.3,3,55.1,3,54.9V22.6c0-0.3,0.1-0.5,0.2-0.6c0.2-0.2,0.4-0.2,0.6-0.2H16
				c2.5,0,4.8,0.4,6.7,1.3c1.9,0.9,3.4,2.1,4.5,3.7c1.1,1.6,1.6,3.5,1.6,5.6v12.7c0,2.1-0.5,4-1.6,5.6c-1.1,1.6-2.6,2.9-4.5,3.7
				c-1.9,0.9-4.2,1.3-6.7,1.3H3.9C3.6,55.7,3.4,55.7,3.2,55.5z M11.4,48.8h4.9c1.3,0,2.3-0.5,3.2-1.4s1.2-2.2,1.3-3.7v-10
				c0-1.6-0.4-2.8-1.2-3.7c-0.8-0.9-1.9-1.4-3.2-1.4h-4.9c-0.2,0-0.3,0.1-0.3,0.3v19.5C11.1,48.7,11.2,48.8,11.4,48.8z"/>
			<path class="st9" d="M37.4,55.5c-0.2-0.2-0.2-0.4-0.2-0.6V22.6c0-0.3,0.1-0.5,0.2-0.6c0.2-0.2,0.4-0.2,0.6-0.2h6.3
				c0.3,0,0.5,0.1,0.6,0.2c0.2,0.2,0.2,0.4,0.2,0.6v32.2c0,0.3-0.1,0.5-0.2,0.6c-0.2,0.2-0.4,0.2-0.6,0.2H38
				C37.8,55.7,37.6,55.7,37.4,55.5z"/>
			<path class="st9" d="M59.9,54.6c-2-1-3.5-2.5-4.6-4.4c-1.1-1.9-1.6-4-1.6-6.5v-10c0-2.5,0.5-4.6,1.6-6.5c1.1-1.9,2.6-3.3,4.6-4.3
				c2-1,4.2-1.6,6.8-1.6c2.6,0,4.8,0.5,6.8,1.5c2,1,3.5,2.3,4.6,4.1c1.1,1.7,1.6,3.6,1.6,5.7c0,0.6-0.3,0.8-0.9,0.8h-6.3
				c-0.6,0-0.9-0.1-0.9-0.3v-0.3c0-1.3-0.4-2.3-1.3-3.2c-0.9-0.9-2.1-1.3-3.6-1.3c-1.5,0-2.7,0.5-3.6,1.5c-0.9,1-1.4,2.2-1.4,3.8
				v10.4c0,1.6,0.5,2.8,1.5,3.8c1,1,2.3,1.5,3.8,1.5c1.4,0,2.6-0.4,3.4-1.1c0.9-0.8,1.3-1.8,1.3-3.2v-1.3c0-0.2-0.1-0.3-0.3-0.3H67
				c-0.3,0-0.5-0.1-0.6-0.2c-0.2-0.2-0.2-0.4-0.2-0.6v-4.8c0-0.3,0.1-0.5,0.2-0.6c0.2-0.2,0.4-0.2,0.6-0.2h11.8
				c0.3,0,0.5,0.1,0.6,0.2c0.2,0.2,0.2,0.4,0.2,0.6v6.3c0,2.4-0.5,4.6-1.6,6.4c-1.1,1.8-2.6,3.3-4.6,4.3c-2,1-4.2,1.5-6.8,1.5
				C64.1,56.1,61.8,55.6,59.9,54.6z"/>
			<path class="st9" d="M88.1,55.5c-0.2-0.2-0.2-0.4-0.2-0.6V22.6c0-0.3,0.1-0.5,0.2-0.6c0.2-0.2,0.4-0.2,0.6-0.2h6.3
				c0.3,0,0.5,0.1,0.6,0.2c0.2,0.2,0.2,0.4,0.2,0.6v32.2c0,0.3-0.1,0.5-0.2,0.6c-0.2,0.2-0.4,0.2-0.6,0.2h-6.3
				C88.5,55.7,88.3,55.7,88.1,55.5z"/>
			<path class="st9" d="M129.9,22c0.2,0.2,0.2,0.4,0.2,0.6v5.2c0,0.3-0.1,0.5-0.2,0.6c-0.2,0.2-0.4,0.2-0.6,0.2h-8.1
				c-0.2,0-0.3,0.1-0.3,0.3v25.8c0,0.3-0.1,0.5-0.2,0.6c-0.2,0.2-0.4,0.2-0.6,0.2h-6.3c-0.3,0-0.5-0.1-0.6-0.2
				c-0.2-0.2-0.2-0.4-0.2-0.6V29c0-0.2-0.1-0.3-0.3-0.3h-7.8c-0.3,0-0.5-0.1-0.6-0.2c-0.2-0.2-0.2-0.4-0.2-0.6v-5.2
				c0-0.3,0.1-0.5,0.2-0.6c0.2-0.2,0.4-0.2,0.6-0.2h24.7C129.5,21.7,129.7,21.8,129.9,22z"/>
			<path class="st9" d="M156,55l-1.1-4c0-0.2-0.2-0.3-0.4-0.3h-11c-0.2,0-0.3,0.1-0.4,0.3l-1.1,4c-0.1,0.5-0.5,0.7-1,0.7h-6.8
				c-0.3,0-0.6-0.1-0.7-0.3c-0.1-0.2-0.1-0.4,0-0.7l10.2-32.3c0.2-0.5,0.5-0.7,1-0.7h8.6c0.5,0,0.9,0.2,1,0.7l10.2,32.3
				c0,0.1,0,0.2,0,0.3c0,0.4-0.3,0.6-0.8,0.6h-6.8C156.4,55.7,156.1,55.5,156,55z M145.1,44.2c0,0.2,0.1,0.3,0.3,0.3h7.2
				c0.1,0,0.2,0,0.3-0.1c0-0.1,0.1-0.2,0-0.3l-3.7-12.9c0-0.2-0.1-0.2-0.2-0.2c-0.1,0-0.2,0.1-0.2,0.2L145.1,44.2L145.1,44.2z"/>
			<path class="st9" d="M172.6,55.5c-0.2-0.2-0.2-0.4-0.2-0.6V22.6c0-0.3,0.1-0.5,0.2-0.6c0.2-0.2,0.4-0.2,0.6-0.2h6.3
				c0.3,0,0.5,0.1,0.6,0.2c0.2,0.2,0.2,0.4,0.2,0.6v25.9c0,0.2,0.1,0.3,0.3,0.3h15.1c0.3,0,0.5,0.1,0.6,0.2c0.2,0.2,0.2,0.4,0.2,0.6
				v5.1c0,0.3-0.1,0.5-0.2,0.6c-0.2,0.2-0.4,0.2-0.6,0.2h-22.6C173,55.7,172.8,55.7,172.6,55.5z"/>
		</g>
	</g>
	<g>
		<g>
			<path class="st6" d="M11.9,115.9c-2.9-1.5-5.2-3.7-6.8-6.4c-1.6-2.7-2.4-5.9-2.4-9.5V83.3c0-3.6,0.8-6.8,2.4-9.6
				c1.6-2.8,3.9-4.9,6.8-6.4C14.8,65.7,18.2,65,22,65c3.8,0,7.1,0.7,10,2.2s5.2,3.5,6.8,6.1c1.6,2.6,2.4,5.4,2.4,8.5v0.1
				c0,0.8-0.4,1.3-1.3,1.3H32c-0.4,0-0.7-0.1-0.9-0.2c-0.2-0.1-0.3-0.3-0.3-0.4v-0.5c0-2.3-0.8-4.2-2.4-5.8C26.8,74.8,24.7,74,22,74
				c-2.7,0-4.8,0.8-6.4,2.5c-1.6,1.7-2.4,3.8-2.4,6.5v17.2c0,2.7,0.9,4.8,2.6,6.5c1.7,1.7,3.9,2.5,6.6,2.5c2.6,0,4.6-0.7,6.2-2
				c1.5-1.4,2.3-3.3,2.3-5.7v-3.3c0-0.3-0.1-0.4-0.4-0.4h-7.9c-0.8,0-1.3-0.4-1.3-1.3v-6.1c0-0.8,0.4-1.3,1.3-1.3h17.4
				c0.8,0,1.3,0.4,1.3,1.3v9.4c0,3.8-0.8,7-2.4,9.8c-1.6,2.8-3.8,4.9-6.7,6.4c-2.9,1.5-6.3,2.2-10.1,2.2
				C18.2,118.2,14.8,117.4,11.9,115.9z"/>
			<path class="st6" d="M57.7,115.9c-2.9-1.5-5.2-3.6-6.8-6.3c-1.6-2.7-2.4-5.8-2.4-9.3V66.8c0-0.8,0.4-1.3,1.3-1.3h7.9
				c0.8,0,1.3,0.4,1.3,1.3v33.6c0,2.6,0.8,4.7,2.4,6.4c1.6,1.6,3.7,2.4,6.4,2.4c2.6,0,4.7-0.8,6.4-2.4c1.6-1.6,2.4-3.7,2.4-6.4V66.8
				c0-0.8,0.4-1.3,1.3-1.3h7.9c0.8,0,1.3,0.4,1.3,1.3v33.5c0,3.5-0.8,6.6-2.4,9.3c-1.6,2.7-3.9,4.8-6.8,6.3
				c-2.9,1.5-6.3,2.2-10.1,2.2C63.9,118.2,60.5,117.4,57.7,115.9z"/>
			<path class="st6" d="M95.6,116.3V66.8c0-0.8,0.4-1.3,1.3-1.3h7.9c0.8,0,1.3,0.4,1.3,1.3v49.5c0,0.8-0.4,1.3-1.3,1.3h-7.9
				C96,117.6,95.6,117.2,95.6,116.3z"/>
			<path class="st6" d="M115.1,116.3V66.8c0-0.8,0.4-1.3,1.3-1.3h18.2c3.7,0,7,0.7,9.8,2c2.8,1.3,5,3.2,6.5,5.5
				c1.5,2.4,2.3,5.1,2.3,8.2v20.5c0,3.1-0.8,5.9-2.3,8.2c-1.5,2.4-3.7,4.2-6.5,5.5c-2.8,1.3-6.1,2-9.8,2h-18.2
				C115.5,117.6,115.1,117.2,115.1,116.3z M126,108.6h8.9c2.3,0,4.1-0.8,5.5-2.3s2.1-3.6,2.2-6.2V83c0-2.6-0.7-4.6-2.1-6.2
				c-1.4-1.5-3.3-2.3-5.7-2.3H126c-0.3,0-0.4,0.1-0.4,0.4v33.1C125.6,108.4,125.7,108.6,126,108.6z"/>
			<path class="st6" d="M195.9,74.6h-23.9c-0.3,0-0.4,0.1-0.4,0.4v11.4c0,0.3,0.1,0.4,0.4,0.4h15.5c0.8,0,1.3,0.4,1.3,1.3v6.5
				c0,0.8-0.4,1.3-1.3,1.3h-15.5c-0.3,0-0.4,0.1-0.4,0.4v11.9c0,0.3,0.1,0.4,0.4,0.4h23.9c0.8,0,1.3,0.4,1.3,1.3v6.5
				c0,0.8-0.4,1.3-1.3,1.3h-33.6c-0.8,0-1.3-0.4-1.3-1.3V66.8c0-0.8,0.4-1.3,1.3-1.3h33.6c0.8,0,1.3,0.4,1.3,1.3v6.5
				C197.1,74.1,196.7,74.6,195.9,74.6z"/>
		</g>
	</g>
	<path class="st6" d="M271.6,73.7c2.7,0.4,5.3,1,7.9,1.8l0,0c8.5,2.6,16,6.9,22.7,12.7c0.9,0.8,0.7,1.3,0,2c-4,3.6-7.9,7.3-12,10.8
		c-8.6,7.2-17.3,14.2-25.9,21.3c-1.2,1-1.3,1-2.2-0.3c-5.9-8.7-11.9-17.4-17.7-26.2c-3.3-5-6.4-10.2-9.6-15.3
		c-0.6-1-0.4-1.5,0.6-1.9c8-3.6,16.3-5.6,25.1-5.7l0,0c3.2,0,6.5,0.2,9.7,0.7L271.6,73.7z"/>
	<path class="st10" d="M229.9,68c-0.4-2-0.9-4-1.3-5.9c-1.2-6.6-0.9-13.3,0.7-19.7c2.1-8.5,6.4-15.9,12.9-22
		c8.9-8.3,19.5-12.4,31.6-12.2c11.7,0.2,22,4.3,30.5,12.4c8.7,8.3,13.4,18.6,14,30.6c0.4,6.8-0.8,13.3-3.3,19.6
		c-1.1,2.7-2.6,5.3-3.9,8c-0.4,0.9-0.9,0.9-1.7,0.3c-3.2-2.4-6.3-4.7-9.6-7c-0.8-0.6-0.6-1.1-0.3-1.7c2.4-4.4,4-9.1,4.4-14.1
		c0.6-7-0.9-13.5-4.7-19.5c-3.7-5.9-8.9-10.1-15.4-12.4c-9.4-3.3-18.5-2.5-27,2.7c-5.7,3.5-9.9,8.4-12.4,14.6
		c-2.5,6.3-2.9,12.8-1.7,19.4c0.4,2.2,0.4,2.2-1.7,2.9c-3.4,1.2-6.8,2.5-10.2,3.7C230.7,67.8,230.4,67.9,229.9,68z"/>
	<ellipse transform="matrix(0.1431 -0.9897 0.9897 0.1431 180.4969 316.3734)" class="st11" cx="273" cy="54" rx="35.2" ry="41.3"/>
	<circle class="st9" cx="273.5" cy="52.8" r="17"/>
</g>
<g id="Layer_6" class="st0">
	<g class="st1">
		<g>
			<path class="st2" d="M3.2,55.5C3.1,55.3,3,55.1,3,54.9V22.6c0-0.3,0.1-0.5,0.2-0.6c0.2-0.2,0.4-0.2,0.6-0.2H16
				c2.5,0,4.8,0.4,6.7,1.3c1.9,0.9,3.4,2.1,4.5,3.7c1.1,1.6,1.6,3.5,1.6,5.6v12.7c0,2.1-0.5,4-1.6,5.6c-1.1,1.6-2.6,2.9-4.5,3.7
				c-1.9,0.9-4.2,1.3-6.7,1.3H3.9C3.6,55.7,3.4,55.7,3.2,55.5z M11.4,48.8h4.9c1.3,0,2.3-0.5,3.2-1.4s1.2-2.2,1.3-3.7v-10
				c0-1.6-0.4-2.8-1.2-3.7c-0.8-0.9-1.9-1.4-3.2-1.4h-4.9c-0.2,0-0.3,0.1-0.3,0.3v19.5C11.1,48.7,11.2,48.8,11.4,48.8z"/>
			<path class="st2" d="M37.4,55.5c-0.2-0.2-0.2-0.4-0.2-0.6V22.6c0-0.3,0.1-0.5,0.2-0.6c0.2-0.2,0.4-0.2,0.6-0.2h6.3
				c0.3,0,0.5,0.1,0.6,0.2c0.2,0.2,0.2,0.4,0.2,0.6v32.2c0,0.3-0.1,0.5-0.2,0.6c-0.2,0.2-0.4,0.2-0.6,0.2H38
				C37.8,55.7,37.6,55.7,37.4,55.5z"/>
			<path class="st2" d="M59.9,54.6c-2-1-3.5-2.5-4.6-4.4c-1.1-1.9-1.6-4-1.6-6.5v-10c0-2.5,0.5-4.6,1.6-6.5c1.1-1.9,2.6-3.3,4.6-4.3
				c2-1,4.2-1.6,6.8-1.6c2.6,0,4.8,0.5,6.8,1.5c2,1,3.5,2.3,4.6,4.1c1.1,1.7,1.6,3.6,1.6,5.7c0,0.6-0.3,0.8-0.9,0.8h-6.3
				c-0.6,0-0.9-0.1-0.9-0.3v-0.3c0-1.3-0.4-2.3-1.3-3.2c-0.9-0.9-2.1-1.3-3.6-1.3c-1.5,0-2.7,0.5-3.6,1.5c-0.9,1-1.4,2.2-1.4,3.8
				v10.4c0,1.6,0.5,2.8,1.5,3.8c1,1,2.3,1.5,3.8,1.5c1.4,0,2.6-0.4,3.4-1.1c0.9-0.8,1.3-1.8,1.3-3.2v-1.3c0-0.2-0.1-0.3-0.3-0.3H67
				c-0.3,0-0.5-0.1-0.6-0.2c-0.2-0.2-0.2-0.4-0.2-0.6v-4.8c0-0.3,0.1-0.5,0.2-0.6c0.2-0.2,0.4-0.2,0.6-0.2h11.8
				c0.3,0,0.5,0.1,0.6,0.2c0.2,0.2,0.2,0.4,0.2,0.6v6.3c0,2.4-0.5,4.6-1.6,6.4c-1.1,1.8-2.6,3.3-4.6,4.3c-2,1-4.2,1.5-6.8,1.5
				C64.1,56.1,61.8,55.6,59.9,54.6z"/>
			<path class="st2" d="M88.1,55.5c-0.2-0.2-0.2-0.4-0.2-0.6V22.6c0-0.3,0.1-0.5,0.2-0.6c0.2-0.2,0.4-0.2,0.6-0.2h6.3
				c0.3,0,0.5,0.1,0.6,0.2c0.2,0.2,0.2,0.4,0.2,0.6v32.2c0,0.3-0.1,0.5-0.2,0.6c-0.2,0.2-0.4,0.2-0.6,0.2h-6.3
				C88.5,55.7,88.3,55.7,88.1,55.5z"/>
			<path class="st2" d="M129.9,22c0.2,0.2,0.2,0.4,0.2,0.6v5.2c0,0.3-0.1,0.5-0.2,0.6c-0.2,0.2-0.4,0.2-0.6,0.2h-8.1
				c-0.2,0-0.3,0.1-0.3,0.3v25.8c0,0.3-0.1,0.5-0.2,0.6c-0.2,0.2-0.4,0.2-0.6,0.2h-6.3c-0.3,0-0.5-0.1-0.6-0.2
				c-0.2-0.2-0.2-0.4-0.2-0.6V29c0-0.2-0.1-0.3-0.3-0.3h-7.8c-0.3,0-0.5-0.1-0.6-0.2c-0.2-0.2-0.2-0.4-0.2-0.6v-5.2
				c0-0.3,0.1-0.5,0.2-0.6c0.2-0.2,0.4-0.2,0.6-0.2h24.7C129.5,21.7,129.7,21.8,129.9,22z"/>
			<path class="st2" d="M156,55l-1.1-4c0-0.2-0.2-0.3-0.4-0.3h-11c-0.2,0-0.3,0.1-0.4,0.3l-1.1,4c-0.1,0.5-0.5,0.7-1,0.7h-6.8
				c-0.3,0-0.6-0.1-0.7-0.3c-0.1-0.2-0.1-0.4,0-0.7l10.2-32.3c0.2-0.5,0.5-0.7,1-0.7h8.6c0.5,0,0.9,0.2,1,0.7l10.2,32.3
				c0,0.1,0,0.2,0,0.3c0,0.4-0.3,0.6-0.8,0.6h-6.8C156.4,55.7,156.1,55.5,156,55z M145.1,44.2c0,0.2,0.1,0.3,0.3,0.3h7.2
				c0.1,0,0.2,0,0.3-0.1c0-0.1,0.1-0.2,0-0.3l-3.7-12.9c0-0.2-0.1-0.2-0.2-0.2c-0.1,0-0.2,0.1-0.2,0.2L145.1,44.2L145.1,44.2z"/>
			<path class="st2" d="M172.6,55.5c-0.2-0.2-0.2-0.4-0.2-0.6V22.6c0-0.3,0.1-0.5,0.2-0.6c0.2-0.2,0.4-0.2,0.6-0.2h6.3
				c0.3,0,0.5,0.1,0.6,0.2c0.2,0.2,0.2,0.4,0.2,0.6v25.9c0,0.2,0.1,0.3,0.3,0.3h15.1c0.3,0,0.5,0.1,0.6,0.2c0.2,0.2,0.2,0.4,0.2,0.6
				v5.1c0,0.3-0.1,0.5-0.2,0.6c-0.2,0.2-0.4,0.2-0.6,0.2h-22.6C173,55.7,172.8,55.7,172.6,55.5z"/>
		</g>
	</g>
	<g class="st1">
		<g>
			<path class="st6" d="M11.9,115.9c-2.9-1.5-5.2-3.7-6.8-6.4c-1.6-2.7-2.4-5.9-2.4-9.5V83.3c0-3.6,0.8-6.8,2.4-9.6
				c1.6-2.8,3.9-4.9,6.8-6.4C14.8,65.7,18.2,65,22,65c3.8,0,7.1,0.7,10,2.2s5.2,3.5,6.8,6.1c1.6,2.6,2.4,5.4,2.4,8.5v0.1
				c0,0.8-0.4,1.3-1.3,1.3H32c-0.4,0-0.7-0.1-0.9-0.2c-0.2-0.1-0.3-0.3-0.3-0.4v-0.5c0-2.3-0.8-4.2-2.4-5.8C26.8,74.8,24.7,74,22,74
				c-2.7,0-4.8,0.8-6.4,2.5c-1.6,1.7-2.4,3.8-2.4,6.5v17.2c0,2.7,0.9,4.8,2.6,6.5c1.7,1.7,3.9,2.5,6.6,2.5c2.6,0,4.6-0.7,6.2-2
				c1.5-1.4,2.3-3.3,2.3-5.7v-3.3c0-0.3-0.1-0.4-0.4-0.4h-7.9c-0.8,0-1.3-0.4-1.3-1.3v-6.1c0-0.8,0.4-1.3,1.3-1.3h17.4
				c0.8,0,1.3,0.4,1.3,1.3v9.4c0,3.8-0.8,7-2.4,9.8c-1.6,2.8-3.8,4.9-6.7,6.4c-2.9,1.5-6.3,2.2-10.1,2.2
				C18.2,118.2,14.8,117.4,11.9,115.9z"/>
			<path class="st6" d="M57.7,115.9c-2.9-1.5-5.2-3.6-6.8-6.3c-1.6-2.7-2.4-5.8-2.4-9.3V66.8c0-0.8,0.4-1.3,1.3-1.3h7.9
				c0.8,0,1.3,0.4,1.3,1.3v33.6c0,2.6,0.8,4.7,2.4,6.4c1.6,1.6,3.7,2.4,6.4,2.4c2.6,0,4.7-0.8,6.4-2.4c1.6-1.6,2.4-3.7,2.4-6.4V66.8
				c0-0.8,0.4-1.3,1.3-1.3h7.9c0.8,0,1.3,0.4,1.3,1.3v33.5c0,3.5-0.8,6.6-2.4,9.3c-1.6,2.7-3.9,4.8-6.8,6.3
				c-2.9,1.5-6.3,2.2-10.1,2.2C63.9,118.2,60.5,117.4,57.7,115.9z"/>
			<path class="st6" d="M95.6,116.3V66.8c0-0.8,0.4-1.3,1.3-1.3h7.9c0.8,0,1.3,0.4,1.3,1.3v49.5c0,0.8-0.4,1.3-1.3,1.3h-7.9
				C96,117.6,95.6,117.2,95.6,116.3z"/>
			<path class="st6" d="M115.1,116.3V66.8c0-0.8,0.4-1.3,1.3-1.3h18.2c3.7,0,7,0.7,9.8,2c2.8,1.3,5,3.2,6.5,5.5
				c1.5,2.4,2.3,5.1,2.3,8.2v20.5c0,3.1-0.8,5.9-2.3,8.2c-1.5,2.4-3.7,4.2-6.5,5.5c-2.8,1.3-6.1,2-9.8,2h-18.2
				C115.5,117.6,115.1,117.2,115.1,116.3z M126,108.6h8.9c2.3,0,4.1-0.8,5.5-2.3s2.1-3.6,2.2-6.2V83c0-2.6-0.7-4.6-2.1-6.2
				c-1.4-1.5-3.3-2.3-5.7-2.3H126c-0.3,0-0.4,0.1-0.4,0.4v33.1C125.6,108.4,125.7,108.6,126,108.6z"/>
			<path class="st6" d="M195.9,74.6h-23.9c-0.3,0-0.4,0.1-0.4,0.4v11.4c0,0.3,0.1,0.4,0.4,0.4h15.5c0.8,0,1.3,0.4,1.3,1.3v6.5
				c0,0.8-0.4,1.3-1.3,1.3h-15.5c-0.3,0-0.4,0.1-0.4,0.4v11.9c0,0.3,0.1,0.4,0.4,0.4h23.9c0.8,0,1.3,0.4,1.3,1.3v6.5
				c0,0.8-0.4,1.3-1.3,1.3h-33.6c-0.8,0-1.3-0.4-1.3-1.3V66.8c0-0.8,0.4-1.3,1.3-1.3h33.6c0.8,0,1.3,0.4,1.3,1.3v6.5
				C197.1,74.1,196.7,74.6,195.9,74.6z"/>
		</g>
	</g>
	<path class="st12" d="M270,70.5c2.7,0,5.4,0.2,8.1,0.6c0,0,0.1,0,0.1,0c8.3,1.3,15.9,4.2,22.9,8.8c0.9,0.6,0.8,1.2,0.3,1.9
		c-3.2,3.9-6.4,7.9-9.7,11.7c-7,7.8-14.2,15.6-21.3,23.4c-1,1.1-1.1,1.1-2.1,0c-6.7-7.3-13.5-14.6-20.1-22c-3.8-4.2-7.3-8.7-11-13
		c-0.7-0.9-0.6-1.3,0.3-1.9c6.9-4.5,14.4-7.5,22.6-8.7c0,0,0,0,0,0c3-0.5,6.1-0.7,9.2-0.6L270,70.5z"/>
	<path class="st13" d="M230.9,70.8c-0.7-1.8-1.4-3.6-2-5.4c-2-6-2.6-12.2-2-18.5c0.8-8.2,3.8-15.7,9.1-22.2
		c7.2-8.9,16.5-14.2,27.8-15.7c10.9-1.4,21,1,30.1,7.4c9.3,6.6,15,15.5,17.2,26.7c1.3,6.3,1,12.5-0.5,18.7c-0.7,2.7-1.7,5.3-2.5,8
		c-0.3,0.9-0.7,0.9-1.5,0.5c-3.3-1.8-6.6-3.5-9.9-5.3c-0.8-0.4-0.7-0.9-0.5-1.6c1.6-4.4,2.5-9,2.2-13.7c-0.4-6.6-2.7-12.4-7-17.5
		c-4.3-5-9.6-8.3-16-9.5c-9.2-1.8-17.6,0.1-24.8,6.2c-4.9,4.1-8.1,9.2-9.6,15.3c-1.5,6.2-1,12.3,1.1,18.3c0.7,2,0.7,2-1.2,3
		c-3,1.6-6,3.2-9,4.9C231.6,70.4,231.4,70.5,230.9,70.8z"/>
	<circle class="st12" cx="269.5" cy="51.7" r="14.6"/>
</g>
<g id="Layer_3" class="st0">
	<path class="st12" d="M310,47c-0.1,0.9-0.1,1.4-0.1,1.9c-0.1,10.9-0.2,21.7-0.4,32.6c0,1.2,0.4,1.7,1.4,1.9
		c5.9,0.9,11.7,1.9,17.6,2.8c5.9,1,11.7,2,17.6,2.9c2.9,0.5,5.7,1,8.6,1.4c2.1,0.3,4.2-0.3,6-1.8c4.1-3.4,8.1-6.9,12.1-10.3
		c1.5-1.3,1.5-3.9,0.1-5.6c-4-5-8.1-9.9-12.2-14.8c-2.4-2.8-5.8-3.7-9.5-4.2c-6.6-1-13.2-2.2-19.8-3.2c-6-1-12.1-2-18.1-3
		C312.3,47.3,311.3,47.2,310,47z"/>
	<path class="st13" d="M285.3,46.7c0,0.9,0.1,1.4,0.1,1.9c-0.2,11-0.4,21.9-0.5,32.9c0,1.2-0.4,1.8-1.5,2.2
		c-6,2.2-11.9,4.5-17.9,6.8c-6,2.3-11.9,4.6-17.9,6.8c-2.9,1.1-5.8,2.3-8.7,3.3c-2.1,0.7-4.3,0.6-6-0.5c-4-2.5-8-5.2-11.9-7.8
		c-1.5-1-1.4-3.6,0-5.7c4.2-5.9,8.4-11.8,12.7-17.6c2.5-3.4,6-5,9.7-6.4c6.7-2.5,13.4-5.1,20.1-7.6c6.1-2.3,12.3-4.7,18.4-7
		C283,47.5,284,47.1,285.3,46.7z"/>
	<path class="st13" d="M309,77.1c0-0.9-0.1-1.4-0.1-1.9c0.2-11,0.4-21.9,0.5-32.9c0-1.2,0.4-1.8,1.5-2.2c6-2.2,11.9-4.5,17.9-6.8
		c6-2.3,11.9-4.6,17.9-6.8c2.9-1.1,5.8-2.3,8.7-3.3c2.1-0.7,4.3-0.6,6,0.5c4,2.5,8,5.2,11.9,7.8c1.5,1,1.4,3.6,0,5.7
		c-4.2,5.9-8.4,11.8-12.7,17.6c-2.5,3.4-6,5-9.7,6.4c-6.7,2.5-13.4,5.1-20.1,7.6c-6.1,2.3-12.3,4.7-18.4,7
		C311.4,76.2,310.3,76.6,309,77.1z"/>
	<path class="st12" d="M286,46.6c0-1.2-0.4-1.7-1.4-1.9c-5.9-0.9-11.7-1.9-17.6-2.8c-5.9-1-11.7-2-17.6-2.9c-2.9-0.5-5.7-1-8.6-1.4
		c-2.1-0.3-4.2,0.3-6,1.8c-4.1,3.4-8.1,6.9-12.1,10.3c-1.5,1.3-1.5,3.9-0.1,5.6c4,5,8.1,9.9,12.2,14.8c2.4,2.8,5.8,3.7,9.5,4.2
		c6.6,1,13.2,2.2,19.8,3.2c6,1,12.1,2,18.1,3c1,0.2,2.1,0.3,3.3,0.5C285.6,81.1,286,46.7,286,46.6z"/>
</g>
<g id="Layer_4" class="st0">
	<path class="st12" d="M271,70.5c2.7,0,5.4,0.2,8.1,0.6c0,0,0.1,0,0.1,0c8.3,1.3,15.9,4.2,22.9,8.8c0.9,0.6,0.8,1.2,0.3,1.9
		c-3.2,3.9-6.4,7.9-9.7,11.7c-7,7.8-14.2,15.6-21.3,23.4c-1,1.1-1.1,1.1-2.1,0c-6.7-7.3-13.5-14.6-20.1-22c-3.8-4.2-7.3-8.7-11-13
		c-0.7-0.9-0.6-1.3,0.3-1.9c6.9-4.5,14.4-7.5,22.6-8.7c0,0,0,0,0,0c3-0.5,6.1-0.7,9.2-0.6L271,70.5z"/>
	<path class="st13" d="M231.9,70.8c-0.7-1.8-1.4-3.6-2-5.4c-2-6-2.6-12.2-2-18.5c0.8-8.2,3.8-15.7,9.1-22.2
		c7.2-8.9,16.5-14.2,27.8-15.7c10.9-1.4,21,1,30.1,7.4c9.3,6.6,15,15.5,17.2,26.7c1.3,6.3,1,12.5-0.5,18.7c-0.7,2.7-1.7,5.3-2.5,8
		c-0.3,0.9-0.7,0.9-1.5,0.5c-3.3-1.8-6.6-3.5-9.9-5.3c-0.8-0.4-0.7-0.9-0.5-1.6c1.6-4.4,2.5-9,2.2-13.7c-0.4-6.6-2.7-12.4-7-17.5
		c-4.3-5-9.6-8.3-16-9.5c-9.2-1.8-17.6,0.1-24.8,6.2c-4.9,4.1-8.1,9.2-9.6,15.3c-1.5,6.2-1,12.3,1.1,18.3c0.7,2,0.7,2-1.2,3
		c-3,1.6-6,3.2-9,4.9C232.6,70.4,232.4,70.5,231.9,70.8z"/>
	<circle class="st12" cx="270.5" cy="51.7" r="14.6"/>
	<path class="st12" d="M360.6,70.5c2.6,0,5.1,0.2,7.6,0.6l0,0c8.3,1.3,15.9,4.2,22.9,8.8c0.9,0.6,0.8,1.2,0.3,1.9
		c-3.2,3.9-6.4,7.9-9.7,11.7c-7,7.8-14.2,15.6-21.3,23.4c-1,1.1-1.1,1.1-2.1,0c-6.7-7.3-13.5-14.6-20.1-22c-3.8-4.2-7.3-8.7-11-13
		c-0.7-0.9-0.6-1.3,0.3-1.9c6.9-4.5,14.4-7.5,22.6-8.7l0,0c3-0.5,6.1-0.7,9.1-0.7L360.6,70.5z"/>
	<path class="st14" d="M320.9,70.8c-0.7-1.8-1.4-3.6-2-5.4c-2-6-2.6-12.2-2-18.5c0.8-8.2,3.8-15.7,9.1-22.2
		c7.2-8.9,16.5-14.2,27.8-15.7c10.9-1.4,21,1,30.1,7.4c9.3,6.6,15,15.5,17.2,26.7c1.3,6.3,1,12.5-0.5,18.7c-0.7,2.7-1.7,5.3-2.5,8
		c-0.3,0.9-0.7,0.9-1.5,0.5c-3.3-1.8-6.6-3.5-9.9-5.3c-0.8-0.4-0.7-0.9-0.5-1.6c1.6-4.4,2.5-9,2.2-13.7c-0.4-6.6-2.7-12.4-7-17.5
		c-4.3-5-9.6-8.3-16-9.5c-9.2-1.8-17.6,0.1-24.8,6.2c-4.9,4.1-8.1,9.2-9.6,15.3c-1.5,6.2-1,12.3,1.1,18.3c0.7,2,0.7,2-1.2,3
		c-3,1.6-6,3.2-9,4.9C321.6,70.4,321.4,70.5,320.9,70.8z"/>
	<ellipse class="st15" cx="359.1" cy="51.8" rx="38.9" ry="33.1"/>
	<circle class="st12" cx="359.5" cy="50.7" r="16"/>
</g>
<g id="Layer_2" class="st0">
	<rect x="44.7" y="58.9" class="st16" width="155.5" height="36.9"/>
	<rect x="1" y="60.8" class="st16" width="44.2" height="36.9"/>
</g>
</svg>
