<?xml version="1.0" encoding="utf-8"?>
<!-- Generator: Adobe Illustrator 27.5.0, SVG Export Plug-In . SVG Version: 6.00 Build 0)  -->
<svg version="1.1" xmlns="http://www.w3.org/2000/svg" xmlns:xlink="http://www.w3.org/1999/xlink" x="0px" y="0px"
	 viewBox="0 0 122.3 132.2" style="enable-background:new 0 0 122.3 132.2;" xml:space="preserve">
<style type="text/css">
	.st0{display:none;}
	.st1{display:inline;fill:#145170;}
	.st2{fill:#383F68;}
	.st3{opacity:0.2;fill:#FFFFFF;}
	.st4{opacity:0.3;fill:#FFFFFF;}
	.st5{fill:#FF5000;}
	.st6{display:inline;fill:#383F68;}
	.st7{display:inline;opacity:0.25;fill:#FFFFFF;}
	.st8{display:inline;fill:#FF5000;}
</style>
<g id="Layer_3" class="st0">
	<rect x="-12.5" y="-1.6" class="st1" width="150.3" height="137"/>
</g>
<g id="Layer_1">
	<path class="st2" d="M61.5,73c2.7,0.4,5.3,1,7.9,1.8l0,0c8.5,2.6,16,6.9,22.7,12.7c0.9,0.8,0.7,1.3,0,2c-4,3.6-7.9,7.3-12,10.8
		c-8.6,7.2-17.3,14.2-25.9,21.3c-1.2,1-1.3,1-2.2-0.3c-5.9-8.7-11.9-17.4-17.7-26.2c-3.3-5-6.4-10.2-9.6-15.3
		c-0.6-1-0.4-1.5,0.6-1.9c8-3.6,16.3-5.6,25.1-5.7h0c3.2,0,6.5,0.2,9.7,0.7L61.5,73z"/>
	<path class="st3" d="M19.8,67.3c-0.4-2-0.9-4-1.3-5.9c-1.2-6.6-0.9-13.3,0.7-19.7c2.1-8.5,6.4-15.9,12.9-22
		C41,11.4,51.6,7.3,63.7,7.4c11.7,0.2,22,4.3,30.5,12.4c8.7,8.3,13.4,18.6,14,30.6c0.4,6.8-0.8,13.3-3.3,19.6
		c-1.1,2.7-2.6,5.3-3.9,8c-0.4,0.9-0.9,0.9-1.7,0.3c-3.2-2.4-6.3-4.7-9.6-7c-0.8-0.6-0.6-1.1-0.3-1.7c2.4-4.4,4-9.1,4.4-14.1
		c0.6-7-0.9-13.5-4.7-19.5c-3.7-5.9-8.9-10.1-15.4-12.4c-9.4-3.3-18.5-2.5-27,2.7c-5.7,3.5-9.9,8.4-12.4,14.6
		c-2.5,6.3-2.9,12.8-1.7,19.4c0.4,2.2,0.4,2.2-1.7,2.9c-3.4,1.2-6.8,2.5-10.2,3.7C20.6,67.1,20.4,67.2,19.8,67.3z"/>
	<ellipse transform="matrix(0.1431 -0.9897 0.9897 0.1431 1.159 107.8524)" class="st4" cx="62.9" cy="53.3" rx="35.2" ry="41.3"/>
	<circle class="st5" cx="63.4" cy="52.1" r="17"/>
</g>
<g id="Layer_1_copy" class="st0">
	<path class="st6" d="M61.5,73c2.7,0.4,5.3,1,7.9,1.8l0,0c8.5,2.6,16,6.9,22.7,12.7c0.9,0.8,0.7,1.3,0,2c-4,3.6-7.9,7.3-12,10.8
		c-8.6,7.2-17.3,14.2-25.9,21.3c-1.2,1-1.3,1-2.2-0.3c-5.9-8.7-11.9-17.4-17.7-26.2c-3.3-5-6.4-10.2-9.6-15.3
		c-0.6-1-0.4-1.5,0.6-1.9c8-3.6,16.3-5.6,25.1-5.7h0c3.2,0,6.5,0.2,9.7,0.7L61.5,73z"/>
	<path class="st1" d="M19.8,67.3c-0.4-2-0.9-4-1.3-5.9c-1.2-6.6-0.9-13.3,0.7-19.7c2.1-8.5,6.4-15.9,12.9-22
		C41,11.4,51.6,7.3,63.7,7.4c11.7,0.2,22,4.3,30.5,12.4c8.7,8.3,13.4,18.6,14,30.6c0.4,6.8-0.8,13.3-3.3,19.6
		c-1.1,2.7-2.6,5.3-3.9,8c-0.4,0.9-0.9,0.9-1.7,0.3c-3.2-2.4-6.3-4.7-9.6-7c-0.8-0.6-0.6-1.1-0.3-1.7c2.4-4.4,4-9.1,4.4-14.1
		c0.6-7-0.9-13.5-4.7-19.5c-3.7-5.9-8.9-10.1-15.4-12.4c-9.4-3.3-18.5-2.5-27,2.7c-5.7,3.5-9.9,8.4-12.4,14.6
		c-2.5,6.3-2.9,12.8-1.7,19.4c0.4,2.2,0.4,2.2-1.7,2.9c-3.4,1.2-6.8,2.5-10.2,3.7C20.6,67.1,20.4,67.2,19.8,67.3z"/>
	<ellipse transform="matrix(0.1431 -0.9897 0.9897 0.1431 1.159 107.8524)" class="st7" cx="62.9" cy="53.3" rx="35.2" ry="41.3"/>
	<circle class="st8" cx="63.4" cy="52.1" r="17"/>
</g>
</svg>
